<svg width="203" height="46" viewBox="0 0 203 46" fill="none" xmlns="http://www.w3.org/2000/svg">
<path d="M132.633 37.2799C130.517 37.2799 128.701 36.9173 127.184 36.1919C125.667 35.4453 124.417 34.4746 123.434 33.2799C122.451 32.0639 121.724 30.7519 121.254 29.3439C120.784 27.9359 120.549 26.5706 120.549 25.2479V24.5439C120.549 23.0719 120.784 21.6319 121.254 20.2239C121.745 18.7946 122.483 17.5039 123.466 16.3519C124.47 15.1999 125.72 14.2826 127.216 13.5999C128.712 12.9173 130.464 12.5759 132.472 12.5759C134.609 12.5759 136.5 12.9813 138.146 13.7919C139.812 14.5813 141.148 15.7013 142.152 17.1519C143.157 18.5813 143.744 20.2453 143.915 22.1439H137.953C137.804 21.3333 137.483 20.6293 136.992 20.0319C136.5 19.4346 135.87 18.9759 135.101 18.6559C134.331 18.3146 133.455 18.1439 132.472 18.1439C131.554 18.1439 130.72 18.3039 129.972 18.6239C129.246 18.9439 128.626 19.4026 128.113 19.9999C127.622 20.5759 127.237 21.2799 126.959 22.1119C126.703 22.9439 126.575 23.8826 126.575 24.9279C126.575 25.9733 126.703 26.9119 126.959 27.7439C127.237 28.5759 127.632 29.2906 128.145 29.8879C128.68 30.4853 129.321 30.9439 130.068 31.2639C130.816 31.5626 131.671 31.7119 132.633 31.7119C134.128 31.7119 135.389 31.3493 136.415 30.6239C137.462 29.8986 138.092 28.9279 138.306 27.7119H144.268C144.075 29.4613 143.488 31.0613 142.505 32.5119C141.522 33.9626 140.197 35.1253 138.53 35.9999C136.864 36.8533 134.898 37.2799 132.633 37.2799Z" fill="#F7A31B"/>
<path d="M150.868 36.9757V17.8239H156.829V36.9757H150.868ZM144.457 18.4639V13.2799H163.24V18.4639H144.457Z" fill="#F7A31B"/>
<path d="M165.291 36.9777V13.0879H171.253V36.9777H165.291ZM179.394 36.9777L172.823 26.7199H179.298L186.253 36.9777H179.394ZM169.746 29.4719V24.8959H175.356C176.061 24.8959 176.67 24.7572 177.183 24.4799C177.695 24.2026 178.091 23.8079 178.368 23.2959C178.668 22.7839 178.817 22.1866 178.817 21.5039C178.817 20.7999 178.668 20.1919 178.368 19.6799C178.091 19.1679 177.695 18.7732 177.183 18.4959C176.67 18.2186 176.061 18.0799 175.356 18.0799H169.746V13.0879H175.003C177.033 13.0879 178.785 13.3972 180.26 14.0159C181.734 14.6132 182.867 15.5092 183.657 16.7039C184.448 17.8772 184.843 19.3386 184.843 21.0879V21.5999C184.843 23.3492 184.437 24.8106 183.625 25.9839C182.834 27.1359 181.702 28.0106 180.228 28.6079C178.774 29.1839 177.033 29.4719 175.003 29.4719H169.746Z" fill="#F7A31B"/>
<path d="M188.057 36.9777V13.2799H194.018V36.9777H188.057ZM193.377 36.9777V31.4559H202.865V36.9777H193.377Z" fill="#F7A31B"/>
<path d="M167.678 26.568V14.9014C179.697 13.9014 183.036 17.568 183.37 20.2347C183.704 22.9014 182.739 25.5607 179.364 26.2347C174.355 27.2347 167.678 26.568 167.678 26.568Z" fill="#F7A31B"/>
<path d="M171.153 18.6451C170.464 19.2954 170.059 20.1664 170.019 21.0853C169.979 22.0041 170.306 22.9036 170.936 23.6053C171.566 24.307 172.453 24.7596 173.42 24.8733C174.387 24.9869 175.364 24.7533 176.158 24.2189L179.712 21.8231C179.811 21.7564 179.892 21.6683 179.947 21.5663C180.003 21.4643 180.032 21.3512 180.032 21.2364C180.032 21.1217 180.003 21.0086 179.947 20.9065C179.892 20.8045 179.811 20.7165 179.712 20.6498L176.158 18.2541C175.41 17.7476 174.496 17.5088 173.579 17.5805C172.662 17.6521 171.802 18.0295 171.153 18.6451ZM175.173 21.2364C175.173 21.4741 175.099 21.7063 174.958 21.9039C174.819 22.1015 174.62 22.2555 174.387 22.3464C174.154 22.4373 173.899 22.4611 173.652 22.4147C173.404 22.3684 173.177 22.254 172.999 22.0859C172.822 21.9179 172.7 21.7039 172.651 21.4708C172.602 21.2378 172.627 20.9962 172.723 20.7767C172.82 20.5571 172.983 20.3695 173.192 20.2375C173.402 20.1055 173.648 20.035 173.9 20.035C174.238 20.0351 174.562 20.1616 174.8 20.3869C175.039 20.6122 175.173 20.9178 175.173 21.2364Z" fill="white"/>
<path fill-rule="evenodd" clip-rule="evenodd" d="M0.582584 40.8579C0.582668 41.0978 0.868112 41.2067 1.03903 41.0381L32.3615 10.1403C34.9093 7.62704 33.126 3.29386 29.5443 3.29492L8.58307 3.30112C4.15735 3.30242 0.570724 6.88544 0.572266 11.3039L0.582584 40.8579Z" fill="#010644"/>
<path d="M44.6406 37.2976V5.07571C44.6406 3.4591 42.6717 2.66201 41.5439 3.82205L3.53695 42.9164C2.42723 44.0579 3.23441 45.9701 4.82774 45.9701H36.662C42.437 45.9701 44.6406 40.4512 44.6406 37.2976Z" fill="#010644"/>
<path d="M33.6207 45.9701C43.3972 37.3534 36.3811 32.76 30.8124 31.7967C18.7808 29.7155 14.7771 26.5758 14.7771 26.5758C12.409 25.2252 13.8344 23.0731 15.9213 21.304L16.3855 20.9016C16.8555 20.5127 17.3096 19.8949 16.7633 19.1325C16.309 18.4986 15.3701 18.4852 14.5766 18.9695L12.3327 20.4242L10.0888 21.879C8.17027 23.1161 1.10227 26.3768 10.4429 32.2721C12.7303 34.7676 8.80765 36.8226 6.62 39.2241C6.49446 39.3608 0.566505 45.7639 0.566406 45.9701C1.17744 45.9701 12.5961 45.9698 12.92 45.9701H31.6174C32.0257 45.9715 33.3152 45.9701 33.6207 45.9701Z" fill="white"/>
<path d="M24.8079 38.0524C24.5241 36.2245 26.9051 36.9932 24.4454 35.5761C14.8957 30.0744 5.98871 27.4859 9.96905 24.1605C14.6059 20.2865 13.935 20.9878 14.8957 20.1501" stroke="#010644" stroke-miterlimit="3.8637" stroke-linecap="round" stroke-linejoin="round" stroke-dasharray="3 3"/>
<path d="M20.6008 10.4984C20.6008 7.99751 18.6547 5.97009 16.2539 5.97009C16.1612 5.97009 16.0677 5.97009 15.9735 5.97009C13.6744 6.14658 11.9012 8.15124 11.9201 10.5527C11.9402 12.7041 13.4896 14.9186 14.8208 16.4662C15.5542 17.3189 16.8764 17.3199 17.6173 16.4737C18.9861 14.9104 20.5962 12.669 20.6008 10.4984ZM17.9905 10.4984C17.9905 11.4988 17.212 12.3097 16.2517 12.3097C15.2915 12.3097 14.513 11.4988 14.513 10.4984C14.513 9.49804 15.2915 8.68704 16.2517 8.68704C17.212 8.68704 17.9905 9.49804 17.9905 10.4984Z" fill="#F7A31B"/>
<path d="M15.9651 43.7941C15.9483 43.7293 15.941 43.6625 15.9432 43.5957L16.0168 41.3908L15.6621 41.188V44.1961H16.1282C16.0708 44.1223 16.0274 44.0363 16.0029 43.9413L15.9651 43.7941Z" fill="#010644"/>
<path d="M16.4234 38.4258L16.8428 36.8989C16.915 36.6359 17.1456 36.4497 17.4166 36.4357L20.5162 36.2752L23.6158 36.4357C23.8868 36.4497 24.1175 36.6359 24.1896 36.8989L24.6091 38.4258H25.28C25.3109 38.4258 25.3409 38.4288 25.3703 38.434V34.2172C25.3703 34.0679 25.2499 33.9469 25.1015 33.9469H15.931C15.7825 33.9469 15.6621 34.0679 15.6621 34.2172V38.434C15.6915 38.4288 15.7215 38.4258 15.7524 38.4258H16.4234Z" fill="#010644"/>
<path d="M25.0892 43.5959C25.0915 43.6625 25.0841 43.7293 25.0674 43.7942L25.0295 43.9413C25.0051 44.0363 24.9617 44.1223 24.9043 44.196H25.3704V41.188L25.0157 41.3908L25.0892 43.5959Z" fill="#010644"/>
<path d="M16.0332 40.7539L16.0391 40.7572L16.0393 40.7502C16.0372 40.7514 16.0354 40.7527 16.0332 40.7539Z" fill="#010644"/>
<path d="M24.8221 39.1875H24.8184L24.8221 39.201V39.1875Z" fill="#010644"/>
<path d="M16.2109 39.1875V39.201L16.2147 39.1875H16.2109Z" fill="#010644"/>
<path d="M24.9941 40.7502L24.9944 40.7572L25.0003 40.7539C24.9981 40.7527 24.9963 40.7514 24.9941 40.7502Z" fill="#010644"/>
<path d="M15.6811 40.7743C15.6391 40.7503 15.613 40.7064 15.6096 40.6584C15.8238 40.6473 16.0181 40.5879 16.0181 40.4799V39.1036C16.0181 38.9956 15.8239 38.9362 15.6098 38.9251C15.6171 38.8522 15.6778 38.7948 15.7522 38.7948H16.3218L16.3701 38.619H15.7522C15.5808 38.619 15.441 38.756 15.4342 38.9267C15.231 38.9412 15.0527 39.0002 15.0527 39.1036V40.4799C15.0527 40.5834 15.2309 40.6422 15.4341 40.6568C15.437 40.7686 15.4977 40.8717 15.5948 40.9271L16.0239 41.1725L16.0305 40.9741L15.6811 40.7743Z" fill="#010644"/>
<path d="M25.2799 38.7948C25.3544 38.7948 25.4151 38.8522 25.4224 38.9251C25.2083 38.9362 25.0141 38.9956 25.0141 39.1036V40.4799C25.0141 40.5879 25.2083 40.6473 25.4226 40.6584C25.4192 40.7064 25.393 40.7503 25.351 40.7744L25.0017 40.9742L25.0083 41.1725L25.4374 40.9272C25.5345 40.8717 25.5952 40.7686 25.598 40.6568C25.8013 40.6422 25.9795 40.5834 25.9795 40.4799V39.1036C25.9795 39.0002 25.8012 38.9412 25.598 38.9267C25.5912 38.756 25.4514 38.619 25.2799 38.619H24.6621L24.7104 38.7948H25.2799Z" fill="#010644"/>
<path d="M23.2084 45.9706H24.2902C24.3376 45.9706 24.3759 45.932 24.3759 45.8844V44.968H24.7243V44.358C24.6172 44.425 24.4915 44.4635 24.3585 44.4635H16.6743C16.5414 44.4635 16.4157 44.425 16.3086 44.358V44.968H16.657V45.8844C16.657 45.932 16.6953 45.9706 16.7426 45.9706H17.8245C17.8718 45.9706 17.9102 45.932 17.9102 45.8844V44.968H23.1227V45.8844C23.1227 45.932 23.161 45.9706 23.2084 45.9706Z" fill="#010644"/>
<path d="M16.1508 43.7456L16.1887 43.8928C16.246 44.115 16.4455 44.2702 16.6737 44.2702H20.5158H24.3579C24.5862 44.2702 24.7857 44.115 24.8429 43.8928L24.8809 43.7456C24.8929 43.6989 24.8982 43.6506 24.8966 43.6023L24.7715 39.8483C24.7689 39.7699 24.7571 39.6921 24.7363 39.6165L24.004 36.9502C23.9539 36.768 23.7934 36.6384 23.6056 36.6286L20.5158 36.4686L17.4261 36.6286C17.2383 36.6384 17.0778 36.768 17.0277 36.9502L16.2954 39.6165C16.2746 39.6921 16.2628 39.7699 16.2602 39.8483L16.135 43.6023C16.1334 43.6506 16.1387 43.6989 16.1508 43.7456ZM19.414 43.7812V43.284C19.414 43.2498 19.4416 43.222 19.4757 43.222H21.5559C21.59 43.222 21.6176 43.2498 21.6176 43.284V43.7812C21.6176 43.8155 21.59 43.8433 21.5559 43.8433H19.4757C19.4416 43.8433 19.414 43.8155 19.414 43.7812ZM24.3112 42.854H22.7733V42.7192H24.3112V42.854ZM24.3183 41.641V42.2824C24.3183 42.3152 24.2918 42.3418 24.2591 42.3418H22.8323C22.7997 42.3418 22.7731 42.3152 22.7731 42.2824V41.641C22.7731 41.6081 22.7997 41.5815 22.8323 41.5815H24.2591C24.2918 41.5815 24.3183 41.6081 24.3183 41.641ZM16.7205 42.854V42.7192H18.2583V42.854H16.7205ZM18.2585 42.2824C18.2585 42.3152 18.232 42.3418 18.1994 42.3418H16.7725C16.7398 42.3418 16.7134 42.3152 16.7134 42.2824V41.641C16.7134 41.6081 16.7398 41.5815 16.7725 41.5815H18.1994C18.232 41.5815 18.2585 41.6081 18.2585 41.641V42.2824ZM17.3475 37.039C17.3595 36.9952 17.398 36.9642 17.4431 36.9618L20.5158 36.8028L23.5885 36.9618C23.6337 36.9642 23.6721 36.9952 23.6842 37.0391L24.4165 39.7053L16.6152 39.7052L17.3475 37.039Z" fill="#010644"/>
<path d="M19.918 36.9879H21.1125V37.3216H19.918V36.9879Z" fill="#010644"/>
<path d="M22.3377 39.0884C22.1019 39.0884 21.9096 39.2778 21.9023 39.5133H22.7731C22.7659 39.2778 22.5736 39.0884 22.3377 39.0884Z" fill="#010644"/>
<path d="M21.7149 39.5133C21.7221 39.1743 21.9981 38.9006 22.337 38.9006C22.6758 38.9006 22.9519 39.1743 22.9591 39.5133H23.5939C23.5239 39.0956 23.4043 38.8133 23.2338 38.6617C23.1328 38.5718 23.035 38.5457 22.967 38.5404C22.9576 38.5392 22.948 38.5385 22.9383 38.5385H22.9011C22.7571 38.6846 22.5576 38.7739 22.3379 38.7739C22.3114 38.7739 22.2846 38.7725 22.2581 38.7699C22.0728 38.7513 21.9036 38.6699 21.7741 38.5385H21.7357C21.7259 38.5385 21.7163 38.5393 21.7068 38.5404C21.639 38.5457 21.5412 38.5718 21.4401 38.6617C21.2697 38.8133 21.1501 39.0956 21.0801 39.5133H21.7149Z" fill="#010644"/>
<path d="M22.3371 38.6799C22.7239 38.6799 23.0374 38.3646 23.0374 37.9756C23.0374 37.5866 22.7239 37.2714 22.3371 37.2714C21.9503 37.2714 21.6367 37.5866 21.6367 37.9756C21.6367 38.3646 21.9503 38.6799 22.3371 38.6799Z" fill="#010644"/>
<path d="M16.2605 12.6355C17.4637 12.6355 18.439 11.6617 18.439 10.4606C18.439 9.25938 17.4637 8.28564 16.2605 8.28564C15.0574 8.28564 14.082 9.25938 14.082 10.4606C14.082 11.6617 15.0574 12.6355 16.2605 12.6355Z" fill="white"/>
<path d="M49.3359 36.9772V13.3636H64.7704V17.4204H54.2644V22.9659H63.7459V27.0227H54.2644V36.9772H49.3359Z" fill="#010644"/>
<path d="M71.2416 13.3636V36.9772H66.3926V13.3636H71.2416Z" fill="#010644"/>
<path d="M81.4913 36.9773C79.693 36.9773 78.1451 36.6137 76.8476 35.8864C75.5575 35.1515 74.5632 34.1137 73.8654 32.7727C73.1669 31.4243 72.8184 29.8296 72.8184 27.9887C72.8184 26.1932 73.1669 24.6175 73.8654 23.2614C74.5632 21.9053 75.5462 20.8485 76.8136 20.0909C78.0883 19.3333 79.5828 18.9546 81.2983 18.9546C82.4515 18.9546 83.5253 19.1402 84.5189 19.5114C85.5206 19.875 86.3933 20.4243 87.1372 21.1591C87.8884 21.894 88.4727 22.8182 88.8901 23.9319C89.3074 25.0379 89.5158 26.3334 89.5158 27.8182V29.1477H74.7529V26.1477H84.9516C84.9516 25.4508 84.8 24.8334 84.4962 24.2955C84.193 23.7576 83.7717 23.3371 83.2328 23.0341C82.7019 22.7235 82.0836 22.5682 81.3778 22.5682C80.6419 22.5682 79.9888 22.7387 79.4199 23.0796C78.8583 23.4129 78.4182 23.8637 78.0997 24.4319C77.7812 24.9925 77.6176 25.6175 77.6102 26.3069V29.1591C77.6102 30.0227 77.7692 30.769 78.0884 31.3977C78.4142 32.0265 78.8736 32.5114 79.4653 32.8523C80.0576 33.1932 80.7594 33.3637 81.5714 33.3637C82.1096 33.3637 82.6031 33.2879 83.0512 33.1364C83.4986 32.9849 83.8819 32.7576 84.2004 32.4546C84.5189 32.1515 84.762 31.7803 84.9289 31.3409L89.4136 31.6364C89.1859 32.7121 88.7191 33.6515 88.0133 34.4545C87.3155 35.25 86.4127 35.8712 85.3049 36.3182C84.2044 36.7576 82.933 36.9773 81.4913 36.9773Z" fill="#010644"/>
<path d="M99.0447 36.9773C97.2464 36.9773 95.6978 36.6137 94.4004 35.8864C93.1103 35.1515 92.1166 34.1137 91.4181 32.7727C90.7203 31.4243 90.3711 29.8296 90.3711 27.9887C90.3711 26.1932 90.7203 24.6175 91.4181 23.2614C92.1166 21.9053 93.0989 20.8485 94.3663 20.0909C95.6411 19.3333 97.1362 18.9546 98.851 18.9546C100.004 18.9546 101.078 19.1402 102.072 19.5114C103.074 19.875 103.947 20.4243 104.69 21.1591C105.441 21.894 106.025 22.8182 106.443 23.9319C106.86 25.0379 107.069 26.3334 107.069 27.8182V29.1477H92.3063V26.1477H102.505C102.505 25.4508 102.353 24.8334 102.05 24.2955C101.746 23.7576 101.325 23.3371 100.786 23.0341C100.255 22.7235 99.6363 22.5682 98.9305 22.5682C98.1946 22.5682 97.5422 22.7387 96.9733 23.0796C96.4117 23.4129 95.9716 23.8637 95.6524 24.4319C95.3339 24.9925 95.171 25.6175 95.163 26.3069V29.1591C95.163 30.0227 95.3226 30.769 95.6411 31.3977C95.9676 32.0265 96.4264 32.5114 97.0187 32.8523C97.6103 33.1932 98.3121 33.3637 99.1241 33.3637C99.663 33.3637 100.157 33.2879 100.604 33.1364C101.052 32.9849 101.435 32.7576 101.754 32.4546C102.072 32.1515 102.315 31.7803 102.482 31.3409L106.966 31.6364C106.739 32.7121 106.273 33.6515 105.567 34.4545C104.868 35.25 103.965 35.8712 102.858 36.3182C101.757 36.7576 100.486 36.9773 99.0447 36.9773Z" fill="#010644"/>
<path d="M117.931 19.1818V22.8181H107.402V19.1818H117.931ZM109.792 15H114.642V31.2727C114.642 31.7197 114.71 32.0681 114.846 32.3181C114.983 32.5606 115.172 32.731 115.416 32.8295C115.666 32.928 115.954 32.9773 116.28 32.9773C116.508 32.9773 116.736 32.9583 116.963 32.9204C117.191 32.8749 117.365 32.8409 117.487 32.8181L118.249 36.4204C118.006 36.4961 117.665 36.5833 117.225 36.6818C116.785 36.7879 116.25 36.8522 115.62 36.8749C114.451 36.9204 113.427 36.7651 112.547 36.4091C111.674 36.053 110.995 35.4999 110.509 34.7499C110.024 33.9999 109.785 33.053 109.792 31.9091V15Z" fill="#010644"/>
</svg>
