<svg width="212" height="44" viewBox="0 0 212 44" fill="none" xmlns="http://www.w3.org/2000/svg">
<mask id="mask0_2741_30149" style="mask-type:luminance" maskUnits="userSpaceOnUse" x="0" y="0" width="212" height="44">
<path d="M212 0H0V44H212V0Z" fill="white"/>
</mask>
<g mask="url(#mask0_2741_30149)">
<mask id="mask1_2741_30149" style="mask-type:luminance" maskUnits="userSpaceOnUse" x="0" y="0" width="212" height="44">
<path d="M212 0H0V44H212V0Z" fill="white"/>
</mask>
<g mask="url(#mask1_2741_30149)">
<path fill-rule="evenodd" clip-rule="evenodd" d="M19.0672 0.0145472C23.5373 0.191166 27.7747 1.96966 30.9383 4.997C33.933 7.8473 35.7691 11.6249 36.1177 15.653C36.4663 19.6811 35.3046 23.6964 32.8408 26.9793L21.1855 42.5942C20.8611 43.029 20.4329 43.3834 19.9365 43.6279C19.4401 43.8724 18.8899 44 18.3316 44C17.7733 44 17.2232 43.8724 16.7268 43.6279C16.2304 43.3834 15.8021 43.029 15.4777 42.5942L3.82236 26.9793C1.22217 23.4951 0.085813 19.2027 0.63866 14.954C1.19157 10.7053 3.39342 6.81083 6.8071 4.04337C10.2209 1.27591 14.597 -0.16214 19.0672 0.0145472ZM18.724 5.51022C21.7327 5.63438 24.5848 6.88487 26.7142 9.01351C28.7298 11.0176 29.9656 13.6738 30.2002 16.506C30.4349 19.3382 29.653 22.1615 27.9947 24.4698L20.1498 35.4491C19.9314 35.7548 19.6432 36.0039 19.3091 36.1759C18.9749 36.3478 18.6047 36.4375 18.2289 36.4375C17.8531 36.4375 17.4828 36.3478 17.1487 36.1759C16.8146 36.0039 16.5264 35.7548 16.308 35.4491L8.46304 24.4698C6.71291 22.02 5.94806 19.0019 6.32019 16.0145C6.69232 13.0271 8.17433 10.2888 10.472 8.34299C12.7697 6.39716 15.7152 5.38599 18.724 5.51022Z" fill="#010644"/>
<path fill-rule="evenodd" clip-rule="evenodd" d="M2.02853 10.1549C2.94884 12.3953 4.66398 15.0171 7.47288 19.3108C11.0796 24.8242 12.8831 27.5808 15.1358 29.2596C18.8614 32.036 23.619 33.0393 28.1453 32.0031C28.5444 31.9117 28.9441 31.7956 29.3527 31.6525L21.1855 42.5943C20.8611 43.0291 20.4329 43.3835 19.9365 43.628C19.4401 43.8725 18.8899 44 18.3316 44C17.7733 44 17.2232 43.8725 16.7268 43.628C16.2304 43.3835 15.8021 43.0291 15.4777 42.5943L3.82236 26.9793C1.22217 23.4952 0.0858131 19.2028 0.63866 14.9541C0.856011 13.284 1.32818 11.6686 2.02853 10.1549Z" fill="url(#paint0_linear_2741_30149)"/>
<path d="M19.9064 13.8515V13.8485L22.2239 14.8886L24.5507 14.0144L18.3583 11.6875L12.166 14.0144L18.3583 16.3413L20.6759 15.4703L18.3583 14.5132V14.5109L19.9064 13.8515Z" fill="#010644"/>
<path d="M12.166 14.79V21.7708L17.9713 23.9527V16.972L12.166 14.79ZM15.2622 21.7964L13.7141 21.2147V20.3871L15.2622 20.9688V21.7964Z" fill="#010644"/>
<path d="M22.2273 15.6626V17.6056L20.6792 18.1874V16.2444L18.7441 16.972V23.9527L24.5494 21.7708V14.79L22.2273 15.6626Z" fill="#010644"/>
<path d="M41.0039 34.7294V10.3749H50.4535C52.262 10.3749 53.8057 10.6992 55.0846 11.3476C56.371 11.9882 57.3493 12.8983 58.0196 14.078C58.6982 15.2499 59.0371 16.6289 59.0371 18.2148C59.0371 19.8085 58.694 21.1796 58.008 22.328C57.3219 23.4687 56.3277 24.3437 55.0255 24.953C53.7316 25.5624 52.1646 25.8671 50.3245 25.8671H43.9978V21.789H49.506C50.4727 21.789 51.2754 21.6562 51.9148 21.3905C52.5543 21.1249 53.0297 20.7265 53.3419 20.1953C53.6616 19.664 53.8215 19.0038 53.8215 18.2148C53.8215 17.4179 53.6616 16.746 53.3419 16.1992C53.0297 15.6523 52.5502 15.2382 51.9032 14.957C51.2637 14.6679 50.4569 14.5234 49.4827 14.5234H46.0673V34.7294H41.0039ZM53.9381 23.453L59.8906 34.7294H54.3004L48.4769 23.453H53.9381Z" fill="#010644"/>
<path d="M68.7022 34.7265C66.8855 34.7265 65.315 34.3398 63.9895 33.5664C62.6715 32.7851 61.6541 31.6992 60.9371 30.3086C60.2195 28.9101 59.8613 27.2891 59.8613 25.4453C59.8613 23.5859 60.2195 21.9609 60.9371 20.5703C61.6541 19.1718 62.6715 18.0859 63.9895 17.3125C65.315 16.5312 66.8855 16.1406 68.7022 16.1406C70.519 16.1406 72.086 16.5312 73.4033 17.3125C74.7288 18.0859 75.7503 19.1718 76.4673 20.5703C77.1849 21.9609 77.5438 23.5859 77.5438 25.4453C77.5438 27.2891 77.1849 28.9101 76.4673 30.3086C75.7503 31.6992 74.7288 32.7851 73.4033 33.5664C72.086 34.3398 70.519 34.7265 68.7022 34.7265ZM68.7255 30.8593C69.5523 30.8593 70.2418 30.625 70.7954 30.1562C71.3491 29.6796 71.7663 29.0312 72.0469 28.2109C72.3357 27.3906 72.4798 26.457 72.4798 25.4101C72.4798 24.3633 72.3357 23.4296 72.0469 22.6093C71.7663 21.7891 71.3491 21.1406 70.7954 20.664C70.2418 20.1875 69.5523 19.9492 68.7255 19.9492C67.8913 19.9492 67.1901 20.1875 66.6206 20.664C66.0594 21.1406 65.6347 21.7891 65.3459 22.6093C65.0653 23.4296 64.9246 24.3633 64.9246 25.4101C64.9246 26.457 65.0653 27.3906 65.3459 28.2109C65.6347 29.0312 66.0594 29.6796 66.6206 30.1562C67.1901 30.625 67.8913 30.8593 68.7255 30.8593Z" fill="#010644"/>
<path d="M89.8323 16.1249H94.7769V27.9502C94.7769 29.3403 94.4448 30.5433 93.7807 31.5592C93.1227 32.5692 92.2034 33.3504 91.024 33.9029C89.8439 34.4494 88.4745 34.7227 86.9157 34.7227C85.3446 34.7227 83.8956 34.4494 82.7155 33.9029C81.5361 33.3504 80.6168 32.5692 79.9588 31.5592C79.307 30.5433 78.9805 29.3403 78.9805 27.9502V16.1249H83.9251V27.5225C83.9251 28.0869 84.0493 28.5918 84.2983 29.0374C84.5473 29.477 84.8911 29.8216 85.3302 30.0711C85.7748 30.3206 86.3524 30.4454 86.9157 30.4454C87.4845 30.4454 87.9888 30.3206 88.4272 30.0711C88.8663 29.8216 89.21 29.477 89.459 29.0374C89.7081 28.5918 89.8323 28.0869 89.8323 27.5225V16.1249Z" fill="#010644"/>
<path d="M106.743 16.375V20.125H95.9258V16.375H106.743ZM98.3813 12.0624H103.364V28.941C103.364 29.4019 103.434 29.7613 103.574 30.0191C103.714 30.2692 103.909 30.445 104.159 30.5465C104.416 30.648 104.712 30.6988 105.047 30.6988C105.281 30.6988 105.515 30.6793 105.749 30.6402C105.983 30.5934 106.162 30.5582 106.287 30.5347L107.071 34.2496C106.821 34.3277 106.47 34.4176 106.018 34.5191C105.566 34.6285 105.016 34.6949 104.369 34.7184C103.169 34.7653 102.116 34.6051 101.211 34.2379C100.315 33.8707 99.6169 33.3004 99.1181 32.527C98.6193 31.7535 98.3737 30.7769 98.3813 29.5973V12.0624Z" fill="#010644"/>
<path d="M116.995 34.7265C115.147 34.7265 113.557 34.3515 112.224 33.6016C110.898 32.8437 109.877 31.7734 109.16 30.3906C108.443 29 108.084 27.3554 108.084 25.457C108.084 23.6054 108.443 21.9805 109.16 20.582C109.877 19.1836 110.887 18.0938 112.189 17.3125C113.499 16.5312 115.034 16.1406 116.797 16.1406C117.981 16.1406 119.085 16.332 120.106 16.7148C121.135 17.0898 122.031 17.6562 122.796 18.4141C123.568 19.1718 124.168 20.125 124.597 21.2734C125.025 22.414 125.24 23.75 125.24 25.2812V26.6523H110.072V23.5586H120.55C120.55 22.8398 120.394 22.2031 120.082 21.6484C119.771 21.0937 119.338 20.6601 118.784 20.3477C118.239 20.0273 117.603 19.8672 116.878 19.8672C116.122 19.8672 115.451 20.043 114.867 20.3945C114.29 20.7382 113.837 21.2031 113.51 21.7891C113.183 22.3672 113.015 23.0117 113.007 23.7227V26.6641C113.007 27.5546 113.171 28.3242 113.499 28.9726C113.833 29.6211 114.305 30.1211 114.913 30.4726C115.522 30.8242 116.243 31 117.077 31C117.631 31 118.137 30.9218 118.598 30.7656C119.057 30.6093 119.451 30.375 119.778 30.0624C120.106 29.75 120.355 29.3672 120.527 28.914L125.135 29.2187C124.901 30.3281 124.421 31.2968 123.696 32.1249C122.979 32.9453 122.051 33.5859 120.913 34.0468C119.782 34.5 118.477 34.7265 116.995 34.7265Z" fill="#010644"/>
<path d="M139.745 35.035C137.572 35.035 135.706 34.661 134.147 33.913C132.588 33.143 131.304 32.142 130.294 30.91C129.284 29.656 128.538 28.303 128.055 26.851C127.572 25.399 127.33 23.991 127.33 22.627V21.901C127.33 20.383 127.572 18.898 128.055 17.446C128.56 15.972 129.317 14.641 130.327 13.453C131.359 12.265 132.643 11.319 134.18 10.615C135.717 9.91102 137.517 9.55902 139.581 9.55902C141.776 9.55902 143.719 9.97702 145.41 10.813C147.122 11.627 148.494 12.782 149.526 14.278C150.558 15.752 151.162 17.468 151.338 19.426H145.212C145.059 18.59 144.729 17.864 144.224 17.248C143.719 16.632 143.072 16.159 142.281 15.829C141.491 15.477 140.591 15.301 139.581 15.301C138.637 15.301 137.781 15.466 137.012 15.796C136.266 16.126 135.629 16.599 135.102 17.215C134.597 17.809 134.202 18.535 133.916 19.393C133.653 20.251 133.521 21.219 133.521 22.297C133.521 23.375 133.653 24.343 133.916 25.201C134.202 26.059 134.608 26.796 135.135 27.412C135.684 28.028 136.342 28.501 137.111 28.831C137.879 29.139 138.758 29.293 139.745 29.293C141.282 29.293 142.578 28.919 143.631 28.171C144.707 27.423 145.355 26.422 145.574 25.168H151.7C151.502 26.972 150.898 28.622 149.889 30.118C148.879 31.614 147.517 32.813 145.805 33.715C144.092 34.595 142.073 35.035 139.745 35.035Z" fill="#F7A31B"/>
<path d="M158.481 34.7213V14.971H164.606V34.7213H158.481ZM151.895 15.631V10.285H171.193V15.631H151.895Z" fill="#F7A31B"/>
<path d="M173.301 34.7233V10.087H179.426V34.7233H173.301ZM187.791 34.7233L181.04 24.145H187.692L194.838 34.7233H187.791ZM177.878 26.983V22.264H183.641C184.366 22.264 184.992 22.121 185.519 21.835C186.045 21.549 186.452 21.142 186.737 20.614C187.044 20.086 187.198 19.47 187.198 18.766C187.198 18.04 187.044 17.413 186.737 16.885C186.452 16.357 186.045 15.95 185.519 15.664C184.992 15.378 184.366 15.235 183.641 15.235H177.878V10.087H183.279C185.365 10.087 187.165 10.406 188.68 11.044C190.195 11.66 191.359 12.584 192.171 13.816C192.983 15.026 193.389 16.533 193.389 18.337V18.865C193.389 20.669 192.972 22.176 192.138 23.386C191.326 24.574 190.162 25.476 188.647 26.092C187.154 26.686 185.365 26.983 183.279 26.983H177.878Z" fill="#F7A31B"/>
<path d="M196.689 34.7233V10.285H202.815V34.7233H196.689ZM202.157 34.7233V29.029H211.904V34.7233H202.157Z" fill="#F7A31B"/>
<path d="M175.752 23.9883V11.9571C188.101 10.9258 191.532 14.7071 191.875 17.4571C192.218 20.2071 191.227 22.9495 187.758 23.6446C182.613 24.6758 175.752 23.9883 175.752 23.9883Z" fill="#F7A31B"/>
<path d="M179.323 15.8178C178.615 16.4884 178.2 17.3866 178.158 18.3342C178.117 19.2817 178.453 20.2094 179.1 20.933C179.747 21.6566 180.658 22.1234 181.652 22.2406C182.646 22.3577 183.65 22.1169 184.465 21.5657L188.117 19.0951C188.218 19.0263 188.301 18.9355 188.359 18.8303C188.416 18.7251 188.446 18.6085 188.446 18.4901C188.446 18.3718 188.416 18.2552 188.359 18.1499C188.301 18.0447 188.218 17.9539 188.117 17.8851L184.465 15.4145C183.697 14.8923 182.758 14.646 181.816 14.7199C180.873 14.7938 179.99 15.183 179.323 15.8178ZM183.454 18.4901C183.454 18.7352 183.377 18.9747 183.233 19.1784C183.089 19.3822 182.885 19.541 182.646 19.6348C182.407 19.7285 182.144 19.7531 181.89 19.7052C181.636 19.6575 181.403 19.5395 181.22 19.3662C181.037 19.1929 180.913 18.9722 180.862 18.7318C180.811 18.4915 180.838 18.2424 180.936 18.016C181.036 17.7896 181.203 17.5961 181.419 17.46C181.633 17.3238 181.887 17.2511 182.145 17.2511C182.492 17.2512 182.825 17.3817 183.071 17.6141C183.316 17.8464 183.454 18.1615 183.454 18.4901Z" fill="white"/>
</g>
</g>
<defs>
<linearGradient id="paint0_linear_2741_30149" x1="14.9089" y1="10.1533" x2="14.9089" y2="44.0001" gradientUnits="userSpaceOnUse">
<stop stop-color="#F7A31B"/>
<stop offset="1" stop-color="#FFC463"/>
</linearGradient>
</defs>
</svg>
