<svg width="32" height="33" viewBox="0 0 32 33" fill="none" xmlns="http://www.w3.org/2000/svg">
<path d="M17.6448 0.705094C18.8123 0.700613 19.9799 0.712348 21.147 0.740292L21.4574 0.751492C21.8158 0.764292 22.1694 0.780291 22.5966 0.79949C24.2989 0.879488 25.4604 1.14828 26.4796 1.54347C27.5355 1.94985 28.4251 2.50023 29.3146 3.3898C30.128 4.18914 30.7575 5.15606 31.1593 6.22331C31.5545 7.24247 31.8233 8.40563 31.9033 10.108C31.9225 10.5336 31.9385 10.8887 31.9513 11.2471L31.9609 11.5575C31.9893 12.7242 32.0016 13.8912 31.9977 15.0582L31.9993 16.2518V18.3477C32.0032 19.5152 31.991 20.6828 31.9625 21.85L31.9529 22.1604C31.9401 22.5188 31.9241 22.8723 31.9049 23.2995C31.8249 25.0019 31.5529 26.1634 31.1593 27.1826C30.7588 28.251 30.1291 29.2187 29.3146 30.0177C28.5146 30.831 27.5472 31.4605 26.4796 31.8624C25.4604 32.2576 24.2989 32.5264 22.5966 32.6064C22.1694 32.6256 21.8158 32.6416 21.4574 32.6544L21.147 32.664C19.9799 32.6924 18.8123 32.7047 17.6448 32.7008L16.4513 32.7024H14.357C13.1895 32.7063 12.0219 32.6941 10.8548 32.6656L10.5444 32.656C10.1646 32.6422 9.78486 32.6262 9.40524 32.608C7.70293 32.528 6.54139 32.256 5.52064 31.8624C4.45299 31.4614 3.48592 30.8318 2.68719 30.0177C1.8729 29.2182 1.24282 28.2507 0.84088 27.1826C0.4457 26.1634 0.176914 25.0019 0.0969181 23.2995C0.0790997 22.9199 0.0631004 22.5402 0.0489206 22.1604L0.0409213 21.85C0.0114245 20.6828 -0.00190958 19.5152 0.000923154 18.3477V15.0582C-0.00354216 13.8912 0.00819182 12.7242 0.0361215 11.5575L0.0473208 11.2471C0.0601202 10.8887 0.0761193 10.5336 0.0953183 10.108C0.175314 8.40403 0.4441 7.24407 0.83928 6.22331C1.24146 5.15553 1.87277 4.18889 2.68879 3.3914C3.48698 2.57663 4.45343 1.94597 5.52064 1.54347C6.54139 1.14828 7.70133 0.879488 9.40524 0.79949L10.5444 0.751492L10.8548 0.743493C12.0214 0.71401 13.1884 0.700676 14.3554 0.703494L17.6448 0.705094ZM16.0001 8.70482C14.9402 8.68983 13.8878 8.88565 12.9042 9.28091C11.9206 9.67617 11.0254 10.263 10.2705 11.0072C9.51571 11.7515 8.91631 12.6383 8.50719 13.6163C8.09807 14.5942 7.88738 15.6437 7.88738 16.7037C7.88738 17.7638 8.09807 18.8133 8.50719 19.7912C8.91631 20.7692 9.51571 21.656 10.2705 22.4003C11.0254 23.1445 11.9206 23.7313 12.9042 24.1266C13.8878 24.5218 14.9402 24.7177 16.0001 24.7027C18.1217 24.7027 20.1565 23.8599 21.6567 22.3596C23.1569 20.8594 23.9997 18.8246 23.9997 16.7029C23.9997 14.5813 23.1569 12.5465 21.6567 11.0463C20.1565 9.54605 18.1217 8.70482 16.0001 8.70482ZM16.0001 11.9047C16.6377 11.893 17.2712 12.0084 17.8637 12.2442C18.4562 12.4801 18.9957 12.8316 19.4508 13.2783C19.9059 13.725 20.2674 14.258 20.5142 14.846C20.761 15.434 20.8882 16.0652 20.8883 16.7029C20.8884 17.3406 20.7614 17.972 20.5148 18.56C20.2682 19.1481 19.9068 19.6812 19.4519 20.128C18.997 20.5749 18.4576 20.9266 17.8652 21.1626C17.2728 21.3987 16.6393 21.5143 16.0017 21.5028C14.7287 21.5028 13.5079 20.9971 12.6078 20.0969C11.7076 19.1968 11.2019 17.9759 11.2019 16.7029C11.2019 15.43 11.7076 14.2091 12.6078 13.309C13.5079 12.4088 14.7287 11.9031 16.0017 11.9031L16.0001 11.9047ZM24.3997 6.3049C23.8835 6.32556 23.3954 6.54514 23.0375 6.91764C22.6796 7.29014 22.4798 7.78667 22.4798 8.30324C22.4798 8.8198 22.6796 9.31633 23.0375 9.68883C23.3954 10.0613 23.8835 10.2809 24.3997 10.3016C24.9301 10.3016 25.4388 10.0909 25.8138 9.7158C26.1889 9.34074 26.3996 8.83205 26.3996 8.30163C26.3996 7.77122 26.1889 7.26253 25.8138 6.88747C25.4388 6.51241 24.9301 6.3017 24.3997 6.3017V6.3049Z" fill="#010644"/>
</svg>
