<svg width="32" height="33" viewBox="0 0 32 33" fill="none" xmlns="http://www.w3.org/2000/svg">
<path d="M28.4444 0.703125C29.3874 0.703125 30.2918 1.07773 30.9586 1.74452C31.6254 2.41132 32 3.31569 32 4.25868V29.1476C32 30.0906 31.6254 30.9949 30.9586 31.6617C30.2918 32.3285 29.3874 32.7031 28.4444 32.7031H3.55556C2.61256 32.7031 1.70819 32.3285 1.0414 31.6617C0.374602 30.9949 0 30.0906 0 29.1476V4.25868C0 3.31569 0.374602 2.41132 1.0414 1.74452C1.70819 1.07773 2.61256 0.703125 3.55556 0.703125H28.4444ZM27.5556 28.2587V18.8365C27.5556 17.2994 26.945 15.8253 25.8581 14.7384C24.7712 13.6515 23.2971 13.0409 21.76 13.0409C20.2489 13.0409 18.4889 13.9653 17.6356 15.352V13.3787H12.6756V28.2587H17.6356V19.4942C17.6356 18.1253 18.7378 17.0053 20.1067 17.0053C20.7668 17.0053 21.3998 17.2676 21.8666 17.7343C22.3333 18.2011 22.5956 18.8341 22.5956 19.4942V28.2587H27.5556ZM6.89778 10.5876C7.68989 10.5876 8.44956 10.2729 9.00967 9.7128C9.56978 9.15269 9.88445 8.39302 9.88445 7.6009C9.88445 5.94757 8.55111 4.59646 6.89778 4.59646C6.10095 4.59646 5.33676 4.913 4.77331 5.47644C4.20987 6.03988 3.89333 6.80407 3.89333 7.6009C3.89333 9.25424 5.24444 10.5876 6.89778 10.5876ZM9.36889 28.2587V13.3787H4.44444V28.2587H9.36889Z" fill="#010644"/>
</svg>
