<svg width="190" height="46" viewBox="0 0 190 46" fill="none" xmlns="http://www.w3.org/2000/svg">
<g clip-path="url(#clip0_3113_30423)">
<path d="M31.3887 0H14.6286C6.54943 0 0 6.54578 0 14.6204V31.3712C0 39.4459 6.54943 45.9916 14.6286 45.9916H31.3887C39.4679 45.9916 46.0173 39.4459 46.0173 31.3712V14.6204C46.0173 6.54578 39.4679 0 31.3887 0Z" fill="#111142"/>
<path d="M44.6306 17.3106V8.68453C44.5846 7.55667 44.338 4.996 42.6829 2.74864C41.241 0.789502 39.5608 0.192154 39.2766 0.13785C39.0091 0.0877225 38.7207 0.0543044 38.7207 0.0543044C38.4866 0.0250636 38.2902 0.0125318 38.1481 0.00835452C37.9558 0 37.7928 0 37.6758 0C38.1272 0.501271 38.821 1.39103 39.2849 2.67762C39.753 3.96422 39.7907 5.0879 39.7656 5.76462V20.1887C39.7656 21.7761 40.8523 23.0627 42.1939 23.0627C40.8523 23.0627 39.7656 24.3493 39.7656 25.9366V40.3147C39.7865 41.004 39.7321 42.1277 39.2682 43.4059C38.8252 44.6173 38.1941 45.4778 37.7552 45.9875C38.1439 46.0125 38.7249 46.0042 39.3894 45.8246C41.032 45.3734 41.9682 44.1829 42.6788 43.2806C43.7989 41.8562 44.2085 40.4818 44.3422 39.9722C44.6055 38.9488 44.6432 38.059 44.6264 37.4408V28.8147C44.6264 25.64 46.804 23.0627 49.4831 23.0627C46.7956 23.0627 44.6264 20.4936 44.6264 17.3106H44.6306Z" fill="white"/>
<path d="M46.2678 17.3106V8.68453C46.3096 8.1749 46.5144 5.22576 44.3202 2.74864C42.385 0.563932 39.8856 0.208865 39.2754 0.142029C39.7226 0.588996 40.4415 1.42445 40.9263 2.67763C41.4321 3.98093 41.4446 5.1255 41.407 5.76462V20.1887C41.407 21.7761 42.4937 23.0627 43.8353 23.0627C42.4937 23.0627 41.407 24.3493 41.407 25.9366V40.3148C41.4404 40.9706 41.407 42.111 40.9096 43.4059C40.4624 44.563 39.8229 45.3651 39.3924 45.8246C40.1447 45.7285 42.5689 45.3149 44.3243 43.2806C45.4486 41.9731 45.8457 40.5236 45.9878 39.9722C46.2511 38.9488 46.2887 38.059 46.272 37.4408V28.8148C46.272 25.64 48.4496 23.0627 51.1287 23.0627C48.4412 23.0627 46.272 20.4936 46.272 17.3106H46.2678Z" fill="#F7A31C"/>
<path d="M10.7554 20.6148C11.1065 20.4561 11.5537 20.3224 12.0928 20.2221C12.632 20.1177 13.0792 20.0676 13.4303 20.0676C14.0823 20.0676 14.6926 20.172 15.2568 20.3767C15.821 20.5814 16.3936 20.8111 16.9704 21.0618C17.5723 20.7443 18.2577 20.4978 19.0226 20.3266C19.7875 20.1553 20.5607 20.0717 21.3381 20.0717C22.0403 20.0717 22.6798 20.2221 23.2565 20.5145C23.8333 20.8111 24.3223 21.1912 24.7236 21.6591C25.1248 22.127 25.4383 22.6575 25.664 23.2506C25.8897 23.8438 26.0025 24.437 26.0025 25.0302V32.7581H22.1615V27.9375C22.1615 26.275 22.0027 25.0427 21.6892 24.2448C21.3757 23.447 20.7028 23.046 19.6746 23.046C19.3737 23.046 19.1355 23.0877 18.9599 23.1671C18.7844 23.2465 18.5963 23.401 18.3957 23.6308V32.7623H14.5546V27.9417C14.5546 26.3 14.4042 25.0761 14.1032 24.2657C13.8023 23.4553 13.213 23.0501 12.3353 23.0501C12.0845 23.0501 11.8003 23.1128 11.4868 23.2381C11.1733 23.3634 10.9267 23.518 10.7512 23.7018V32.7664H6.91016V20.4185H10.7512V20.6231L10.7554 20.6148Z" fill="white"/>
<path d="M30.9758 10.0797V32.7581H27.1348V10.0797H30.9758Z" fill="white"/>
<path d="M33.5446 32.7581C34.4818 32.7581 35.2415 31.9988 35.2415 31.0621C35.2415 30.1255 34.4818 29.3661 33.5446 29.3661C32.6074 29.3661 31.8477 30.1255 31.8477 31.0621C31.8477 31.9988 32.6074 32.7581 33.5446 32.7581Z" fill="#F7A31C"/>
<path d="M59.9112 16.5796C60.4086 16.3331 61.0397 16.1284 61.8046 15.9655C62.5694 15.8068 63.2005 15.7274 63.6979 15.7274C64.6216 15.7274 65.4826 15.8862 66.2851 16.2078C67.0834 16.5253 67.8942 16.8803 68.7092 17.273C69.5619 16.7759 70.5315 16.3958 71.6141 16.1284C72.6966 15.8611 73.7916 15.7274 74.8909 15.7274C75.8856 15.7274 76.7926 15.9572 77.6076 16.4208C78.4226 16.8845 79.1164 17.4777 79.6848 18.2045C80.2533 18.9314 80.6963 19.7585 81.0181 20.6816C81.34 21.6048 81.4988 22.528 81.4988 23.4512V35.4817H76.1029V27.996C76.1029 25.4145 75.8772 23.5013 75.43 22.2607C74.9786 21.0242 74.0173 20.4018 72.5419 20.4018C72.1114 20.4018 71.7687 20.4644 71.5179 20.5856C71.2671 20.7109 70.9955 20.949 70.7071 21.3041V35.4775H65.3112V27.9919C65.3112 25.4437 65.0981 23.5431 64.6718 22.2857C64.2454 21.0284 63.4053 20.4018 62.1598 20.4018C61.8046 20.4018 61.4033 20.4978 60.9561 20.6942C60.5089 20.8905 60.162 21.1286 59.9154 21.4127V35.4817H54.5195V16.2663H59.9154V16.5838L59.9112 16.5796Z" fill="#111142"/>
<path d="M97.6905 16.2579H102.752V35.4733H97.6905V34.8384C97.0218 35.1559 96.2694 35.3856 95.4251 35.5276C94.5809 35.6697 93.862 35.7407 93.2643 35.7407C91.8223 35.7407 90.4974 35.5026 89.2853 35.0264C88.0732 34.5502 87.02 33.8818 86.1214 33.0129C85.227 32.1482 84.5206 31.1164 84.0149 29.9176C83.505 28.7187 83.25 27.4112 83.25 25.9993C83.25 24.5874 83.5468 23.3718 84.1444 22.1353C84.7421 20.8989 85.5237 19.8044 86.4892 18.852C87.4547 17.8996 88.5623 17.1393 89.8078 16.5754C91.0533 16.0115 92.3448 15.7274 93.6823 15.7274C94.6645 15.7274 95.4544 15.8318 96.0521 16.0449C96.6498 16.2579 97.1931 16.4167 97.6863 16.5211V16.2579H97.6905ZM87.952 25.9325C87.952 27.6326 88.5079 28.9944 89.6239 30.022C90.7398 31.0496 92.1484 31.5634 93.8453 31.5634C95.0824 31.5634 96.236 31.2961 97.2976 30.7656L97.3519 30.7113V21.7928C96.8546 21.3333 96.2276 20.9866 95.4669 20.7568C94.7063 20.5271 94.0584 20.4101 93.5276 20.4101C91.8265 20.4101 90.4723 20.9072 89.4651 21.8972C88.4578 22.8872 87.952 24.2323 87.952 25.9325Z" fill="#111142"/>
<path d="M110.171 16.2579V17.3022C110.748 16.897 111.417 16.567 112.169 16.308C112.926 16.0491 113.653 15.9196 114.363 15.9196H115.906V20.9782H113.594C112.725 20.9782 111.939 21.2664 111.233 21.8429C110.527 22.4194 110.171 23.1546 110.171 24.0485V35.4775H104.775V16.2621H110.171V16.2579Z" fill="#111142"/>
<path d="M122.99 4.12299V24.9884L130.5 16.2579L135.879 16.2036L128.105 25.7863L136.891 35.4733H130.555L122.99 27.0687V35.4733H117.594V4.12299H122.99Z" fill="#111142"/>
<path d="M144.238 4.12299V35.4733H138.842V4.12299H144.238Z" fill="#111142"/>
<path d="M146.262 16.2579H151.323V35.4733H146.262V16.2579Z" fill="#111142"/>
<path d="M160.092 8.09137V16.2579H163.803V20.3015H160.092V26.6175C160.092 28.2801 160.263 29.4497 160.602 30.1222C160.94 30.7948 161.647 31.129 162.721 31.129C163.076 31.129 163.435 31.0663 163.795 30.9452C164.15 30.8198 164.493 30.6695 164.815 30.494V35.4399C164.422 35.6529 163.945 35.8117 163.377 35.9203C162.809 36.0247 162.278 36.079 161.78 36.079C160.359 36.079 159.197 35.8827 158.29 35.4942C157.383 35.1057 156.665 34.6086 156.134 34.0029C155.603 33.4014 155.227 32.7456 155.014 32.0354C154.8 31.3253 154.696 30.6528 154.696 30.0136V20.3015H152.686C153.003 19.629 153.329 19.0274 153.664 18.4969C153.998 17.9664 154.341 17.3649 154.696 16.6923V10.3763L160.092 8.09137Z" fill="#111142"/>
<path d="M175.188 15.7734C176.392 15.7734 177.566 15.9572 178.707 16.329C179.848 16.7007 180.855 17.2688 181.737 18.0291C182.615 18.7894 183.326 19.7543 183.865 20.9239C184.404 22.0936 184.671 23.4554 184.671 25.0135C184.671 25.4396 184.655 25.874 184.621 26.3126C184.588 26.7554 184.525 27.2232 184.425 27.7203H170.837C170.904 28.4639 171.129 29.1114 171.522 29.6586C171.915 30.2058 172.396 30.6486 172.964 30.987C173.533 31.3253 174.139 31.5718 174.774 31.7305C175.409 31.8892 176.003 31.9686 176.559 31.9686C177.796 31.9686 178.849 31.7556 179.71 31.3337C180.571 30.9076 181.428 30.4314 182.276 29.9009L183.986 33.5643C183.075 34.3789 181.925 34.9888 180.542 35.394C179.158 35.7992 177.813 36.0039 176.509 36.0039C173.152 36.0039 170.528 35.1099 168.638 33.3221C166.749 31.5342 165.805 28.9944 165.805 25.7027C165.805 24.3242 166.055 23.0209 166.561 21.8012C167.067 20.5814 167.752 19.5287 168.613 18.6432C169.474 17.7576 170.477 17.06 171.618 16.5462C172.76 16.0324 173.947 15.7776 175.188 15.7776V15.7734ZM179.439 23.9566C179.439 22.8956 179.071 22.0267 178.339 21.3542C177.608 20.6817 176.768 20.3475 175.823 20.3475C174.586 20.3475 173.583 20.5939 172.818 21.091C172.053 21.5881 171.393 22.5614 170.837 24.0109L179.439 23.9566Z" fill="#111142"/>
<path d="M148.79 13.2253C150.187 13.2253 151.319 12.0938 151.319 10.698C151.319 9.30226 150.187 8.17078 148.79 8.17078C147.394 8.17078 146.262 9.30226 146.262 10.698C146.262 12.0938 147.394 13.2253 148.79 13.2253Z" fill="#F7A31C"/>
<path d="M186.791 33.5727V35.7365H186.276V33.5727H185.633V33.0923H187.434V33.5727H186.791Z" fill="#111142"/>
<path d="M187.484 35.7365V33.0881H187.961L188.742 34.6295C188.868 34.3747 189.002 34.1157 189.135 33.8568C189.269 33.5978 189.399 33.3388 189.528 33.0881H190V35.7365H189.507L189.495 34.2536C189.407 34.4249 189.319 34.6003 189.231 34.7674C189.144 34.9387 189.056 35.1058 188.972 35.277C188.96 35.3063 188.943 35.3397 188.922 35.3815C188.901 35.4232 188.88 35.465 188.859 35.5068C188.839 35.5485 188.818 35.5903 188.797 35.6321C188.776 35.6739 188.759 35.7073 188.747 35.7365L188.521 35.277C188.471 35.1768 188.425 35.0849 188.383 35.0055C188.341 34.9261 188.299 34.8468 188.262 34.7674C188.224 34.6922 188.182 34.6128 188.141 34.5293C188.099 34.4457 188.053 34.3538 188.003 34.2494V35.7323H187.493L187.484 35.7365Z" fill="#111142"/>
</g>
<defs>
<clipPath id="clip0_3113_30423">
<rect width="190" height="46" fill="white"/>
</clipPath>
</defs>
</svg>
