<svg width="32" height="33" viewBox="0 0 32 33" fill="none" xmlns="http://www.w3.org/2000/svg">
<path d="M13.6192 19.1123C13.6192 18.2923 14.0132 16.9883 17.0732 16.9883C18.0112 16.9883 18.5892 17.0563 19.3652 17.2303C19.1172 20.4423 17.5452 20.8663 16.0172 20.8663C15.1812 20.8663 13.6192 20.4303 13.6192 19.1123Z" fill="#010644"/>
<path d="M5.18 32.7031H26.82C28.1938 32.7031 29.5114 32.1574 30.4828 31.1859C31.4543 30.2145 32 28.8969 32 27.5231V5.88312C32 4.5093 31.4543 3.19175 30.4828 2.22031C29.5114 1.24887 28.1938 0.703125 26.82 0.703125L5.18 0.703125C3.80618 0.703125 2.48863 1.24887 1.51719 2.22031C0.545748 3.19175 0 4.5093 0 5.88312L0 27.5231C0 28.8969 0.545748 30.2145 1.51719 31.1859C2.48863 32.1574 3.80618 32.7031 5.18 32.7031ZM11.732 12.5231C12.866 10.9031 14.362 10.2711 16.432 10.2711C17.892 10.2711 19.134 10.7631 20.022 11.6931C20.908 12.6251 21.414 13.9571 21.53 15.6591C22.02 15.8651 22.474 16.1071 22.886 16.3851C24.55 17.5031 25.466 19.1751 25.466 21.0911C25.466 25.1651 22.126 28.7031 16.082 28.7031C10.892 28.7031 5.5 25.6831 5.5 16.6951C5.5 7.75513 10.722 4.70312 16.066 4.70312C18.534 4.70312 24.324 5.06712 26.5 12.2571L24.46 12.7851C22.776 7.66512 19.246 6.84912 16.012 6.84912C10.662 6.84912 7.638 10.1051 7.638 17.0351C7.638 23.2491 11.018 26.5491 16.082 26.5491C20.248 26.5491 23.354 24.3851 23.354 21.2151C23.354 19.0571 21.542 18.0251 21.448 18.0251C21.094 19.8751 20.146 22.9891 15.982 22.9891C13.556 22.9891 11.462 21.3131 11.462 19.1171C11.462 15.9811 14.438 14.8451 16.788 14.8451C17.668 14.8451 18.728 14.9051 19.282 15.0171C19.282 14.0611 18.474 12.4251 16.43 12.4251C14.608 12.4251 14.11 13.0011 13.53 13.6731L13.482 13.7271C13.078 13.4571 11.732 12.5231 11.732 12.5231Z" fill="#010644"/>
</svg>
