<svg width="32" height="33" viewBox="0 0 32 33" fill="none" xmlns="http://www.w3.org/2000/svg">
<path d="M4.57143 32.7031C2.05 32.7031 0 30.6531 0 28.1317V5.27455C0 2.75312 2.05 0.703125 4.57143 0.703125H27.4286C29.95 0.703125 32 2.75312 32 5.27455V28.1317C32 30.6531 29.95 32.7031 27.4286 32.7031H4.57143ZM25.7929 26.7031L18.3786 18.2317L27.1 6.70312H20.2714L14.9286 13.696L8.80714 6.70312H5.41429L13.3429 15.7674L4.97857 26.7031H11.9786L16.8143 20.3103L22.4 26.7031H25.7929ZM23.0929 8.7317L10.9571 24.7817H8.93571L21.2071 8.7317H23.0857H23.0929Z" fill="#010644"/>
</svg>
