<svg width="32" height="33" viewBox="0 0 32 33" fill="none" xmlns="http://www.w3.org/2000/svg">
<path fill-rule="evenodd" clip-rule="evenodd" d="M16 0.203125C17.368 0.203125 18.7712 0.247125 20.1312 0.319125L21.7376 0.415125L23.2752 0.529125L24.7152 0.651125L26.0304 0.779125C27.4577 0.91568 28.8007 1.67702 29.8232 2.9292C30.8458 4.18139 31.4823 5.8442 31.6208 7.62512L31.6848 8.47512L31.8048 10.2951C31.9168 12.1811 32 14.2371 32 16.2031C32 18.1691 31.9168 20.2251 31.8048 22.1111L31.6848 23.9311C31.664 24.2231 31.6432 24.5051 31.6208 24.7811C31.4822 26.5624 30.8455 28.2254 29.8226 29.4777C28.7998 30.7299 27.4564 31.491 26.0288 31.6271L24.7168 31.7531L23.2768 31.8771L21.7376 31.9911L20.1312 32.0871C18.7549 32.1619 17.3776 32.2006 16 32.2031C14.6224 32.2006 13.2451 32.1619 11.8688 32.0871L10.2624 31.9911L8.7248 31.8771L7.2848 31.7531L5.9696 31.6271C4.54232 31.4906 3.19928 30.7292 2.17676 29.477C1.15423 28.2249 0.517719 26.562 0.3792 24.7811L0.3152 23.9311L0.1952 22.1111C0.0728601 20.1454 0.00775043 18.1748 0 16.2031C0 14.2371 0.0832 12.1811 0.1952 10.2951L0.3152 8.47512C0.336 8.18312 0.3568 7.90112 0.3792 7.62512C0.517665 5.84452 1.15395 4.18196 2.17615 2.92981C3.19835 1.67767 4.54101 0.91613 5.968 0.779125L7.2816 0.651125L8.7216 0.529125L10.2608 0.415125L11.8672 0.319125C13.244 0.244391 14.6219 0.205716 16 0.203125ZM12.8 11.3531V21.0531C12.8 21.9771 13.6 22.5531 14.24 22.0931L20.96 17.2431C21.1062 17.1379 21.2277 16.9864 21.3121 16.8038C21.3966 16.6212 21.4411 16.414 21.4411 16.2031C21.4411 15.9922 21.3966 15.785 21.3121 15.6025C21.2277 15.4199 21.1062 15.2683 20.96 15.1631L14.24 10.3151C14.094 10.2098 13.9284 10.1543 13.7598 10.1544C13.5913 10.1544 13.4257 10.2099 13.2797 10.3153C13.1338 10.4207 13.0126 10.5723 12.9284 10.7549C12.8442 10.9374 12.7999 11.1444 12.8 11.3551V11.3531Z" fill="#010644"/>
</svg>
