<svg width="52" height="46" viewBox="0 0 52 46" fill="none" xmlns="http://www.w3.org/2000/svg">
<path d="M31.3887 0H14.6286C6.54943 0 0 6.54578 0 14.6204V31.3712C0 39.4459 6.54943 45.9916 14.6286 45.9916H31.3887C39.4679 45.9916 46.0173 39.4459 46.0173 31.3712V14.6204C46.0173 6.54578 39.4679 0 31.3887 0Z" fill="#111142"/>
<path d="M44.6306 17.3106V8.68453C44.5846 7.55667 44.338 4.996 42.6829 2.74864C41.241 0.789502 39.5608 0.192154 39.2766 0.13785C39.0091 0.0877225 38.7207 0.0543044 38.7207 0.0543044C38.4866 0.0250636 38.2902 0.0125318 38.1481 0.00835452C37.9558 0 37.7928 0 37.6758 0C38.1272 0.501271 38.821 1.39103 39.2849 2.67762C39.753 3.96422 39.7907 5.0879 39.7656 5.76462V20.1887C39.7656 21.7761 40.8523 23.0627 42.1939 23.0627C40.8523 23.0627 39.7656 24.3493 39.7656 25.9366V40.3147C39.7865 41.004 39.7321 42.1277 39.2682 43.4059C38.8252 44.6173 38.1941 45.4778 37.7552 45.9875C38.1439 46.0125 38.7249 46.0042 39.3894 45.8246C41.032 45.3734 41.9682 44.1829 42.6788 43.2806C43.7989 41.8562 44.2085 40.4818 44.3422 39.9722C44.6055 38.9488 44.6432 38.059 44.6264 37.4408V28.8147C44.6264 25.64 46.804 23.0627 49.4831 23.0627C46.7956 23.0627 44.6264 20.4936 44.6264 17.3106H44.6306Z" fill="white"/>
<path d="M46.2678 17.3106V8.68453C46.3096 8.1749 46.5144 5.22576 44.3202 2.74864C42.385 0.563932 39.8856 0.208865 39.2754 0.142029C39.7226 0.588996 40.4415 1.42445 40.9263 2.67763C41.4321 3.98093 41.4446 5.1255 41.407 5.76462V20.1887C41.407 21.7761 42.4937 23.0627 43.8353 23.0627C42.4937 23.0627 41.407 24.3493 41.407 25.9366V40.3148C41.4404 40.9706 41.407 42.111 40.9096 43.4059C40.4624 44.563 39.8229 45.3651 39.3924 45.8246C40.1447 45.7285 42.5689 45.3149 44.3243 43.2806C45.4486 41.9731 45.8457 40.5236 45.9878 39.9722C46.2511 38.9488 46.2887 38.059 46.272 37.4408V28.8148C46.272 25.64 48.4496 23.0627 51.1287 23.0627C48.4412 23.0627 46.272 20.4936 46.272 17.3106H46.2678Z" fill="#F7A31C"/>
<path d="M10.7554 20.6148C11.1065 20.4561 11.5537 20.3224 12.0928 20.2221C12.632 20.1177 13.0792 20.0676 13.4303 20.0676C14.0823 20.0676 14.6926 20.172 15.2568 20.3767C15.821 20.5814 16.3936 20.8111 16.9704 21.0618C17.5723 20.7443 18.2577 20.4978 19.0226 20.3266C19.7875 20.1553 20.5607 20.0717 21.3381 20.0717C22.0403 20.0717 22.6798 20.2221 23.2565 20.5145C23.8333 20.8111 24.3223 21.1912 24.7236 21.6591C25.1248 22.127 25.4383 22.6575 25.664 23.2506C25.8897 23.8438 26.0025 24.437 26.0025 25.0302V32.7581H22.1615V27.9375C22.1615 26.275 22.0027 25.0427 21.6892 24.2448C21.3757 23.447 20.7028 23.046 19.6746 23.046C19.3737 23.046 19.1355 23.0877 18.9599 23.1671C18.7844 23.2465 18.5963 23.401 18.3957 23.6308V32.7623H14.5546V27.9417C14.5546 26.3 14.4042 25.0761 14.1032 24.2657C13.8023 23.4553 13.213 23.0501 12.3353 23.0501C12.0845 23.0501 11.8003 23.1128 11.4868 23.2381C11.1733 23.3634 10.9267 23.518 10.7512 23.7018V32.7664H6.91016V20.4185H10.7512V20.6231L10.7554 20.6148Z" fill="white"/>
<path d="M30.9758 10.0797V32.7581H27.1348V10.0797H30.9758Z" fill="white"/>
<path d="M33.5446 32.7581C34.4818 32.7581 35.2415 31.9988 35.2415 31.0621C35.2415 30.1255 34.4818 29.3661 33.5446 29.3661C32.6074 29.3661 31.8477 30.1255 31.8477 31.0621C31.8477 31.9988 32.6074 32.7581 33.5446 32.7581Z" fill="#F7A31C"/>
</svg>
