<svg width="72" height="72" viewBox="0 0 72 72" fill="none" xmlns="http://www.w3.org/2000/svg">
<rect width="72" height="72" rx="36" fill="#EFF0FA"/>
<rect x="6" y="6" width="60" height="60" rx="30" fill="#FCDBA6"/>
<path fill-rule="evenodd" clip-rule="evenodd" d="M36 60C49.2548 60 60 49.2548 60 36C60 22.7452 49.2548 12 36 12C22.7452 12 12 22.7452 12 36C12 49.2548 22.7452 60 36 60ZM34.6641 27.5039C33.7435 26.8901 32.5599 26.8329 31.5844 27.355C30.609 27.877 30 28.8936 30 30V42C30 43.1064 30.609 44.123 31.5844 44.645C32.5599 45.1671 33.7435 45.1099 34.6641 44.4962L43.6641 38.4962C44.4987 37.9398 45 37.0031 45 36C45 34.9969 44.4987 34.0603 43.6641 33.5039L34.6641 27.5039Z" fill="#F7A31C"/>
</svg>
