<svg width="16" height="16" viewBox="0 0 16 16" fill="none" xmlns="http://www.w3.org/2000/svg">
<g clip-path="url(#clip0_3722_17941)">
<path d="M11.3333 13.3334H14.6667V12.0001C14.6667 10.8955 13.7712 10.0001 12.6667 10.0001C12.0296 10.0001 11.4621 10.2979 11.0958 10.762M11.3333 13.3334H4.66668M11.3333 13.3334V12.0001C11.3333 11.5626 11.2491 11.1448 11.0958 10.762M4.66668 13.3334H1.33334V12.0001C1.33334 10.8955 2.22877 10.0001 3.33334 10.0001C3.97041 10.0001 4.53792 10.2979 4.90417 10.762M4.66668 13.3334V12.0001C4.66668 11.5626 4.75096 11.1448 4.90417 10.762M4.90417 10.762C5.39568 9.5341 6.59655 8.66675 8.00001 8.66675C9.40347 8.66675 10.6043 9.5341 11.0958 10.762M10 4.66675C10 5.77132 9.10458 6.66675 8.00001 6.66675C6.89544 6.66675 6.00001 5.77132 6.00001 4.66675C6.00001 3.56218 6.89544 2.66675 8.00001 2.66675C9.10458 2.66675 10 3.56218 10 4.66675ZM14 6.66675C14 7.40313 13.4031 8.00008 12.6667 8.00008C11.9303 8.00008 11.3333 7.40313 11.3333 6.66675C11.3333 5.93037 11.9303 5.33341 12.6667 5.33341C13.4031 5.33341 14 5.93037 14 6.66675ZM4.66668 6.66675C4.66668 7.40313 4.06972 8.00008 3.33334 8.00008C2.59696 8.00008 2.00001 7.40313 2.00001 6.66675C2.00001 5.93037 2.59696 5.33341 3.33334 5.33341C4.06972 5.33341 4.66668 5.93037 4.66668 6.66675Z" stroke="#010644" stroke-width="1.5" stroke-linecap="round" stroke-linejoin="round"/>
</g>
<defs>
<clipPath id="clip0_3722_17941">
<rect width="16" height="16" fill="white"/>
</clipPath>
</defs>
</svg>
