<svg width="16" height="12" viewBox="0 0 16 12" fill="none" xmlns="http://www.w3.org/2000/svg">
<g clip-path="url(#clip0_4131_74917)">
<path d="M0 -0.5625H16V12.5625H0V-0.5625Z" fill="#3D9635"/>
<path d="M2.98 2.28815C2.9565 2.74752 2.9265 3.56002 3.2045 3.64252C3.54 3.68565 3.3545 2.8419 3.476 2.68877C3.499 2.61377 3.5415 2.61377 3.545 2.70815V3.4269C3.5402 3.50319 3.55665 3.5792 3.59155 3.64207C3.62644 3.70494 3.67765 3.75081 3.7365 3.7719C3.8245 3.7644 3.883 3.76815 3.9175 3.89002C3.932 4.30252 3.945 4.7144 3.9585 5.1269C3.9585 5.1269 4.164 5.21315 4.1735 4.4319C4.15144 4.12271 4.1436 3.81221 4.15 3.5019C4.15 3.41565 4.23 3.40752 4.287 3.45502C4.375 3.54127 4.414 3.6469 4.55 3.60377C4.758 3.52127 4.8815 3.3844 4.885 3.15627C4.87986 2.93826 4.84833 2.72248 4.7915 2.51627C4.801 2.4769 4.7505 2.3794 4.761 2.34002C4.798 2.42252 4.854 2.4144 4.8665 2.34002C4.84588 2.18817 4.7828 2.0504 4.6885 1.95127C4.6145 1.86065 4.5055 1.88065 4.466 2.07315C4.46216 2.31947 4.52234 2.56071 4.6375 2.76065C4.67262 2.87026 4.68683 2.9886 4.679 3.10627C4.6514 3.12769 4.61818 3.1347 4.58648 3.12582C4.55478 3.11694 4.52714 3.09286 4.5095 3.05877C4.5095 3.05877 4.3425 2.88252 4.3425 2.8469C4.38257 2.66477 4.37769 2.47175 4.3285 2.29315C4.31014 2.18485 4.27273 2.08302 4.219 1.99502C4.178 1.92815 4.122 1.92815 4.0955 1.99502C4.03646 2.23369 4.04102 2.48987 4.1085 2.72502C4.1455 2.88252 4.205 2.98065 4.178 2.98065C4.1545 3.07065 4.108 3.0469 4.074 2.94502C4.03351 2.72494 4.01421 2.49959 4.0165 2.27377C4.001 2.0969 3.9845 1.72002 3.902 1.6219C3.852 1.52752 3.7765 1.57502 3.752 1.66502C3.74599 1.83528 3.74883 2.00585 3.7605 2.17565C3.80934 2.44791 3.84358 2.72394 3.863 3.0019C3.87 3.39065 3.7035 3.17065 3.713 2.9744C3.74806 2.72767 3.74534 2.47486 3.705 2.2294C3.6775 2.1269 3.6455 2.1044 3.5785 2.12315C3.5255 2.11565 3.3905 2.32377 3.353 2.66877C3.33271 2.78034 3.31736 2.89322 3.307 3.0069C3.2875 3.18315 3.2045 3.30877 3.1465 2.9794C3.0965 2.7394 3.0645 2.15065 2.98 2.28815Z" fill="white"/>
<path d="M3.89347 4.17037C3.59647 4.3785 3.30897 4.56725 3.01697 4.7635C3.06624 4.56691 3.15642 4.39022 3.27828 4.25152C3.40013 4.11282 3.54929 4.01709 3.71047 3.97412C3.89047 3.98225 3.84447 4.07225 3.89347 4.17037Z" fill="white"/>
<path d="M5.00999 1.57262C4.99085 1.57766 4.97223 1.58542 4.95449 1.59575C4.90905 1.61532 4.87143 1.65613 4.84952 1.70961C4.82762 1.76309 4.82313 1.82509 4.83699 1.88262C4.92149 2.60512 4.97499 3.1545 5.05949 3.87325C5.07449 3.9595 5.02249 4.0695 4.95949 4.06075C4.84849 3.95512 4.82099 3.73887 4.63249 3.74825C4.55257 3.7679 4.47954 3.81818 4.42354 3.89211C4.36753 3.96603 4.33134 4.05993 4.31999 4.16075C4.29445 4.316 4.29445 4.47612 4.31999 4.63137C4.35362 4.69242 4.40327 4.73684 4.46035 4.75693C4.51742 4.77702 4.57832 4.77151 4.63249 4.74137C4.71499 4.6945 4.78249 4.577 4.81349 4.60387C4.83149 4.65137 4.81049 5.02825 4.42299 5.31512C4.18349 5.46387 3.99449 5.50262 3.89149 5.22825C3.82949 5.05575 3.89649 4.40387 3.74149 4.55325C3.27999 6.22575 4.82099 6.46137 4.99149 4.62387C5.00299 4.57262 5.03749 4.522 5.06149 4.53325C5.07349 4.54137 5.08099 4.56075 5.08399 4.60012C5.04799 6.26075 3.89249 6.37075 3.69649 5.85012C3.64874 5.66867 3.62526 5.47862 3.62699 5.28762C3.62674 5.22006 3.60922 5.15436 3.57699 5.10012C3.53049 5.05325 3.46749 5.18262 3.45349 5.40637C3.43929 5.53913 3.43461 5.6732 3.43949 5.807C3.50099 7.12637 4.98949 6.56075 5.23299 5.47325C5.27989 5.13112 5.29249 4.78302 5.27049 4.437H5.27549L5.27899 4.43325C5.42899 4.657 5.63499 4.46075 5.67899 4.38575C5.68395 4.37466 5.69093 4.36519 5.69937 4.35811C5.70781 4.35104 5.71747 4.34656 5.72756 4.34503C5.73765 4.34351 5.74789 4.34499 5.75743 4.34935C5.76698 4.35371 5.77556 4.36083 5.78249 4.37012C5.81152 4.39921 5.84584 4.4189 5.8824 4.42747C5.91897 4.43604 5.95666 4.43322 5.99215 4.41926C6.02764 4.4053 6.05983 4.38062 6.08587 4.34742C6.11192 4.31421 6.13102 4.2735 6.14149 4.22887C6.16772 4.02191 6.18442 3.81323 6.19149 3.60387C6.13292 3.62011 6.07794 3.65234 6.03049 3.69825C6.0244 3.70711 6.02041 3.71794 6.01899 3.7295C6.01299 3.7845 6.00699 3.84762 5.99999 3.90637C5.99906 3.91166 5.99789 3.91687 5.99649 3.922C5.99318 3.92907 5.98808 3.93457 5.98199 3.93762C5.97479 3.94304 5.96662 3.9461 5.95823 3.94652C5.94983 3.94695 5.94149 3.94472 5.93396 3.94005C5.92644 3.93538 5.91998 3.92841 5.91518 3.9198C5.91038 3.91118 5.90739 3.90119 5.90649 3.89075C5.87149 3.667 5.72499 3.63137 5.63549 3.98512C5.57399 4.05575 5.46649 4.067 5.45449 3.96887C5.46999 3.7295 5.40099 3.69825 5.26449 3.80825C5.22149 3.337 5.17649 2.8895 5.13249 2.41825C5.19049 2.41825 5.24099 2.477 5.29399 2.387C5.2457 2.10763 5.16394 1.83898 5.05149 1.59012C5.04809 1.58463 5.04442 1.57941 5.04049 1.5745C5.04049 1.5745 5.04049 1.5745 5.03649 1.57012H5.03249C5.02949 1.56637 5.02549 1.56637 5.02449 1.56262C5.02349 1.55887 5.01149 1.55825 5.00499 1.56262M4.59099 4.142C4.6091 4.13998 4.62721 4.14593 4.64218 4.15882C4.65715 4.17172 4.66805 4.19075 4.67299 4.21262C4.67835 4.23364 4.6796 4.25596 4.67664 4.2777C4.67369 4.29945 4.6666 4.32 4.65599 4.33762C4.64399 4.36512 4.60599 4.35325 4.57599 4.35325C4.56109 4.3551 4.54609 4.35117 4.53303 4.342C4.51997 4.33284 4.50948 4.31887 4.50299 4.302C4.49249 4.25887 4.52199 4.21575 4.53599 4.18075L4.54099 4.16887C4.55537 4.15425 4.57265 4.14475 4.59099 4.14137" fill="white"/>
<path d="M6.04998 1.53369C6.01346 1.53738 5.978 1.55081 5.94598 1.57307C5.90823 1.62225 5.88438 1.68551 5.87806 1.75321C5.87174 1.82091 5.8833 1.88934 5.91098 1.94807C5.96948 1.98307 6.02798 2.06932 5.98848 2.11244C5.82348 2.36244 5.39198 2.77619 5.37048 2.85494V2.85869V2.86244H5.37398C5.48044 2.8856 5.5892 2.88687 5.69598 2.86619V2.86244C5.88996 2.63035 6.06793 2.3782 6.22798 2.10869C6.20648 2.08119 6.18398 2.06182 6.16148 2.03432C6.1561 2.02931 6.15174 2.02281 6.14873 2.01532C6.14572 2.00783 6.14415 1.99957 6.14415 1.99119C6.14415 1.98281 6.14572 1.97455 6.14873 1.96706C6.15174 1.95957 6.1561 1.95307 6.16148 1.94807C6.20292 1.9008 6.22802 1.83524 6.23147 1.76525C6.23492 1.69526 6.21646 1.62634 6.17998 1.57307C6.13958 1.54583 6.09376 1.53368 6.04798 1.53807M6.02748 1.75369C6.05498 1.74994 6.08648 1.78932 6.10248 1.83619C6.11848 1.88307 6.11048 1.93869 6.08398 1.95057C6.05748 1.96244 6.02048 1.92307 6.00248 1.87182C5.98448 1.82057 5.99498 1.76557 6.02248 1.75807C6.02248 1.75807 6.02498 1.75369 6.02748 1.75369Z" fill="white"/>
<path d="M3.05001 5.3558C2.97622 5.51855 2.93013 5.69861 2.91464 5.88467C2.89916 6.07074 2.9146 6.2588 2.96001 6.43705C2.98018 6.47373 3.00893 6.50171 3.04232 6.51715C3.07571 6.53259 3.1121 6.53474 3.14651 6.5233C3.24901 6.4608 3.29651 6.16643 3.27001 6.06018C3.23551 5.98143 3.20851 5.96955 3.17351 6.03643C3.10151 6.2408 3.07101 6.09893 3.06451 5.98143C3.05596 5.78755 3.06249 5.5931 3.08401 5.4008C3.10251 5.23955 3.08401 5.28643 3.04801 5.3533" fill="white"/>
<path d="M10.077 4.7684C9.91948 4.28527 9.69848 3.81027 9.62698 3.62965C9.55548 3.44902 9.02698 2.36965 8.94948 2.24402C8.77698 1.95715 9.22898 2.3659 8.89198 1.79277C8.76498 1.63965 8.75748 1.63152 8.64898 1.5059C8.59898 1.4509 8.46498 1.35652 8.44298 1.51402C8.4313 1.62777 8.43519 1.74316 8.45448 1.85527C8.48839 1.95969 8.53401 2.05755 8.58998 2.1459C9.15606 3.19786 9.64823 4.30909 10.061 5.46715C10.134 5.42027 10.1185 4.8509 10.075 4.7684" fill="white"/>
<path d="M9.38003 6.37622C9.34803 6.42309 9.45653 6.63872 9.59803 6.63497C9.83353 6.59997 10.0415 6.41122 10.233 5.92059C10.3122 5.75229 10.3616 5.56476 10.378 5.37059C10.4021 4.43978 10.349 3.50835 10.2195 2.59122C10.2114 2.52721 10.2132 2.46183 10.225 2.39872C10.2405 2.37122 10.292 2.39872 10.3195 2.33622C10.3605 2.27372 10.2135 1.79809 10.1295 1.61372C10.0995 1.53122 10.089 1.47622 10.0395 1.62122C9.97966 1.78623 9.95141 1.96642 9.95703 2.14747C10.0695 3.23934 10.1035 4.20059 10.1785 5.29247C10.191 5.40451 10.1716 5.51847 10.1235 5.61434C9.92352 5.93354 9.66965 6.19368 9.38003 6.37622Z" fill="white"/>
<path d="M12.081 7.97376C11.9105 8.11126 11.9105 8.27189 12.0485 8.27564C12.1893 8.28012 12.3286 8.23867 12.4526 8.15537C12.5767 8.07208 12.6812 7.94982 12.756 7.80064C12.8237 7.60692 12.8623 7.39931 12.87 7.18814C12.902 6.18534 12.8591 5.181 12.742 4.18814C12.7271 4.0951 12.7192 4.00052 12.7185 3.90564C12.7345 3.85439 12.8105 3.91314 12.8365 3.85064C12.8785 3.79564 12.6395 3.36001 12.5545 3.17501C12.5255 3.09251 12.5155 3.03751 12.4655 3.18689C12.4093 3.35152 12.3919 3.53283 12.4155 3.70939C12.5417 4.83407 12.6206 5.96625 12.652 7.10126C12.6461 7.1964 12.6301 7.29014 12.6045 7.38001C12.5402 7.51805 12.4628 7.64585 12.374 7.76064C12.296 7.83939 12.1325 7.91814 12.0795 7.97689" fill="white"/>
<path d="M12.6905 5.30573C12.6875 5.02698 12.696 4.78698 12.6875 4.57948C12.679 4.37198 12.613 3.59385 12.592 3.42885C12.571 3.26385 12.545 3.00885 12.513 2.80885C12.4942 2.69238 12.4843 2.57392 12.4835 2.4551C12.496 2.4001 12.5505 2.45885 12.575 2.3926C12.5469 2.08667 12.4713 1.79052 12.3525 1.52073C12.3215 1.43823 12.263 1.46573 12.193 1.59948C12.1255 1.68573 12.1505 1.88198 12.1755 2.07073C12.361 3.29887 12.4511 4.54655 12.4445 5.79635C12.4345 5.89448 12.6945 5.49385 12.6905 5.30573Z" fill="white"/>
<path d="M11.4416 3.76697C11.3351 3.76322 11.1116 3.47635 11.0466 3.3076C11.0267 3.22508 11.0311 3.13637 11.0591 3.0576C11.0991 3.02197 11.1591 2.97885 11.2046 3.02197C11.2046 3.02197 11.2516 3.1126 11.2426 3.12385C11.3006 3.16322 11.3261 3.13947 11.3321 3.10447C11.3356 3.04947 11.3141 3.01385 11.3141 2.95135C11.3386 2.77447 11.4801 2.75135 11.5341 2.86072C11.5721 2.95589 11.5925 3.06059 11.5936 3.16697C11.5936 3.21822 11.5356 3.15947 11.5031 3.17135C11.4706 3.18322 11.4626 3.23385 11.4601 3.28135C11.4531 3.41072 11.4431 3.61072 11.4416 3.76385" fill="white"/>
<path d="M9.47652 5.61733C9.50652 5.23608 9.46702 4.46671 9.46402 4.24233C9.45402 3.71671 9.39152 2.69983 9.36402 2.53046C9.33052 2.20858 9.45702 2.56608 9.43852 2.37796C9.38272 2.07659 9.27543 1.79388 9.12402 1.54921C9.07652 1.45483 9.07852 1.43546 9.00352 1.57296C8.95544 1.78399 8.95892 2.00817 9.01352 2.21671C9.11565 2.83289 9.18248 3.45739 9.21352 4.08546C9.24562 4.74702 9.24963 5.41024 9.22552 6.07233C9.30602 6.07233 9.43452 5.88483 9.47902 5.61671" fill="white"/>
<path d="M13.0536 5.00788C12.8671 4.56413 12.5826 4.04601 12.5076 3.86976C12.4326 3.69351 11.7911 2.37351 11.7106 2.25601C11.4761 1.91413 11.8181 2.20101 11.6666 1.92976C11.5848 1.79318 11.492 1.66751 11.3896 1.55476C11.3351 1.50788 11.3006 1.40976 11.2826 1.57038C11.273 1.71401 11.2701 1.85822 11.2741 2.00226C11.2865 2.09991 11.3187 2.19198 11.3676 2.26976C12.0015 3.35719 12.5644 4.50675 13.0506 5.70726C13.1221 5.66038 13.0976 5.09101 13.0536 5.01226" fill="white"/>
<path d="M10.7811 9.21338C10.7481 9.22582 10.7185 9.2496 10.6958 9.28202C10.6731 9.31444 10.6581 9.35419 10.6525 9.39674C10.647 9.43929 10.6512 9.48292 10.6645 9.52266C10.6779 9.5624 10.6999 9.59665 10.7281 9.6215C8.97457 9.6215 6.28407 9.58275 5.70957 9.58275C5.38557 9.58275 4.36507 9.52775 4.34607 9.52775C4.44758 9.72109 4.59037 9.87502 4.75827 9.97212C4.92617 10.0692 5.11248 10.1056 5.29607 10.0771C6.07507 10.0771 9.68207 10.0653 10.7071 10.0653C10.6813 10.1527 10.6737 10.2468 10.6851 10.3389C10.6965 10.431 10.7264 10.5179 10.7721 10.5915L10.7766 10.5953C10.777 10.5967 10.7779 10.598 10.7789 10.5988C10.78 10.5996 10.7813 10.5999 10.7826 10.5996H10.7856C10.8541 10.6228 10.8856 10.5521 10.9076 10.5053C11.1697 10.5239 11.4325 10.5226 11.6946 10.5015C11.7331 10.5796 11.7721 10.6546 11.8446 10.6428C11.9721 10.6034 12.0726 10.584 12.0771 10.2184C12.0771 10.2184 12.0636 9.59838 11.7731 9.63775C11.7041 9.64963 11.5121 9.6765 11.5121 9.6765C11.2886 9.6415 11.1236 9.63775 10.8731 9.6215C10.8966 9.58275 10.9366 9.414 10.8871 9.35463C10.8788 9.34604 10.8692 9.33957 10.8589 9.3356C10.8486 9.33164 10.8378 9.33024 10.8271 9.3315H10.8221C10.8221 9.3315 10.8176 9.32713 10.8166 9.32338V9.31963C10.8052 9.28509 10.7959 9.24959 10.7886 9.21338H10.7831M10.9021 10.1009C11.1566 10.1165 11.3966 10.1046 11.6521 10.1203C11.6678 10.1467 11.6757 10.1792 11.6744 10.2121C11.6732 10.2451 11.6628 10.2764 11.6451 10.3009C11.6451 10.3053 11.6451 10.3053 11.6416 10.3053H11.6351C11.5521 10.3009 11.5046 10.3009 11.4216 10.2971C11.4216 10.289 11.4186 10.2853 11.4186 10.2778C11.3986 10.1953 11.2566 10.2028 11.2226 10.2696V10.2734V10.2815V10.289C11.2219 10.2929 11.2219 10.297 11.2226 10.3009C11.1136 10.3097 11.0042 10.3045 10.8961 10.2853C10.8646 10.2303 10.8681 10.1284 10.9066 10.1009" fill="white"/>
<path d="M6.3455 1.90958C6.175 2.59271 6.4455 3.34708 6.6295 3.27583C6.7645 3.35021 6.849 2.98958 6.9045 2.59646C6.943 2.48646 6.971 2.47146 6.9905 2.52958C6.985 3.05583 7.017 3.17396 7.113 3.33083C7.13869 3.36543 7.16972 3.39316 7.20422 3.41236C7.23871 3.43155 7.27597 3.44181 7.31372 3.44251C7.35148 3.44321 7.38896 3.43434 7.4239 3.41644C7.45883 3.39853 7.49051 3.37196 7.517 3.33833C7.531 3.32271 7.684 3.10708 7.684 3.10708C7.69212 3.09403 7.70239 3.08332 7.71413 3.0757C7.72587 3.06809 7.73879 3.06375 7.75201 3.06297C7.76522 3.0622 7.77841 3.06502 7.79066 3.07123C7.80292 3.07744 7.81395 3.0869 7.823 3.09896C7.873 3.16146 7.866 3.27583 7.973 3.34896C8.02983 3.37683 8.09211 3.38237 8.15152 3.36484C8.21093 3.34731 8.26465 3.30753 8.3055 3.25083C8.367 3.10583 8.3805 3.05458 8.4085 3.00083C8.453 2.91833 8.5265 2.95396 8.5265 2.98146C8.52 3.02833 8.4765 3.07146 8.5055 3.15396C8.5585 3.20896 8.57 3.17396 8.6015 3.16208C8.71 3.08708 8.7915 2.75771 8.7915 2.75771C8.795 2.63271 8.747 2.64396 8.7135 2.67146C8.68 2.69896 8.67 2.71833 8.628 2.75396C8.578 2.76146 8.4725 2.81271 8.423 2.70271C8.37 2.56896 8.37 2.38083 8.3295 2.24708C8.3295 2.23958 8.261 2.03896 8.325 2.02333C8.3565 2.03146 8.425 2.05896 8.437 1.97646C8.471 1.89771 8.3645 1.67021 8.2915 1.56021C8.2782 1.53713 8.26088 1.51813 8.24083 1.50465C8.22079 1.49118 8.19856 1.48358 8.17582 1.48244C8.15308 1.48129 8.13043 1.48663 8.10958 1.49805C8.08874 1.50946 8.07025 1.52666 8.0555 1.54833C8.01349 1.61862 7.99134 1.70436 7.9925 1.79208C7.98317 1.84892 7.98342 1.90757 7.99324 1.96428C8.00305 2.02099 8.02222 2.07452 8.0495 2.12146C8.14965 2.32185 8.19558 2.55719 8.1805 2.79271C8.16341 2.83116 8.13829 2.86309 8.10783 2.8851C8.07736 2.90712 8.04269 2.91838 8.0075 2.91771C7.9625 2.90208 7.8875 2.87458 7.8475 2.46646C7.85704 2.14492 7.82788 1.82342 7.761 1.51271C7.7265 1.38771 7.703 1.26271 7.62 1.48083C7.58351 1.54872 7.56001 1.62621 7.55134 1.70729C7.54267 1.78836 7.54905 1.87084 7.57 1.94833C7.63388 2.18164 7.65205 2.43069 7.623 2.67458C7.59445 2.74481 7.56099 2.81173 7.523 2.87458C7.49879 2.91389 7.46335 2.93994 7.4241 2.94728C7.38485 2.95462 7.34486 2.94268 7.3125 2.91396C7.27693 2.88814 7.24691 2.85189 7.22505 2.80834C7.20318 2.76478 7.19013 2.71523 7.187 2.66396C7.20305 2.39684 7.19735 2.12839 7.17 1.86271C7.12 1.71333 7.034 1.76833 6.9985 1.81146C6.83145 2.0738 6.72278 2.38664 6.6835 2.71833C6.6335 2.93833 6.5835 2.87521 6.5465 2.78521C6.4585 2.67146 6.452 1.76021 6.3465 1.91021" fill="white"/>
<path d="M6.92155 3.32756C6.92155 3.33131 6.92155 3.33131 6.91655 3.33131V3.33506C6.90555 3.34318 6.89105 3.37068 6.86155 3.40193C6.83654 3.44354 6.81874 3.49121 6.80927 3.54189C6.7998 3.59257 6.79888 3.64516 6.80655 3.69631C6.80655 3.71631 6.90005 4.07131 6.97905 4.32818C7.04526 4.60427 7.06751 4.8939 7.04455 5.18068C6.91763 5.54912 6.70467 5.86106 6.43355 6.07568C6.39406 6.10082 6.35037 6.11392 6.30605 6.11392C6.26173 6.11392 6.21804 6.10082 6.17855 6.07568V6.07193C6.15402 6.0481 6.13479 6.01679 6.12271 5.98101C6.11062 5.94522 6.10609 5.90616 6.10955 5.86756C6.38278 5.65646 6.59735 5.34526 6.72405 4.97631C6.78394 4.76932 6.78972 4.54391 6.74055 4.33256C6.72508 4.22539 6.68924 4.12443 6.63605 4.03818V4.03381C6.67055 4.01068 6.75905 4.10443 6.77405 4.04568C6.74858 3.87724 6.68785 3.72025 6.59805 3.59068C6.58628 3.56897 6.57073 3.55087 6.55257 3.53774C6.53441 3.52461 6.5141 3.51679 6.49317 3.51486C6.47225 3.51294 6.45125 3.51696 6.43174 3.52663C6.41224 3.53629 6.39474 3.55136 6.38055 3.57068C6.30755 3.62943 6.29205 3.83756 6.32605 4.02256C6.36605 4.15568 6.47605 4.17943 6.55105 4.45443V4.45818C6.56559 4.55349 6.56113 4.6518 6.53805 4.74443C6.40719 4.97125 6.25227 5.17478 6.07755 5.34943L6.07455 5.35318V5.35693H6.07005V5.35318C6.07169 5.32322 6.07169 5.29315 6.07005 5.26318C6.07005 5.18443 6.09255 4.99568 6.09105 4.96068V4.95693C5.96005 5.07818 5.91505 5.44756 5.89105 5.55756C5.55655 5.81751 5.24366 6.11858 4.95705 6.45631C4.84255 6.70631 5.74405 6.16568 5.84805 6.10318C5.84805 6.10318 5.84805 6.10318 5.85205 6.10693C5.87115 6.18807 5.89819 6.26595 5.93255 6.33881C5.98495 6.43455 6.0599 6.50754 6.14699 6.54763C6.23407 6.58773 6.32898 6.59294 6.41855 6.56256C6.71467 6.38337 6.9602 6.09586 7.12255 5.73818C7.14905 5.68318 7.19205 5.64006 7.23055 5.68318C7.32387 5.91104 7.46711 6.10102 7.64356 6.23094C7.82001 6.36087 8.02238 6.42537 8.22705 6.41693C8.33955 6.22506 8.28655 6.12693 8.24055 6.09131C8.22555 6.07568 7.99755 5.95006 7.96255 5.82443C7.94105 5.71068 7.99405 5.60818 8.10355 5.53006C8.4163 5.4879 8.72455 5.40409 9.02305 5.28006C9.03358 5.12556 9.06752 4.97496 9.12305 4.83631C9.13392 4.80505 9.15117 4.77789 9.17305 4.75756V4.75381V4.75068V4.74256L9.12305 4.69943L8.12305 4.69193C8.11307 4.68679 8.10366 4.68007 8.09505 4.67193V4.66818V4.66443V4.66006V4.65631V4.65256V4.64881C8.10296 4.6357 8.11399 4.62607 8.12655 4.62131C8.36705 4.57818 8.79005 4.47943 8.81705 3.90256C8.82438 3.83768 8.82101 3.77162 8.80714 3.70844C8.79327 3.64525 8.7692 3.58629 8.73641 3.53517C8.70362 3.48406 8.66281 3.44187 8.61648 3.41122C8.57016 3.38057 8.5193 3.36209 8.46705 3.35693C8.36694 3.38378 8.27905 3.45812 8.22189 3.56431C8.16473 3.6705 8.14274 3.80027 8.16055 3.92631C8.15205 4.00068 8.18005 4.15381 8.12405 4.16943C7.75605 4.22068 7.35505 4.54443 7.34055 4.77443H7.33555V4.77818H7.33055L7.32655 4.77443C7.30746 4.76021 7.29239 4.7389 7.28343 4.71347C7.27447 4.68805 7.27207 4.65977 7.27655 4.63256C7.2596 4.21458 7.17346 3.80554 7.02355 3.43131C6.97355 3.35693 6.94955 3.32943 6.93405 3.32568H6.92805M8.38905 3.84006C8.41692 3.83629 8.44487 3.84614 8.46705 3.86756C8.4847 3.87859 8.4997 3.89528 8.5105 3.91592C8.52131 3.93656 8.52754 3.96042 8.52855 3.98506V3.99318V3.99693V4.00068C8.52855 4.00068 8.52505 4.00443 8.52255 4.00881C8.50305 4.03631 8.46055 4.03193 8.41755 3.99693C8.4009 3.9853 8.38666 3.96895 8.37598 3.9492C8.3653 3.92944 8.35847 3.90683 8.35605 3.88318V3.87881C8.35605 3.87131 8.35755 3.86756 8.36055 3.86756V3.85943C8.36055 3.85568 8.36055 3.85568 8.36555 3.85131C8.36875 3.84753 8.37252 3.84458 8.37664 3.84265C8.38076 3.84072 8.38465 3.83984 8.38905 3.84006ZM7.46005 5.02756H7.47155C7.60939 5.06374 7.74935 5.0859 7.89005 5.09381C8.00605 5.10568 8.06305 5.23131 7.95505 5.28631C7.84705 5.34131 7.74505 5.37693 7.74505 5.59881C7.75947 5.66001 7.75947 5.72511 7.74505 5.78631C7.74501 5.78799 7.74456 5.78961 7.74375 5.79095C7.74295 5.79229 7.74183 5.79329 7.74055 5.79381V5.79818V5.80193H7.73805L7.73305 5.80568C7.73275 5.8069 7.73215 5.80797 7.73135 5.80875C7.73054 5.80953 7.72957 5.80999 7.72855 5.81006C7.70205 5.81381 7.66505 5.77443 7.63655 5.75881C7.5601 5.69296 7.49582 5.6074 7.44804 5.50789C7.40026 5.40839 7.37008 5.29724 7.35955 5.18193C7.35818 5.16331 7.3598 5.14453 7.36431 5.12669C7.36882 5.10885 7.37613 5.09232 7.38582 5.07806C7.3955 5.0638 7.40737 5.0521 7.42071 5.04364C7.43406 5.03519 7.44863 5.03014 7.46355 5.02881" fill="white"/>
<path d="M4.24003 1.91859C4.35603 1.99296 4.57153 1.96171 4.56253 1.70234C4.56253 1.67859 4.55903 1.60046 4.55753 1.57734C4.53503 1.49921 4.46953 1.51484 4.45753 1.59734C4.45303 1.62046 4.46453 1.66421 4.44853 1.67984C4.43253 1.69546 4.40003 1.68859 4.40003 1.61609C4.39884 1.59335 4.39222 1.57157 4.38103 1.55359C4.3778 1.54931 4.3738 1.54605 4.36937 1.5441C4.36493 1.54214 4.36019 1.54154 4.35553 1.54234C4.34003 1.54609 4.34003 1.54984 4.33303 1.56921C4.32711 1.58922 4.32406 1.61038 4.32403 1.63171C4.32103 1.65921 4.31353 1.66671 4.30003 1.67109C4.28653 1.67546 4.28953 1.67484 4.27653 1.66296C4.26353 1.65109 4.26003 1.64359 4.26003 1.62609C4.25984 1.60508 4.258 1.58414 4.25453 1.56359C4.24756 1.55172 4.23747 1.54331 4.22603 1.53984C4.16253 1.53984 4.15803 1.64234 4.16253 1.68109C4.15653 1.68921 4.15453 1.86859 4.24003 1.92109" fill="white"/>
<path d="M7.61605 3.92844C7.73155 4.00281 8.00555 3.95969 7.93955 3.70844C7.93955 3.68469 7.93555 3.60656 7.93255 3.58344C7.90955 3.50531 7.84605 3.52469 7.83255 3.60344C7.82905 3.63094 7.84155 3.67406 7.82505 3.68969C7.80855 3.70531 7.77805 3.68969 7.77905 3.61906C7.77787 3.59745 7.77122 3.57687 7.76005 3.56031C7.7568 3.55587 7.75274 3.55247 7.74821 3.5504C7.74369 3.54833 7.73883 3.54766 7.73405 3.54844C7.71905 3.55219 7.71905 3.55594 7.71005 3.57594C7.70519 3.59498 7.70233 3.61473 7.70155 3.63469C7.70155 3.66219 7.69255 3.67031 7.67855 3.67406C7.66455 3.67781 7.66855 3.67781 7.65555 3.66594C7.64255 3.65406 7.63855 3.65031 7.63855 3.63094C7.6392 3.6097 7.63665 3.5885 7.63105 3.56844C7.62784 3.56246 7.62371 3.55733 7.61891 3.55336C7.6141 3.54939 7.60871 3.54666 7.60305 3.54531C7.54055 3.54531 7.53755 3.64719 7.53955 3.68656C7.53605 3.69031 7.53305 3.87094 7.61805 3.92594" fill="white"/>
<path d="M9.58553 3.0952C9.70003 3.16958 9.91653 3.13458 9.90753 2.8752C9.90753 2.85583 9.90403 2.77708 9.90253 2.75395C9.87803 2.67895 9.81303 2.69458 9.80253 2.77708C9.79703 2.80083 9.80903 2.84395 9.79203 2.85583C9.78403 2.87145 9.74603 2.86333 9.74753 2.78896C9.74529 2.76652 9.73878 2.74509 9.72853 2.72645C9.72071 2.72204 9.71203 2.72053 9.70353 2.72208C9.68803 2.72208 9.68803 2.72645 9.67903 2.74583C9.67384 2.76608 9.67082 2.78709 9.67003 2.80833C9.67003 2.83145 9.66153 2.83958 9.64703 2.84333C9.63253 2.84708 9.63503 2.84708 9.62453 2.8352C9.6196 2.83165 9.61549 2.82655 9.6126 2.82042C9.60971 2.81429 9.60813 2.80732 9.60803 2.8002C9.60735 2.77761 9.60466 2.75518 9.60003 2.73333C9.59176 2.72556 9.58219 2.72022 9.57203 2.7177C9.50953 2.7177 9.50453 2.81958 9.50853 2.8552C9.50453 2.8627 9.50153 3.0427 9.58753 3.09458" fill="white"/>
<path d="M10.6045 5.18205C10.5356 5.32465 10.4937 5.4851 10.4821 5.65108C10.4705 5.81706 10.4894 5.98415 10.5375 6.13955C10.5808 6.30455 10.6693 6.44512 10.7875 6.53642C10.8048 6.5599 10.8263 6.5779 10.8503 6.58893C10.8743 6.59996 10.9 6.60371 10.9253 6.59986C10.9507 6.59602 10.9749 6.58469 10.9961 6.56681C11.0173 6.54893 11.0347 6.52502 11.047 6.49705C11.1645 6.32455 11.167 5.8883 11.2215 5.80205C11.2615 5.64142 11.358 5.6683 11.4055 5.73955C11.4481 5.8228 11.5057 5.89255 11.5735 5.9433C11.5958 5.97646 11.6232 6.00374 11.654 6.02352C11.6848 6.04331 11.7185 6.05521 11.753 6.05853C11.7876 6.06185 11.8223 6.05651 11.8552 6.04285C11.8881 6.02918 11.9184 6.00745 11.9445 5.97892C12.0421 5.90162 12.1126 5.78106 12.142 5.64142C12.1852 4.98044 12.19 4.31641 12.1565 3.65455C12.151 3.60767 12.043 2.83767 12.043 2.83017C12.043 2.82267 12.0275 2.43767 12.0165 2.34705C12.0135 2.30767 12.007 2.29642 12.035 2.30017C12.0645 2.33955 12.0675 2.3433 12.085 2.3508C12.1145 2.35892 12.141 2.2883 12.1235 2.22142C12.033 1.9858 11.94 1.74642 11.8485 1.51517C11.8275 1.47955 11.7985 1.4483 11.7625 1.51892C11.7406 1.5469 11.7235 1.58005 11.7119 1.61643C11.7004 1.65281 11.6949 1.69169 11.6955 1.7308C11.704 1.89955 11.725 2.07267 11.7325 2.24142C11.7695 2.52767 11.806 2.8183 11.843 3.10892C11.877 3.72517 11.887 4.2908 11.921 4.90705C11.9155 5.1658 11.859 5.5158 11.8025 5.54705C11.8025 5.54705 11.722 5.61767 11.666 5.54267C11.5897 5.42619 11.5227 5.30058 11.466 5.16767C11.3835 5.06205 11.3285 5.08955 11.2695 5.16767C11.1246 5.45205 11.0092 5.75824 10.926 6.07892C10.8965 6.14142 10.817 6.19642 10.729 6.07517C10.6127 5.80223 10.5699 5.48968 10.607 5.18392" fill="white"/>
<path d="M9.63704 1.58042C9.69301 1.64082 9.73604 1.71772 9.76223 1.80415C9.78842 1.89059 9.79695 1.98382 9.78704 2.07542C9.76654 2.25229 9.71254 2.45042 9.67304 2.42104C9.63354 2.39167 9.70154 2.24417 9.66154 2.08292C9.63704 1.97729 9.49754 1.78854 9.51154 1.72979C9.50574 1.70848 9.50489 1.68554 9.50912 1.66365C9.51335 1.64176 9.52246 1.62182 9.53541 1.60616C9.54835 1.59051 9.5646 1.57977 9.58224 1.57521C9.59988 1.57065 9.61819 1.57246 9.63504 1.58042" fill="white"/>
<path d="M10.937 5.35648C10.9463 5.0972 10.9389 4.83742 10.915 4.5796C10.909 4.37523 10.7495 2.69086 10.715 2.53398C10.676 2.23961 10.871 2.4946 10.8485 2.3221C10.7815 2.10585 10.614 1.78773 10.562 1.5996C10.5285 1.5171 10.5425 1.44648 10.4715 1.57961C10.4107 1.81775 10.3891 2.06885 10.408 2.31773C10.6074 3.48479 10.7133 4.67379 10.724 5.8671C10.804 5.8671 10.896 5.6121 10.936 5.35648" fill="white"/>
<path d="M12.2145 3.60106C12.3105 3.67168 12.3645 4.03856 12.3545 4.14293C12.3365 4.33543 12.287 4.54356 12.2505 4.51793C12.214 4.49231 12.2585 4.23106 12.2395 4.15293C12.217 4.03856 12.0895 3.83043 12.103 3.76793C12.0775 3.63793 12.159 3.58356 12.2145 3.60293" fill="white"/>
<path d="M5.70907 4.68971C5.79807 4.73721 5.85157 5.00783 5.84107 5.08658C5.82307 5.22783 5.77557 5.37721 5.74107 5.36096C5.70657 5.34471 5.74856 5.14908 5.73006 5.09033C5.72306 4.94533 5.59807 4.87033 5.60057 4.80783C5.57707 4.69408 5.65057 4.67408 5.70807 4.68971" fill="white"/>
<path d="M3.30405 1.49094C3.43705 1.54594 3.44455 1.82094 3.43605 1.90281C3.41805 2.04844 3.37055 2.20531 3.33605 2.18594C3.30155 2.16656 3.33605 1.96969 3.31705 1.90719C3.30005 1.81406 3.18555 1.66344 3.20005 1.61656C3.17455 1.51844 3.25005 1.47094 3.30555 1.49156" fill="white"/>
<path d="M5.92547 2.7861C5.8735 2.83746 5.83737 2.90975 5.82324 2.99065C5.80911 3.07156 5.81785 3.15609 5.84797 3.22985C5.86556 3.26248 5.8912 3.28704 5.92099 3.29979C5.95077 3.31254 5.98307 3.31278 6.01297 3.30048C6.11297 3.31985 6.17197 3.03735 6.17197 3.03735C6.17197 3.03735 6.17497 2.9586 6.05747 3.10798C6.00747 3.1236 6.00097 3.0961 5.98797 3.05673C5.97625 2.98309 5.98145 2.90682 6.00297 2.83673C6.02147 2.7661 5.98297 2.73485 5.92547 2.7861Z" fill="white"/>
<path d="M6.68899 1.384C6.64444 1.42919 6.60773 1.48524 6.58108 1.54875C6.55443 1.61225 6.53841 1.68188 6.53399 1.75337C6.52949 1.84712 6.51699 1.84712 6.56199 1.91025C6.59549 1.97712 6.62799 1.969 6.69299 1.91837C6.72633 1.88869 6.74897 1.84378 6.75599 1.79337C6.77199 1.68337 6.67449 1.844 6.66099 1.72212C6.64749 1.60025 6.70199 1.56525 6.76099 1.4515C6.76099 1.37712 6.76099 1.3265 6.68799 1.38462" fill="white"/>
<path d="M7.30545 1.53732C7.28082 1.67817 7.26593 1.82141 7.26095 1.96545C7.24245 2.0717 7.34095 2.11857 7.38445 1.98107C7.42903 1.83161 7.4527 1.67369 7.45445 1.5142C7.43445 1.35295 7.35445 1.36107 7.30445 1.53732" fill="white"/>
<path d="M11.1855 4.31433C11.1995 4.2987 11.732 3.76495 11.732 3.76495C11.7865 3.73745 11.775 4.03995 11.7505 4.03558C11.5887 4.25894 11.3976 4.4462 11.1855 4.58933C11.1595 4.61308 11.133 4.3812 11.1855 4.31433Z" fill="white"/>
<path d="M11.672 4.30875C11.767 4.37563 11.804 4.76 11.7935 4.86625C11.797 5.07063 11.703 5.235 11.6665 5.21188C11.63 5.18875 11.671 4.95688 11.6525 4.87438C11.6115 4.74933 11.5818 4.61893 11.564 4.48563C11.5375 4.35563 11.614 4.285 11.672 4.30875Z" fill="white"/>
<path d="M8.49999 5.97403C8.54346 5.90479 8.59387 5.84283 8.64999 5.78966C8.66722 5.77917 8.68677 5.77618 8.70552 5.78116C8.72427 5.78614 8.74115 5.79881 8.75349 5.81716C8.76249 5.88778 8.72049 5.95841 8.73399 6.05653C8.74449 6.09591 8.75349 6.14341 8.80499 6.12341C8.83886 6.08595 8.87853 6.05758 8.92153 6.04006C8.96453 6.02253 9.00996 6.01623 9.05499 6.02153C9.12149 6.02153 9.12199 6.17841 9.08199 6.17841C8.96476 6.21978 8.85131 6.27634 8.74349 6.34716C8.73593 6.35418 8.72733 6.35926 8.71819 6.36209C8.70905 6.36492 8.69955 6.36545 8.69024 6.36365C8.68093 6.36185 8.67201 6.35775 8.66398 6.35159C8.65595 6.34543 8.64899 6.33734 8.64349 6.32778C8.63317 6.30751 8.62692 6.28443 8.62527 6.26049C8.62362 6.23655 8.62661 6.21247 8.63399 6.19028C8.63899 6.11153 8.61599 6.06528 8.56849 6.07278C8.53249 6.10403 8.50199 6.11966 8.48449 6.06466C8.47799 6.02153 8.47549 5.99778 8.49849 5.97403" fill="white"/>
<path d="M12.2336 6.18296C12.2488 6.20245 12.2573 6.22857 12.2573 6.25577C12.2573 6.28297 12.2488 6.3091 12.2336 6.32858C12.1956 6.37983 12.1701 6.40296 12.1336 6.45358C12.1171 6.49671 12.1061 6.55921 12.1591 6.57858C12.2591 6.61796 12.4891 6.40983 12.4891 6.40171C12.5016 6.38777 12.5103 6.36943 12.5143 6.34911C12.5182 6.3288 12.5171 6.30747 12.5111 6.28796C12.4891 6.25296 12.4411 6.27233 12.4081 6.27233C12.3916 6.27233 12.3406 6.25671 12.3651 6.19796C12.3821 6.16168 12.3962 6.12336 12.4071 6.08358C12.4216 6.03296 12.4096 6.00171 12.3516 5.97358C12.3044 5.96388 12.2563 5.96388 12.2091 5.97358C12.1751 5.98546 12.1631 6.00921 12.1591 6.06421C12.1591 6.15046 12.1996 6.14671 12.2391 6.18171" fill="white"/>
</g>
<defs>
<clipPath id="clip0_4131_74917">
<rect width="16" height="12" fill="white"/>
</clipPath>
</defs>
</svg>
