<svg width="16" height="12" viewBox="0 0 16 12" fill="none" xmlns="http://www.w3.org/2000/svg">
<g clip-path="url(#clip0_4131_74550)">
<path d="M0 0.00292969H16V11.9972H0V0.00292969Z" fill="#D80027"/>
<path d="M4.35598 2.50774L3.05198 2.50945L3.04848 2.51174L3.05048 2.50774L2.65198 1.03174L2.29798 2.50945L1.00598 2.50774L2.07898 3.3746H2.08548L2.07298 3.38488L1.63648 4.85402L2.67898 3.93174L2.68098 3.92488L2.68298 3.93174L3.72448 4.85402L3.28798 3.38488L3.27648 3.3746H3.28048L4.35598 2.50774Z" fill="#FFDA44"/>
<path d="M6.57597 4.87878H6.30897L6.22747 4.57764L6.15497 4.87878H5.89197L6.11097 5.05649H6.11247L6.10997 5.05878L6.02047 5.35878L6.23297 5.17078L6.23347 5.16907L6.23397 5.17078L6.44697 5.35878L6.35697 5.05878L6.35447 5.05649H6.35597L6.57597 4.87878Z" fill="#FFDA44"/>
<path d="M5.10095 6.44206L5.09345 6.12549L4.95245 6.39063L4.69995 6.30206L4.86895 6.54549L4.86945 6.54606L4.86695 6.54663L4.71095 6.80492L4.95895 6.69635L4.95995 6.69463V6.69635L5.11895 6.94777L5.10445 6.63006L5.10395 6.62892L5.35645 6.5312L5.10095 6.44206Z" fill="#FFDA44"/>
<path d="M6.13904 3.32327L6.40304 3.30842L6.40454 3.30727L6.40404 3.30956L6.49304 3.60727L6.55804 3.29813L6.55704 3.29527L6.55804 3.29585L6.82304 3.29527L6.60104 3.1187H6.60004L6.60104 3.11756L6.67354 2.81299L6.47304 3.01527L6.25454 2.83985L6.35404 3.13299H6.35254L6.13904 3.32327Z" fill="#FFDA44"/>
<path d="M5.86849 1.50033L5.87049 1.5009L6.12299 1.40776L5.86849 1.31576L5.86749 1.31633L5.86849 1.31462L5.86399 0.998047L5.72099 1.26205L5.46899 1.16948L5.63549 1.41462L5.63749 1.41519L5.63349 1.4169L5.47599 1.67176L5.72449 1.56605L5.72549 1.56433V1.56605L5.88249 1.82148L5.87049 1.50319L5.86849 1.50033Z" fill="#FFDA44"/>
</g>
<defs>
<clipPath id="clip0_4131_74550">
<rect width="16" height="12" fill="white"/>
</clipPath>
</defs>
</svg>
