<svg width="16" height="16" viewBox="0 0 16 16" fill="none" xmlns="http://www.w3.org/2000/svg">
<g clip-path="url(#clip0_3714_17900)">
<path d="M8 14.8926C11.8066 14.8926 14.8925 11.8067 14.8925 8.00012C14.8925 4.19352 11.8066 1.10767 8 1.10767C4.1934 1.10767 1.10754 4.19352 1.10754 8.00012C1.10754 11.8067 4.1934 14.8926 8 14.8926Z" fill="url(#paint0_linear_3714_17900)"/>
<path d="M14.8925 8.00012C14.8925 8.00009 14.8925 8.00003 14.8925 7.99999C14.8924 4.19425 11.8079 1.10902 8.00241 1.1077C8.0016 1.1077 8.00078 1.10767 7.99997 1.10767C7.99956 1.10767 7.99915 1.1077 7.99874 1.1077C7.78528 1.10773 7.57424 1.11799 7.36574 1.137C7.39611 1.13976 7.42629 1.14321 7.45656 1.14638C5.46952 1.42914 3.82193 3.24458 3.17681 5.69901C1.90008 6.28373 1.10754 7.0986 1.10754 8.00012C1.10754 8.90164 1.90008 9.71651 3.17685 10.3013C3.82196 12.7557 5.46955 14.5711 7.45659 14.8539C7.42632 14.8571 7.39614 14.8605 7.36577 14.8633C7.57468 14.8823 7.78613 14.8926 8 14.8926C11.8066 14.8926 14.8924 11.8068 14.8925 8.00028C14.8925 8.00021 14.8925 8.00015 14.8925 8.00012ZM2.97766 6.68608C2.93456 6.98688 2.90588 7.29458 2.89283 7.60796H1.99432C2.1536 7.2938 2.49374 6.97424 2.97766 6.68608ZM1.99432 8.39228H2.89283C2.90588 8.70566 2.93459 9.01336 2.97766 9.31416C2.49374 9.026 2.1536 8.70644 1.99432 8.39228ZM13.6126 7.60796H13.1072C13.0941 7.29458 13.0654 6.98688 13.0223 6.68608C13.2294 6.80938 13.4098 6.93841 13.5614 7.07033C13.5853 7.24749 13.6024 7.42679 13.6126 7.60796ZM13.1072 8.39228H13.6126C13.6024 8.57345 13.5853 8.75275 13.5613 8.92994C13.4098 9.06183 13.2294 9.1909 13.0223 9.31419C13.0654 9.01336 13.0941 8.70566 13.1072 8.39228ZM13.3131 5.94839C13.159 5.86133 12.9957 5.77797 12.8232 5.69898C12.572 4.74327 12.1687 3.88451 11.6527 3.17527C12.4082 3.94563 12.9842 4.89245 13.3131 5.94839ZM8.88361 5.59055C8.94999 6.23052 8.98986 6.91149 9.00078 7.60796H6.99925C7.01016 6.91146 7.05001 6.23052 7.11642 5.59055C7.40715 5.57223 7.70193 5.56279 8.00003 5.56279C8.2981 5.56279 8.59288 5.57223 8.88361 5.59055ZM8.84085 2.00925C9.63909 2.2341 10.3815 2.77741 10.9874 3.59385C11.3648 4.1023 11.6696 4.68978 11.8956 5.34227C11.2058 5.12094 10.4257 4.95676 9.58616 4.86434C9.41935 3.65113 9.15877 2.65336 8.84085 2.00925ZM9.00075 8.39228C8.98983 9.08878 8.94999 9.76972 8.88357 10.4097C8.59285 10.428 8.29807 10.4375 7.99997 10.4375C7.70186 10.4375 7.40709 10.428 7.11636 10.4097C7.04997 9.76972 7.0101 9.08875 6.99918 8.39228H9.00075ZM9.58619 11.1359C10.4257 11.0435 11.2058 10.8793 11.8957 10.658C11.6696 11.3105 11.3649 11.8979 10.9875 12.4064C10.6504 12.8605 10.2711 13.2302 9.86347 13.5075C9.52643 13.7368 9.0875 13.419 9.20116 13.0275C9.35708 12.4906 9.4879 11.8506 9.58619 11.1359ZM10.5307 10.1992C10.253 10.2541 9.96881 10.2994 9.67953 10.3354C9.73854 9.7241 9.77496 9.07149 9.78516 8.39228H12.3221C12.3014 8.85003 12.2447 9.29879 12.1521 9.73474C11.6679 9.92592 11.1246 10.0818 10.5307 10.1992ZM9.78519 7.60796C9.77499 6.92872 9.73857 6.27614 9.67956 5.66484C9.96881 5.70086 10.253 5.74616 10.5308 5.80106C11.1246 5.91846 11.6679 6.07435 12.1521 6.2655C12.2447 6.70149 12.3015 7.15021 12.3221 7.60796H9.78519ZM7.40059 3.78318C7.52034 3.24636 7.66475 2.78343 7.81823 2.44445C7.88809 2.29013 7.95012 2.18211 8 2.10763C8.04985 2.18211 8.11187 2.2901 8.18177 2.44445C8.33528 2.78343 8.47968 3.24636 8.5994 3.78318C8.66999 4.09967 8.73192 4.44034 8.78481 4.7994C8.52718 4.78575 8.26541 4.77847 8 4.77847C7.73456 4.77847 7.47278 4.78575 7.21518 4.7994C7.26808 4.44031 7.33001 4.09963 7.40059 3.78318ZM5.01252 3.59385C5.61848 2.77741 6.36088 2.2341 7.15912 2.00925C6.84122 2.65333 6.58061 3.65113 6.41377 4.86434C5.57424 4.95676 4.79413 5.12097 4.10431 5.3423C4.33035 4.68978 4.63514 4.10233 5.01252 3.59385ZM3.8479 6.2655C4.33214 6.07435 4.87542 5.91846 5.46927 5.80106C5.74704 5.74616 6.03118 5.70086 6.32047 5.66484C6.26146 6.27614 6.22503 6.92875 6.21484 7.60796H3.67793C3.69854 7.15021 3.75526 6.70145 3.8479 6.2655ZM3.6779 8.39228H6.21481C6.225 9.07152 6.26143 9.7241 6.32044 10.3354C6.03118 10.2994 5.74704 10.2541 5.46924 10.1992C4.87539 10.0818 4.33211 9.92589 3.84787 9.73474C3.75529 9.29879 3.69854 8.85003 3.6779 8.39228ZM5.01252 12.4064C4.63514 11.8979 4.33035 11.3105 4.10434 10.658C4.79413 10.8793 5.57427 11.0435 6.4138 11.1359C6.51209 11.8507 6.64292 12.4906 6.79884 13.0276C6.9125 13.419 6.47357 13.7368 6.13653 13.5075C5.72891 13.2302 5.34961 12.8605 5.01252 12.4064ZM7.21518 11.2009C7.47281 11.2145 7.73459 11.2218 8 11.2218C8.26544 11.2218 8.52718 11.2146 8.78481 11.2009C8.73192 11.5599 8.66999 11.9006 8.5994 12.2171C8.47965 12.7539 8.33525 13.2168 8.18177 13.5558C8.18108 13.5574 8.18036 13.5589 8.17967 13.5604C8.10974 13.7143 7.89026 13.7143 7.82033 13.5604C7.81964 13.5589 7.81895 13.5574 7.81823 13.5558C7.66475 13.2168 7.52031 12.7539 7.40059 12.2171C7.33001 11.9006 7.26808 11.5599 7.21518 11.2009ZM11.6527 12.825C12.1687 12.1157 12.572 11.257 12.8232 10.3013C12.9957 10.2223 13.159 10.1389 13.3131 10.0519C12.9842 11.1078 12.4082 12.0546 11.6527 12.825Z" fill="url(#paint1_linear_3714_17900)"/>
<path d="M15.3647 13.7928H0.635263C0.284424 13.7928 0 13.5084 0 13.1576V9.92164C0 9.5708 0.284424 9.28638 0.635263 9.28638H15.3647C15.7155 9.28638 16 9.5708 16 9.92164V13.1576C16 13.5084 15.7156 13.7928 15.3647 13.7928Z" fill="url(#paint2_linear_3714_17900)"/>
<path d="M15.3647 9.28638H14.0963C14.4471 9.28638 14.7315 9.5708 14.7315 9.92164V13.1576C14.7315 13.5084 14.4471 13.7928 14.0963 13.7928H15.3647C15.7155 13.7928 16 13.5084 16 13.1576V9.92164C16 9.5708 15.7155 9.28638 15.3647 9.28638Z" fill="url(#paint3_linear_3714_17900)"/>
<path d="M2.6104 12.4937C2.6104 12.5866 2.47108 12.6795 2.30851 12.6795C2.13436 12.6795 2.0105 12.5866 2.0105 12.4937V9.96632C2.0105 9.85799 2.13436 9.78442 2.30851 9.78442C2.47108 9.78442 2.6104 9.85799 2.6104 9.96632V11.1081C2.68008 10.9571 2.85034 10.8139 3.09034 10.8139C3.44253 10.8139 3.74829 11.1817 3.74829 11.6267V12.4937C3.74829 12.6175 3.59735 12.6795 3.44642 12.6795C3.30709 12.6795 3.14841 12.6175 3.14841 12.4937V11.6267C3.14841 11.4796 3.02069 11.3364 2.86973 11.3364C2.74201 11.3364 2.6104 11.4448 2.6104 11.6267V12.4937Z" fill="#7A6D79"/>
<path d="M4.66949 12.0255C4.66949 12.1377 4.70817 12.1764 4.82817 12.1764H4.99463C5.16878 12.1764 5.25007 12.3041 5.25007 12.428C5.25007 12.5557 5.16878 12.6796 4.99463 12.6796H4.82817C4.33665 12.6796 4.06958 12.4822 4.06958 12.0255V10.2181C4.06958 10.1097 4.22829 10.0361 4.36759 10.0361C4.51855 10.0361 4.66949 10.1097 4.66949 10.2181V10.8373H5.10682C5.20357 10.8373 5.25389 10.9457 5.25389 11.0502C5.25389 11.1585 5.20357 11.263 5.10682 11.263H4.66949V12.0255Z" fill="#7A6D79"/>
<path d="M6.0783 12.0255C6.0783 12.1377 6.11698 12.1764 6.23698 12.1764H6.40344C6.57759 12.1764 6.65888 12.3041 6.65888 12.428C6.65888 12.5557 6.57759 12.6796 6.40344 12.6796H6.23698C5.74547 12.6796 5.47839 12.4822 5.47839 12.0255V10.2181C5.47839 10.1097 5.63711 10.0361 5.7764 10.0361C5.92737 10.0361 6.0783 10.1097 6.0783 10.2181V10.8373H6.51563C6.61239 10.8373 6.66274 10.9457 6.66274 11.0502C6.66274 11.1585 6.61242 11.263 6.51563 11.263H6.0783V12.0255Z" fill="#7A6D79"/>
<path d="M7.46009 11.0191V11.1081C7.54909 10.9571 7.73874 10.814 7.98257 10.814C8.37347 10.814 8.67537 11.1817 8.67537 11.6267V11.8977C8.67537 12.3273 8.36186 12.7182 8.00192 12.7182C7.77356 12.7182 7.57231 12.5672 7.49877 12.4086V13.3336C7.49877 13.4265 7.3633 13.5193 7.19301 13.5193C7.02272 13.5193 6.89886 13.4265 6.89886 13.3336V11.0191C6.89886 10.9107 7.02658 10.8372 7.18526 10.8372C7.34398 10.8372 7.46009 10.9107 7.46009 11.0191ZM8.07546 11.6268C8.07546 11.4797 7.94388 11.3365 7.78131 11.3365C7.64199 11.3365 7.49877 11.4449 7.49877 11.6268V11.948C7.49877 12.0138 7.61874 12.1957 7.78906 12.1957C7.93999 12.1957 8.07546 12.0486 8.07546 11.8977V11.6268Z" fill="#7A6D79"/>
<path d="M9.82492 12.1454C9.82492 11.8783 8.91926 12.0602 8.91926 11.41C8.91926 11.1236 9.09733 10.814 9.64688 10.814C9.98361 10.814 10.3049 10.9301 10.3049 11.0926C10.3049 11.17 10.2274 11.3752 10.0881 11.3752C9.98364 11.3752 9.86367 11.2591 9.65466 11.2591C9.49984 11.2591 9.43405 11.3249 9.43405 11.3829C9.43405 11.5997 10.3475 11.441 10.3475 12.1221C10.3475 12.486 10.0842 12.7182 9.60045 12.7182C9.19408 12.7182 8.86511 12.5518 8.86511 12.3621C8.86511 12.2692 8.94251 12.0989 9.06251 12.0989C9.18634 12.0989 9.27537 12.2731 9.58499 12.2731C9.7901 12.2731 9.82492 12.1995 9.82492 12.1454Z" fill="#7A6D79"/>
<path d="M11.1757 11.3444C11.1757 11.5031 11.0402 11.6424 10.8815 11.6424C10.7112 11.6424 10.5835 11.5031 10.5835 11.3444C10.5835 11.1819 10.7112 11.0464 10.8815 11.0464C11.0402 11.0464 11.1757 11.1819 11.1757 11.3444ZM11.1757 12.4049C11.1757 12.5636 11.0402 12.7029 10.8815 12.7029C10.7112 12.7029 10.5835 12.5636 10.5835 12.4049C10.5835 12.2423 10.7112 12.1069 10.8815 12.1069C11.0402 12.1068 11.1757 12.2423 11.1757 12.4049Z" fill="#7A6D79"/>
<path d="M13.1496 9.89676C13.1496 9.91998 13.1457 9.94709 13.1341 9.97033L11.7717 12.7609C11.7446 12.8189 11.6711 12.8576 11.5975 12.8576C11.4659 12.8576 11.3808 12.7492 11.3808 12.6525C11.3808 12.6292 11.3885 12.6021 11.4001 12.5789L12.7586 9.78843C12.7896 9.72261 12.8515 9.69165 12.9212 9.69165C13.0295 9.69165 13.1496 9.77294 13.1496 9.89676Z" fill="#7A6D79"/>
<path d="M14.1016 9.89676C14.1016 9.91998 14.0977 9.94709 14.0861 9.97033L12.7238 12.7609C12.6967 12.8189 12.6231 12.8576 12.5496 12.8576C12.418 12.8576 12.3329 12.7492 12.3329 12.6525C12.3329 12.6292 12.3406 12.6021 12.3522 12.5789L13.7107 9.78843C13.7417 9.72261 13.8036 9.69165 13.8733 9.69165C13.9816 9.69165 14.1016 9.77294 14.1016 9.89676Z" fill="#7A6D79"/>
</g>
<defs>
<linearGradient id="paint0_linear_3714_17900" x1="1.10754" y1="8.00012" x2="14.8925" y2="8.00012" gradientUnits="userSpaceOnUse">
<stop stop-color="#99E6FC"/>
<stop offset="0.4296" stop-color="#01D0FB"/>
<stop offset="0.5256" stop-color="#08C6F7"/>
<stop offset="0.692" stop-color="#1DA9EB"/>
<stop offset="0.9074" stop-color="#3F7CD9"/>
<stop offset="1" stop-color="#4F66D0"/>
</linearGradient>
<linearGradient id="paint1_linear_3714_17900" x1="-4.51765" y1="8.00012" x2="14.6262" y2="8.00012" gradientUnits="userSpaceOnUse">
<stop stop-color="#99E6FC"/>
<stop offset="0.4296" stop-color="#01D0FB"/>
<stop offset="0.5256" stop-color="#08C6F7"/>
<stop offset="0.692" stop-color="#1DA9EB"/>
<stop offset="0.9074" stop-color="#3F7CD9"/>
<stop offset="1" stop-color="#4F66D0"/>
</linearGradient>
<linearGradient id="paint2_linear_3714_17900" x1="0" y1="11.5396" x2="18.5089" y2="11.5396" gradientUnits="userSpaceOnUse">
<stop stop-color="#F8F6F7"/>
<stop offset="0.1788" stop-color="#F8F6F7"/>
<stop offset="1" stop-color="#E7E6F5"/>
</linearGradient>
<linearGradient id="paint3_linear_3714_17900" x1="7.0902" y1="11.5396" x2="13.9611" y2="11.5396" gradientUnits="userSpaceOnUse">
<stop stop-color="#F8F6F7"/>
<stop offset="1" stop-color="#D1CEEB"/>
</linearGradient>
<clipPath id="clip0_3714_17900">
<rect width="16" height="16" fill="white"/>
</clipPath>
</defs>
</svg>
