<svg width="16" height="16" viewBox="0 0 16 16" fill="none" xmlns="http://www.w3.org/2000/svg">
<mask id="mask0_3714_18080" style="mask-type:luminance" maskUnits="userSpaceOnUse" x="2" y="1" width="11" height="14">
<path d="M12.9905 1.6001H2.40002V14.4001H12.9905V1.6001Z" fill="white"/>
</mask>
<g mask="url(#mask0_3714_18080)">
<path fill-rule="evenodd" clip-rule="evenodd" d="M7.95337 1.60433C9.25524 1.65572 10.4894 2.1731 11.4108 3.05379C12.283 3.88296 12.8177 4.98189 12.9192 6.1537C13.0208 7.32551 12.6824 8.49359 11.9649 9.44863L8.57028 13.9912C8.47581 14.1177 8.35108 14.2207 8.20655 14.2918C8.06194 14.363 7.90171 14.4001 7.73912 14.4001C7.57653 14.4001 7.4163 14.363 7.27169 14.2918C7.12716 14.2207 7.00244 14.1177 6.90788 13.9912L3.51332 9.44863C2.75603 8.43507 2.42506 7.18639 2.58609 5.95035C2.74712 4.71439 3.38839 3.58143 4.38263 2.77636C5.37684 1.97129 6.65143 1.55294 7.95337 1.60433ZM7.85341 3.20307C8.72967 3.23921 9.5603 3.60298 10.1805 4.2222C10.7675 4.8052 11.1275 5.57793 11.1958 6.40185C11.2641 7.22578 11.0364 8.04711 10.5534 8.71858L8.26864 11.9126C8.20503 12.0015 8.12106 12.074 8.02377 12.124C7.92647 12.174 7.81866 12.2001 7.70918 12.2001C7.59977 12.2001 7.49188 12.174 7.39459 12.124C7.29729 12.074 7.21333 12.0015 7.14971 11.9126L4.86491 8.71858C4.3552 8.00589 4.13242 7.12795 4.24084 6.25884C4.34918 5.38981 4.7808 4.59324 5.45005 4.02716C6.11924 3.46109 6.97706 3.16694 7.85341 3.20307Z" fill="#010644"/>
<path fill-rule="evenodd" clip-rule="evenodd" d="M2.99105 4.55444C3.2591 5.20625 3.75863 5.96892 4.57671 7.21799C5.62715 8.82187 6.15241 9.62385 6.80856 10.1122C7.89359 10.9199 9.27919 11.2117 10.5975 10.9103C10.7138 10.8837 10.8301 10.8499 10.9491 10.8083L8.57047 13.9914C8.47599 14.1179 8.35127 14.221 8.20673 14.2921C8.06212 14.3632 7.9019 14.4003 7.7393 14.4003C7.57671 14.4003 7.41648 14.3632 7.27188 14.2921C7.12734 14.221 7.00262 14.1179 6.90807 13.9914L3.51351 9.44884C2.75621 8.43528 2.42524 7.1866 2.58627 5.95063C2.64957 5.46477 2.78708 4.99482 2.99105 4.55444Z" fill="url(#paint0_linear_3714_18080)"/>
<path d="M8.19823 5.62956V5.62865L8.8732 5.9312L9.55092 5.67695L7.74741 5L5.94391 5.67695L7.74741 6.35383L8.42238 6.1005L7.74741 5.82202V5.82133L8.19823 5.62956Z" fill="#010644"/>
<path d="M5.94391 5.90259V7.93337L7.63465 8.56811V6.53733L5.94391 5.90259ZM6.84562 7.94084L6.3948 7.77162V7.53085L6.84562 7.70007V7.94084Z" fill="#010644"/>
<path d="M8.87464 6.15645V6.72171L8.42375 6.89093V6.32567L7.86017 6.53733V8.56811L9.55099 7.93337V5.90259L8.87464 6.15645Z" fill="#010644"/>
</g>
<defs>
<linearGradient id="paint0_linear_3714_18080" x1="6.74243" y1="4.55399" x2="6.74243" y2="14.4004" gradientUnits="userSpaceOnUse">
<stop stop-color="#F7A31B"/>
<stop offset="1" stop-color="#FFC463"/>
</linearGradient>
</defs>
</svg>
