<svg width="16" height="12" viewBox="0 0 16 12" fill="none" xmlns="http://www.w3.org/2000/svg">
<mask id="mask0_4135_54411" style="mask-type:luminance" maskUnits="userSpaceOnUse" x="0" y="0" width="16" height="12">
<path d="M16 0H0V12H16V0Z" fill="white"/>
</mask>
<g mask="url(#mask0_4135_54411)">
<path d="M16 0H0V12H16V0Z" fill="white"/>
<path fill-rule="evenodd" clip-rule="evenodd" d="M0 0V12H16V0H0Z" fill="#2A67CD"/>
<mask id="mask1_4135_54411" style="mask-type:luminance" maskUnits="userSpaceOnUse" x="0" y="0" width="16" height="12">
<path fill-rule="evenodd" clip-rule="evenodd" d="M0 0V12H16V0H0Z" fill="white"/>
</mask>
<g mask="url(#mask1_4135_54411)">
<path d="M-1.78149 11.1429L1.73935 12.6319L16.08 1.61911L17.9371 -0.593633L14.1721 -1.09131L8.32287 3.65443L3.6149 6.85194L-1.78149 11.1429Z" fill="white"/>
<path d="M-1.29956 12.186L0.494147 13.0502L17.2702 -0.799316H14.7516L-1.29956 12.186Z" fill="#EC4932"/>
<path d="M17.7817 11.1429L14.2608 12.6319L-0.0798444 1.61911L-1.93701 -0.593633L1.82803 -1.09131L7.67722 3.65443L12.3853 6.85194L17.7817 11.1429Z" fill="white"/>
<path d="M17.6615 11.8917L15.8678 12.7558L8.72436 6.82617L6.60649 6.16366L-2.11572 -0.585938H0.402851L9.1202 6.00346L11.4357 6.79787L17.6615 11.8917Z" fill="#EC4932"/>
<path fill-rule="evenodd" clip-rule="evenodd" d="M9.88891 -1H6.11114V4H-0.986206V8H6.11114V13H9.88891V8H17.0138V4H9.88891V-1Z" fill="#EC4932"/>
<mask id="mask2_4135_54411" style="mask-type:luminance" maskUnits="userSpaceOnUse" x="-1" y="-1" width="19" height="14">
<path fill-rule="evenodd" clip-rule="evenodd" d="M9.88891 -1H6.11114V4H-0.986206V8H6.11114V13H9.88891V8H17.0138V4H9.88891V-1Z" fill="white"/>
</mask>
<g mask="url(#mask2_4135_54411)">
<path d="M6.11114 -1V-2H5.11114V-1H6.11114ZM9.88891 -1H10.8889V-2H9.88891V-1ZM6.11114 4V5H7.11114V4H6.11114ZM-0.986206 4V3H-1.98621V4H-0.986206ZM-0.986206 8H-1.98621V9H-0.986206V8ZM6.11114 8H7.11114V7H6.11114V8ZM6.11114 13H5.11114V14H6.11114V13ZM9.88891 13V14H10.8889V13H9.88891ZM9.88891 8V7H8.88891V8H9.88891ZM17.0138 8V9H18.0138V8H17.0138ZM17.0138 4H18.0138V3H17.0138V4ZM9.88891 4H8.88891V5H9.88891V4ZM6.11114 0H9.88891V-2H6.11114V0ZM7.11114 4V-1H5.11114V4H7.11114ZM-0.986206 5H6.11114V3H-0.986206V5ZM0.0137956 8V4H-1.98621V8H0.0137956ZM6.11114 7H-0.986206V9H6.11114V7ZM7.11114 13V8H5.11114V13H7.11114ZM9.88891 12H6.11114V14H9.88891V12ZM8.88891 8V13H10.8889V8H8.88891ZM17.0138 7H9.88891V9H17.0138V7ZM16.0138 4V8H18.0138V4H16.0138ZM9.88891 5H17.0138V3H9.88891V5ZM8.88891 -1V4H10.8889V-1H8.88891Z" fill="white"/>
</g>
</g>
</g>
</svg>
