<svg width="16" height="12" viewBox="0 0 16 12" fill="none" xmlns="http://www.w3.org/2000/svg">
<g clip-path="url(#clip0_4131_74968)">
<path fill-rule="evenodd" clip-rule="evenodd" d="M0 0H16V12H0V0Z" fill="#F1453D"/>
<path fill-rule="evenodd" clip-rule="evenodd" d="M0 2.5H16V9.5H0V2.5Z" fill="#FEE94E"/>
<path d="M3.27515 8.82281C3.03189 8.68839 2.87061 8.41736 2.87061 8.10723V5.0708H5.91089V8.10723C5.91089 8.41736 5.7496 8.68839 5.50631 8.82281C5.17633 9.00294 4.78992 9.11125 4.39375 9.11125C3.99771 9.11125 3.60517 9.00294 3.27515 8.82281Z" fill="#D8D8D8"/>
<path d="M3.27515 8.82281C3.03189 8.68839 2.87061 8.41736 2.87061 8.10723V5.0708H5.91089V8.10723C5.91089 8.41736 5.7496 8.68839 5.50631 8.82281C5.17633 9.00294 4.78992 9.11125 4.39375 9.11125C3.99771 9.11125 3.60517 9.00294 3.27515 8.82281V8.82281Z" stroke="#262626" stroke-width="0.1"/>
<path d="M5.32628 5.56842C5.32832 5.59111 5.31983 5.61099 5.32312 5.62355C5.32628 5.63624 5.32786 5.64623 5.33218 5.65536C5.33625 5.66452 5.3385 5.68769 5.3385 5.68769C5.3385 5.68769 5.32686 5.67829 5.31607 5.66916C5.30546 5.65989 5.29783 5.65415 5.29783 5.65415C5.29783 5.65415 5.30002 5.67891 5.30102 5.68953C5.30217 5.70014 5.30762 5.72013 5.31643 5.73196C5.32516 5.74354 5.3426 5.76256 5.34799 5.77781C5.35358 5.7932 5.35245 5.82709 5.35245 5.82709C5.35245 5.82709 5.33829 5.80136 5.32613 5.79673C5.31418 5.79195 5.28792 5.77539 5.28792 5.77539C5.28792 5.77539 5.31199 5.80257 5.31199 5.82844C5.31199 5.85427 5.30217 5.88366 5.30217 5.88366C5.30217 5.88366 5.29129 5.86025 5.27715 5.8449C5.2629 5.82965 5.2432 5.81429 5.2432 5.81429C5.2432 5.81429 5.25858 5.85427 5.25858 5.88124C5.25858 5.90842 5.25429 5.9661 5.25429 5.9661C5.25429 5.9661 5.24229 5.9438 5.23028 5.93294C5.21818 5.92246 5.20404 5.91306 5.19961 5.90611C5.19532 5.89905 5.21389 5.92831 5.2159 5.94598C5.21803 5.96368 5.22542 6.02672 5.27387 6.10723C5.30217 6.15429 5.34598 6.2366 5.43982 6.20952C5.53379 6.18258 5.49892 6.03893 5.47922 5.97184C5.45952 5.9049 5.44967 5.83062 5.45083 5.80465C5.45183 5.77892 5.46825 5.70246 5.46609 5.68818C5.46393 5.67417 5.45882 5.61953 5.4705 5.57551C5.4825 5.52966 5.49247 5.51185 5.49892 5.49293C5.50533 5.47416 5.51077 5.46354 5.51296 5.44708C5.51512 5.43062 5.51512 5.39988 5.51512 5.39988C5.51512 5.39988 5.53254 5.43646 5.53695 5.4494C5.54126 5.46243 5.54126 5.50109 5.54126 5.50109C5.54126 5.50109 5.54452 5.46243 5.57081 5.44366C5.59708 5.42464 5.62763 5.40475 5.63529 5.39414C5.64292 5.38342 5.64517 5.37646 5.64517 5.37646C5.64517 5.37646 5.64292 5.44245 5.6266 5.46842C5.61574 5.48526 5.57297 5.54014 5.57297 5.54014C5.57297 5.54014 5.59492 5.53063 5.61018 5.52966C5.62547 5.52831 5.63635 5.52966 5.63635 5.52966C5.63635 5.52966 5.61778 5.54612 5.59376 5.58609C5.56978 5.626 5.57954 5.62953 5.56209 5.66245C5.54452 5.69537 5.53038 5.69658 5.50852 5.7166C5.47569 5.74658 5.49339 5.86585 5.49767 5.88356C5.50208 5.90113 5.5588 6.0472 5.55993 6.08247C5.56093 6.11781 5.5665 6.19662 5.51181 6.24721C5.4766 6.28003 5.419 6.28027 5.40587 6.28964C5.3927 6.29891 5.36668 6.3283 5.36668 6.38955C5.36668 6.45089 5.38617 6.46016 5.40146 6.47552C5.41684 6.49087 5.43645 6.4826 5.44082 6.49443C5.44526 6.50612 5.44739 6.51321 5.45399 6.52026C5.46055 6.52721 5.46496 6.53551 5.46271 6.54831C5.46055 6.56138 5.43541 6.59077 5.42669 6.61211C5.41787 6.63307 5.40042 6.68857 5.40042 6.69673C5.40042 6.70503 5.39839 6.73089 5.40587 6.74393C5.40587 6.74393 5.43316 6.78017 5.41456 6.78723C5.40258 6.79186 5.39082 6.77869 5.38516 6.78017C5.36884 6.78505 5.36033 6.79649 5.35562 6.79553C5.34473 6.79321 5.34473 6.78712 5.34361 6.76966C5.3426 6.75209 5.34315 6.7449 5.33829 6.7449C5.33172 6.7449 5.32841 6.75102 5.32731 6.76029C5.32613 6.76966 5.32613 6.79075 5.31859 6.79075C5.3109 6.79075 5.30001 6.7755 5.29345 6.77212C5.28688 6.76855 5.26834 6.76503 5.26727 6.75565C5.26618 6.74625 5.27819 6.72626 5.29017 6.7227C5.30217 6.71917 5.31315 6.71222 5.30546 6.70517C5.29777 6.69808 5.29017 6.69808 5.2826 6.70517C5.2749 6.71222 5.25858 6.70624 5.25961 6.69566C5.26074 6.68504 5.2629 6.67221 5.26174 6.66626C5.26074 6.66052 5.24761 6.6487 5.26494 6.63794C5.28248 6.62746 5.29004 6.64749 5.30749 6.64392C5.32503 6.64053 5.33376 6.6332 5.34033 6.62162C5.34689 6.6099 5.34574 6.58514 5.33376 6.56992C5.32175 6.55453 5.30977 6.55211 5.30534 6.54271C5.30093 6.53333 5.29448 6.511 5.29448 6.511C5.29448 6.511 5.29764 6.55211 5.29549 6.55809C5.29336 6.56394 5.29448 6.58856 5.29448 6.58856C5.29448 6.58856 5.28248 6.57331 5.27263 6.56162C5.2629 6.54979 5.25305 6.51456 5.25305 6.51456C5.25305 6.51456 5.25201 6.54748 5.25201 6.56051C5.25201 6.57331 5.26503 6.58514 5.26074 6.58991C5.25633 6.59454 5.23563 6.56515 5.23019 6.56051C5.22462 6.55578 5.20721 6.54053 5.19951 6.52393C5.19191 6.50747 5.18635 6.48406 5.18422 6.47565C5.18203 6.46746 5.17845 6.43077 5.18203 6.4215C5.18748 6.40746 5.19623 6.3827 5.19623 6.3827H5.15364C5.13078 6.3827 5.11437 6.37454 5.10564 6.39211C5.09695 6.40978 5.10123 6.44515 5.11212 6.49101C5.12309 6.53672 5.12953 6.55917 5.12637 6.56747C5.12318 6.57563 5.10895 6.59454 5.10351 6.59797C5.09795 6.60163 5.08266 6.60039 5.07609 6.597C5.06965 6.59344 5.0588 6.58745 5.03794 6.58745C5.01724 6.58745 5.00411 6.58856 4.99654 6.58649C4.98885 6.58406 4.97027 6.57345 4.96143 6.57577C4.9527 6.57819 4.93762 6.58697 4.94173 6.60053C4.94842 6.62172 4.93528 6.6265 4.92647 6.62529C4.91774 6.62404 4.91026 6.62051 4.89917 6.61709C4.88832 6.61346 4.87187 6.61709 4.87406 6.60284C4.87619 6.5887 4.88062 6.58759 4.88604 6.57712C4.89157 6.56636 4.89361 6.55955 4.88746 6.55882C4.8798 6.55796 4.87211 6.55699 4.86612 6.56259C4.86035 6.56809 4.85095 6.57992 4.84323 6.57552C4.83551 6.57089 4.82955 6.56076 4.82955 6.53856C4.82955 6.5165 4.80903 6.49723 4.82785 6.4982C4.84664 6.49917 4.87053 6.5148 4.87482 6.50284C4.87901 6.49077 4.87643 6.48541 4.86624 6.476C4.856 6.46687 4.84323 6.46137 4.85691 6.44941C4.87053 6.43758 4.87393 6.43758 4.87913 6.43101C4.88424 6.42465 4.89157 6.40393 4.90111 6.40905C4.91987 6.41918 4.90199 6.43392 4.92078 6.45771C4.9396 6.4816 4.95148 6.49004 4.98307 6.48624C5.01462 6.48261 5.02326 6.47797 5.02326 6.46784C5.02326 6.45771 5.02061 6.43941 5.0197 6.43198C5.01894 6.42465 5.02405 6.39795 5.02405 6.39795C5.02405 6.39795 5.00955 6.40819 5.00526 6.41818C5.00116 6.42831 4.99255 6.44564 4.99255 6.44564C4.99255 6.44564 4.98906 6.42503 4.99006 6.40819C4.99064 6.39833 4.99371 6.38111 4.99337 6.37772C4.99255 6.36856 4.98656 6.34553 4.98656 6.34553C4.98656 6.34553 4.98143 6.37039 4.97808 6.37772C4.97468 6.38502 4.97297 6.41455 4.97297 6.41455C4.97297 6.41455 4.95294 6.39467 4.9585 6.36126C4.96267 6.3355 4.95507 6.30151 4.96188 6.29041C4.96857 6.2793 4.98474 6.23428 5.02404 6.23234C5.06332 6.23065 5.09399 6.23428 5.1077 6.23345C5.12135 6.23234 5.16996 6.22235 5.16996 6.22235C5.16996 6.22235 5.08038 6.17003 5.05992 6.1543C5.03943 6.1388 5.00784 6.09831 4.99754 6.07991C4.98732 6.06148 4.97796 6.02576 4.97796 6.02576C4.97796 6.02576 4.96188 6.02659 4.94729 6.03575C4.93279 6.04478 4.91832 6.05882 4.9098 6.06964C4.90117 6.08074 4.88761 6.10564 4.88761 6.10564C4.88761 6.10564 4.89011 6.07345 4.89011 6.06331C4.89011 6.05342 4.8884 6.03382 4.8884 6.03382C4.8884 6.03382 4.87822 6.07794 4.85773 6.0944C4.83724 6.1111 4.81335 6.13403 4.81335 6.13403C4.81335 6.13403 4.81596 6.10941 4.81596 6.10381C4.81596 6.09831 4.82107 6.06978 4.82107 6.06978C4.82107 6.06978 4.80657 6.0944 4.78438 6.09928C4.76218 6.10381 4.72969 6.10284 4.7271 6.11857C4.72461 6.13403 4.73309 6.15526 4.72801 6.16623C4.72288 6.17733 4.71181 6.18466 4.71181 6.18466C4.71181 6.18466 4.69904 6.17259 4.68792 6.17172C4.67682 6.17076 4.66655 6.17733 4.66655 6.17733C4.66655 6.17733 4.65715 6.16343 4.66053 6.1543C4.66402 6.14513 4.68102 6.13137 4.67682 6.12577C4.67254 6.12027 4.65886 6.1277 4.65034 6.13223C4.64186 6.13687 4.62387 6.14136 4.62557 6.12577C4.62727 6.11014 4.63156 6.10101 4.62727 6.08991C4.62302 6.07905 4.62557 6.07161 4.63247 6.06881C4.63925 6.06625 4.66655 6.06964 4.66913 6.06259C4.67163 6.05515 4.66235 6.04599 4.64436 6.04136C4.62645 6.03686 4.61788 6.02479 4.62727 6.01466C4.63667 6.00453 4.63925 6.00186 4.64351 5.9926C4.64776 5.98333 4.64943 5.96683 4.66573 5.97513C4.68181 5.98333 4.6784 6.00356 4.69564 6.01002C4.71251 6.0166 4.7527 6.00733 4.76115 6.00186C4.76979 5.99623 4.79705 5.9733 4.80645 5.9677C4.81587 5.96234 4.85502 5.92917 4.85502 5.92917C4.85502 5.92917 4.83204 5.91098 4.82344 5.90161C4.81496 5.89245 4.79967 5.87049 4.7921 5.86586C4.78438 5.86112 4.7468 5.84476 4.73401 5.84379C4.72121 5.84283 4.68193 5.82733 4.68193 5.82733C4.68193 5.82733 4.69984 5.82076 4.70582 5.81527C4.71181 5.80977 4.72528 5.79587 4.7323 5.79683C4.73899 5.79784 4.74066 5.79784 4.74066 5.79784C4.74066 5.79784 4.70412 5.79586 4.6964 5.79331C4.68874 5.79037 4.66655 5.77477 4.65807 5.77477C4.64943 5.77477 4.63247 5.77854 4.63247 5.77854C4.63247 5.77854 4.65545 5.76198 4.67424 5.75831C4.69303 5.75478 4.70753 5.75551 4.70753 5.75551C4.70753 5.75551 4.67856 5.74635 4.67163 5.73538C4.66485 5.72428 4.65807 5.70793 4.65284 5.70049C4.64776 5.69319 4.64436 5.68113 4.63496 5.68026C4.62557 5.67929 4.60934 5.69319 4.59997 5.69219C4.5907 5.69136 4.58377 5.68476 4.58286 5.66926C4.58222 5.65356 4.58286 5.65903 4.57961 5.65087C4.5762 5.64246 4.56252 5.62317 4.57529 5.61867C4.58821 5.61404 4.61548 5.62137 4.61797 5.61587C4.62059 5.61037 4.6035 5.59381 4.5924 5.58734C4.58131 5.58098 4.5634 5.56988 4.5728 5.56075C4.58222 5.55159 4.59155 5.54795 4.59669 5.53966C4.6018 5.53136 4.60779 5.50843 4.61888 5.51573C4.62998 5.52306 4.64533 5.55902 4.65387 5.55622C4.66248 5.55342 4.66311 5.52769 4.66156 5.51673C4.65986 5.50563 4.66156 5.48637 4.66995 5.48816C4.67856 5.49 4.68534 5.50283 4.69905 5.5039C4.7126 5.50476 4.73309 5.50027 4.73139 5.51109C4.72969 5.52209 4.72197 5.53575 4.7126 5.54782C4.70345 5.55988 4.69914 5.58368 4.70503 5.59927C4.71099 5.61501 4.72644 5.63991 4.74002 5.6499C4.75358 5.66 4.77918 5.66747 4.79547 5.67929C4.81165 5.69136 4.84925 5.72525 4.86205 5.72892C4.87481 5.73269 4.88761 5.74002 4.88761 5.74002C4.88761 5.74002 4.90208 5.73269 4.92181 5.73269C4.94139 5.73269 4.98656 5.73635 5.00365 5.72805C5.02073 5.71965 5.04292 5.70599 5.03611 5.68842C5.02937 5.6711 4.99176 5.65536 4.99517 5.6417C4.99857 5.62794 5.01225 5.62697 5.0352 5.626C5.05821 5.62514 5.0898 5.63064 5.0957 5.59381C5.10169 5.55708 5.10339 5.53585 5.07113 5.52769C5.03864 5.51939 5.01471 5.51856 5.00888 5.49183C5.00283 5.46524 4.99687 5.45881 5.00365 5.45134C5.01058 5.44414 5.02243 5.44037 5.04633 5.43868C5.07022 5.43671 5.09749 5.43671 5.10521 5.43014C5.1129 5.42391 5.11448 5.40635 5.12388 5.39891C5.13324 5.39172 5.17005 5.38511 5.17005 5.38511C5.17005 5.38511 5.21389 5.40953 5.25462 5.4439C5.29107 5.47489 5.32403 5.52064 5.32403 5.52064C5.32403 5.52001 5.32416 5.54477 5.32628 5.56842Z" fill="#D85AAE"/>
<path d="M5.32628 5.56842C5.32832 5.59111 5.31983 5.61099 5.32312 5.62355C5.32628 5.63624 5.32786 5.64623 5.33218 5.65536C5.33625 5.66452 5.3385 5.68769 5.3385 5.68769C5.3385 5.68769 5.32686 5.67829 5.31607 5.66916C5.30546 5.65989 5.29783 5.65415 5.29783 5.65415C5.29783 5.65415 5.30002 5.67891 5.30102 5.68953C5.30217 5.70014 5.30762 5.72013 5.31643 5.73196C5.32516 5.74354 5.3426 5.76256 5.34799 5.77781C5.35358 5.7932 5.35245 5.82709 5.35245 5.82709C5.35245 5.82709 5.33829 5.80136 5.32613 5.79673C5.31418 5.79195 5.28792 5.77539 5.28792 5.77539C5.28792 5.77539 5.31199 5.80257 5.31199 5.82844C5.31199 5.85427 5.30217 5.88366 5.30217 5.88366C5.30217 5.88366 5.29129 5.86025 5.27716 5.8449C5.2629 5.82965 5.2432 5.81429 5.2432 5.81429C5.2432 5.81429 5.25858 5.85427 5.25858 5.88124C5.25858 5.90842 5.25429 5.9661 5.25429 5.9661C5.25429 5.9661 5.24229 5.9438 5.23028 5.93294C5.21818 5.92246 5.20404 5.91306 5.19961 5.90611C5.19532 5.89905 5.21389 5.92831 5.2159 5.94598C5.21803 5.96368 5.22542 6.02672 5.27387 6.10723C5.30217 6.15429 5.34598 6.2366 5.43982 6.20952C5.53379 6.18258 5.49892 6.03893 5.47922 5.97184C5.45952 5.9049 5.44967 5.83062 5.45083 5.80465C5.45183 5.77892 5.46825 5.70246 5.46609 5.68818C5.46393 5.67417 5.45882 5.61953 5.4705 5.57551C5.4825 5.52966 5.49247 5.51185 5.49892 5.49293C5.50533 5.47416 5.51077 5.46354 5.51296 5.44708C5.51512 5.43062 5.51512 5.39988 5.51512 5.39988C5.51512 5.39988 5.53254 5.43646 5.53695 5.4494C5.54126 5.46243 5.54126 5.50109 5.54126 5.50109C5.54126 5.50109 5.54452 5.46243 5.57081 5.44366C5.59708 5.42464 5.62763 5.40475 5.63529 5.39414C5.64292 5.38342 5.64517 5.37646 5.64517 5.37646C5.64517 5.37646 5.64292 5.44245 5.62659 5.46842C5.61574 5.48526 5.57297 5.54014 5.57297 5.54014C5.57297 5.54014 5.59492 5.53063 5.61018 5.52966C5.62547 5.52831 5.63635 5.52966 5.63635 5.52966C5.63635 5.52966 5.61778 5.54612 5.59376 5.58609C5.56978 5.626 5.57954 5.62953 5.56209 5.66245C5.54452 5.69537 5.53038 5.69658 5.50852 5.7166C5.47569 5.74658 5.49339 5.86585 5.49767 5.88356C5.50208 5.90113 5.5588 6.0472 5.55993 6.08247C5.56093 6.11781 5.5665 6.19662 5.51181 6.24721C5.4766 6.28003 5.419 6.28027 5.40587 6.28964C5.3927 6.29891 5.36668 6.3283 5.36668 6.38955C5.36668 6.45089 5.38617 6.46016 5.40146 6.47552C5.41684 6.49087 5.43645 6.4826 5.44082 6.49443C5.44526 6.50612 5.44739 6.51321 5.45399 6.52026C5.46055 6.52721 5.46496 6.53551 5.46271 6.54831C5.46055 6.56138 5.43541 6.59077 5.42669 6.61211C5.41787 6.63307 5.40042 6.68857 5.40042 6.69673C5.40042 6.70503 5.39839 6.73089 5.40587 6.74393C5.40587 6.74393 5.43316 6.78017 5.41456 6.78723C5.40258 6.79186 5.39082 6.77869 5.38516 6.78017C5.36884 6.78505 5.36033 6.79649 5.35562 6.79553C5.34473 6.79321 5.34473 6.78712 5.34361 6.76966C5.3426 6.75209 5.34315 6.7449 5.33829 6.7449C5.33172 6.7449 5.32841 6.75102 5.32731 6.76029C5.32613 6.76966 5.32613 6.79075 5.31859 6.79075C5.3109 6.79075 5.30001 6.7755 5.29345 6.77212C5.28688 6.76855 5.26834 6.76503 5.26727 6.75565C5.26618 6.74625 5.27819 6.72626 5.29017 6.7227C5.30217 6.71917 5.31315 6.71222 5.30546 6.70517C5.29777 6.69808 5.29017 6.69808 5.2826 6.70517C5.2749 6.71222 5.25858 6.70624 5.25961 6.69566C5.26074 6.68504 5.2629 6.67221 5.26174 6.66626C5.26074 6.66052 5.24761 6.6487 5.26494 6.63794C5.28248 6.62746 5.29004 6.64749 5.30749 6.64392C5.32503 6.64053 5.33376 6.6332 5.34033 6.62162C5.34689 6.6099 5.34574 6.58514 5.33376 6.56992C5.32175 6.55453 5.30977 6.55211 5.30534 6.54271C5.30093 6.53333 5.29448 6.511 5.29448 6.511C5.29448 6.511 5.29764 6.55211 5.29549 6.55809C5.29336 6.56394 5.29448 6.58856 5.29448 6.58856C5.29448 6.58856 5.28248 6.57331 5.27263 6.56162C5.2629 6.54979 5.25305 6.51456 5.25305 6.51456C5.25305 6.51456 5.25201 6.54748 5.25201 6.56051C5.25201 6.57331 5.26503 6.58514 5.26074 6.58991C5.25633 6.59454 5.23563 6.56515 5.23019 6.56051C5.22462 6.55578 5.20721 6.54053 5.19951 6.52393C5.19191 6.50747 5.18635 6.48406 5.18422 6.47565C5.18203 6.46746 5.17845 6.43077 5.18203 6.4215C5.18748 6.40746 5.19623 6.3827 5.19623 6.3827H5.15364C5.13078 6.3827 5.11437 6.37454 5.10564 6.39211C5.09695 6.40978 5.10123 6.44515 5.11212 6.49101C5.12309 6.53672 5.12953 6.55917 5.12637 6.56747C5.12318 6.57563 5.10895 6.59454 5.10351 6.59797C5.09795 6.60163 5.08266 6.60039 5.07609 6.597C5.06965 6.59344 5.0588 6.58745 5.03794 6.58745C5.01724 6.58745 5.00411 6.58856 4.99654 6.58649C4.98885 6.58406 4.97027 6.57345 4.96143 6.57577C4.9527 6.57819 4.93762 6.58697 4.94173 6.60053C4.94842 6.62173 4.93528 6.6265 4.92647 6.62529C4.91774 6.62404 4.91026 6.62051 4.89917 6.61709C4.88832 6.61346 4.87187 6.61709 4.87406 6.60284C4.87619 6.5887 4.88062 6.58759 4.88604 6.57712C4.89157 6.56636 4.89361 6.55955 4.88746 6.55882C4.8798 6.55796 4.87211 6.55699 4.86612 6.56259C4.86035 6.56809 4.85095 6.57992 4.84323 6.57552C4.83551 6.57089 4.82955 6.56076 4.82955 6.53856C4.82955 6.5165 4.80903 6.49723 4.82785 6.4982C4.84664 6.49917 4.87053 6.5148 4.87482 6.50284C4.87901 6.49077 4.87643 6.48541 4.86624 6.476C4.856 6.46687 4.84323 6.46137 4.85691 6.44941C4.87053 6.43758 4.87393 6.43758 4.87913 6.43101C4.88424 6.42465 4.89157 6.40393 4.90111 6.40905C4.91987 6.41918 4.90199 6.43392 4.92078 6.45771C4.9396 6.4816 4.95148 6.49004 4.98307 6.48624C5.01462 6.48261 5.02326 6.47797 5.02326 6.46784C5.02326 6.45771 5.02061 6.43941 5.0197 6.43198C5.01894 6.42465 5.02405 6.39795 5.02405 6.39795C5.02405 6.39795 5.00955 6.40819 5.00526 6.41818C5.00116 6.42831 4.99255 6.44564 4.99255 6.44564C4.99255 6.44564 4.98906 6.42503 4.99006 6.40819C4.99064 6.39833 4.99371 6.38111 4.99337 6.37772C4.99255 6.36856 4.98656 6.34553 4.98656 6.34553C4.98656 6.34553 4.98143 6.37039 4.97808 6.37772C4.97468 6.38502 4.97297 6.41455 4.97297 6.41455C4.97297 6.41455 4.95294 6.39467 4.9585 6.36126C4.96267 6.3355 4.95507 6.30151 4.96188 6.29041C4.96857 6.2793 4.98474 6.23428 5.02404 6.23234C5.06332 6.23065 5.09399 6.23428 5.1077 6.23345C5.12135 6.23234 5.16996 6.22235 5.16996 6.22235C5.16996 6.22235 5.08038 6.17003 5.05992 6.1543C5.03943 6.1388 5.00784 6.09831 4.99754 6.07991C4.98732 6.06148 4.97796 6.02576 4.97796 6.02576C4.97796 6.02576 4.96188 6.02659 4.94729 6.03575C4.93279 6.04478 4.91832 6.05882 4.9098 6.06964C4.90117 6.08074 4.88761 6.10564 4.88761 6.10564C4.88761 6.10564 4.89011 6.07345 4.89011 6.06331C4.89011 6.05342 4.8884 6.03382 4.8884 6.03382C4.8884 6.03382 4.87822 6.07794 4.85773 6.0944C4.83724 6.1111 4.81335 6.13403 4.81335 6.13403C4.81335 6.13403 4.81596 6.10941 4.81596 6.10381C4.81596 6.09831 4.82107 6.06978 4.82107 6.06978C4.82107 6.06978 4.80657 6.0944 4.78438 6.09928C4.76218 6.10381 4.72969 6.10284 4.7271 6.11857C4.72461 6.13403 4.73309 6.15526 4.72801 6.16623C4.72288 6.17733 4.71181 6.18466 4.71181 6.18466C4.71181 6.18466 4.69904 6.17259 4.68792 6.17172C4.67682 6.17076 4.66655 6.17733 4.66655 6.17733C4.66655 6.17733 4.65715 6.16343 4.66053 6.1543C4.66402 6.14513 4.68102 6.13137 4.67682 6.12577C4.67254 6.12027 4.65886 6.1277 4.65034 6.13223C4.64186 6.13687 4.62387 6.14136 4.62557 6.12577C4.62727 6.11014 4.63156 6.10101 4.62727 6.08991C4.62302 6.07905 4.62557 6.07161 4.63247 6.06881C4.63925 6.06625 4.66655 6.06964 4.66913 6.06259C4.67163 6.05515 4.66235 6.04599 4.64436 6.04136C4.62645 6.03686 4.61788 6.02479 4.62727 6.01466C4.63667 6.00453 4.63925 6.00186 4.64351 5.9926C4.64776 5.98333 4.64943 5.96683 4.66573 5.97513C4.68181 5.98333 4.6784 6.00356 4.69564 6.01002C4.71251 6.0166 4.7527 6.00733 4.76115 6.00186C4.76979 5.99623 4.79705 5.9733 4.80645 5.9677C4.81587 5.96234 4.85502 5.92917 4.85502 5.92917C4.85502 5.92917 4.83204 5.91099 4.82344 5.90161C4.81496 5.89245 4.79967 5.87049 4.7921 5.86586C4.78438 5.86112 4.7468 5.84476 4.73401 5.84379C4.72121 5.84283 4.68193 5.82733 4.68193 5.82733C4.68193 5.82733 4.69984 5.82076 4.70582 5.81527C4.71181 5.80977 4.72528 5.79587 4.7323 5.79683C4.73899 5.79784 4.74066 5.79784 4.74066 5.79784C4.74066 5.79784 4.70412 5.79587 4.6964 5.79331C4.68874 5.79037 4.66655 5.77477 4.65807 5.77477C4.64943 5.77477 4.63247 5.77854 4.63247 5.77854C4.63247 5.77854 4.65545 5.76198 4.67424 5.75831C4.69303 5.75478 4.70753 5.75551 4.70753 5.75551C4.70753 5.75551 4.67856 5.74635 4.67163 5.73538C4.66485 5.72428 4.65807 5.70793 4.65284 5.70049C4.64776 5.69319 4.64436 5.68113 4.63496 5.68026C4.62557 5.67929 4.60934 5.69319 4.59997 5.69219C4.5907 5.69136 4.58377 5.68476 4.58286 5.66926C4.58222 5.65356 4.58286 5.65903 4.57961 5.65087C4.5762 5.64246 4.56252 5.62317 4.57529 5.61867C4.58821 5.61404 4.61548 5.62137 4.61797 5.61587C4.62059 5.61037 4.6035 5.59381 4.5924 5.58734C4.58131 5.58098 4.5634 5.56988 4.5728 5.56075C4.58222 5.55159 4.59155 5.54795 4.59669 5.53966C4.6018 5.53136 4.60779 5.50843 4.61888 5.51573C4.62998 5.52306 4.64533 5.55902 4.65387 5.55622C4.66248 5.55342 4.66311 5.52769 4.66156 5.51673C4.65986 5.50563 4.66156 5.48637 4.66995 5.48816C4.67856 5.49 4.68534 5.50283 4.69905 5.5039C4.7126 5.50476 4.73309 5.50027 4.73139 5.51109C4.72969 5.52209 4.72197 5.53575 4.7126 5.54782C4.70345 5.55988 4.69914 5.58368 4.70503 5.59927C4.71099 5.61501 4.72644 5.63991 4.74002 5.6499C4.75358 5.66 4.77918 5.66747 4.79547 5.67929C4.81165 5.69136 4.84925 5.72525 4.86205 5.72892C4.87481 5.73269 4.88761 5.74002 4.88761 5.74002C4.88761 5.74002 4.90208 5.73269 4.92181 5.73269C4.94139 5.73269 4.98656 5.73635 5.00365 5.72805C5.02073 5.71965 5.04292 5.70599 5.03611 5.68842C5.02937 5.6711 4.99176 5.65536 4.99517 5.6417C4.99857 5.62794 5.01225 5.62697 5.0352 5.626C5.05821 5.62514 5.0898 5.63064 5.0957 5.59381C5.10169 5.55708 5.10339 5.53585 5.07113 5.52769C5.03864 5.51939 5.01471 5.51856 5.00888 5.49183C5.00283 5.46524 4.99687 5.45881 5.00365 5.45134C5.01058 5.44414 5.02243 5.44037 5.04633 5.43868C5.07022 5.43671 5.09749 5.43671 5.10521 5.43014C5.1129 5.42391 5.11448 5.40635 5.12388 5.39891C5.13324 5.39172 5.17005 5.38511 5.17005 5.38511C5.17005 5.38511 5.21389 5.40953 5.25462 5.4439C5.29107 5.47489 5.32403 5.52064 5.32403 5.52064C5.32403 5.52001 5.32416 5.54477 5.32628 5.56842V5.56842Z" stroke="#262626" stroke-width="0.1"/>
<path d="M5.26542 5.37192L5.25612 5.37257C5.2557 5.37365 5.25152 5.37997 5.24757 5.38345C5.23934 5.39094 5.22694 5.3918 5.21994 5.38551C5.21654 5.38225 5.21486 5.37769 5.21547 5.373C5.21003 5.37562 5.20436 5.37562 5.19905 5.37279C5.19073 5.36822 5.18865 5.35734 5.19471 5.34831C5.19568 5.34659 5.19666 5.34431 5.19811 5.34301L5.1975 5.33312L5.18626 5.33561L5.18302 5.34147C5.17602 5.34899 5.16566 5.35093 5.16048 5.34649C5.15795 5.34443 5.1561 5.33867 5.15627 5.33845C5.15637 5.33867 5.15358 5.34104 5.15069 5.34169C5.13346 5.34572 5.1266 5.30963 5.12621 5.30029L5.12054 5.30791C5.12054 5.30791 5.12562 5.32951 5.12307 5.34779C5.12054 5.36604 5.11377 5.38431 5.11377 5.38431C5.1378 5.39017 5.17375 5.40875 5.20942 5.43495C5.24514 5.46094 5.27322 5.4892 5.28482 5.50899C5.28482 5.50899 5.30328 5.49919 5.32268 5.49333C5.34189 5.48735 5.36634 5.48723 5.36634 5.48723L5.37331 5.48072C5.36307 5.48214 5.32245 5.48377 5.32326 5.46756C5.32343 5.46497 5.32547 5.46214 5.32582 5.46214C5.32559 5.46235 5.31909 5.4618 5.31617 5.46007C5.31028 5.45637 5.31041 5.44691 5.31692 5.43908L5.32258 5.43517L5.32294 5.42475L5.31206 5.42617C5.31109 5.42746 5.30859 5.42897 5.30713 5.4303C5.29858 5.43736 5.28627 5.43788 5.2795 5.43125C5.27542 5.42746 5.27416 5.42235 5.27591 5.41701C5.27095 5.41843 5.26577 5.418 5.2614 5.4156C5.25311 5.41082 5.25152 5.39963 5.25793 5.39094C5.26091 5.38669 5.26684 5.38169 5.26788 5.38117L5.26564 5.37202L5.26541 5.37192L5.26542 5.37192Z" fill="#DEAD00"/>
<path d="M5.26542 5.37192L5.25612 5.37257C5.2557 5.37365 5.25152 5.37997 5.24757 5.38345C5.23934 5.39094 5.22694 5.3918 5.21994 5.38551C5.21654 5.38225 5.21486 5.37769 5.21547 5.373C5.21003 5.37562 5.20436 5.37562 5.19905 5.37279C5.19073 5.36822 5.18865 5.35734 5.19471 5.34831C5.19568 5.34659 5.19666 5.34431 5.19811 5.34301L5.1975 5.33312L5.18626 5.33561L5.18302 5.34147C5.17602 5.34899 5.16566 5.35093 5.16048 5.34649C5.15795 5.34443 5.1561 5.33867 5.15627 5.33845C5.15637 5.33867 5.15358 5.34104 5.15069 5.34169C5.13346 5.34572 5.1266 5.30963 5.12621 5.30029L5.12054 5.30791C5.12054 5.30791 5.12562 5.32951 5.12307 5.34779C5.12054 5.36604 5.11377 5.38431 5.11377 5.38431C5.1378 5.39017 5.17375 5.40875 5.20942 5.43495C5.24514 5.46094 5.27322 5.4892 5.28482 5.50899C5.28482 5.50899 5.30328 5.49919 5.32268 5.49333C5.34189 5.48735 5.36634 5.48723 5.36634 5.48723L5.37331 5.48072C5.36307 5.48214 5.32245 5.48377 5.32326 5.46756C5.32343 5.46497 5.32547 5.46214 5.32582 5.46214C5.32559 5.46235 5.31909 5.4618 5.31617 5.46007C5.31028 5.45637 5.31041 5.44691 5.31692 5.43908L5.32258 5.43517L5.32294 5.42475L5.31206 5.42617C5.31109 5.42746 5.30859 5.42897 5.30713 5.4303C5.29858 5.43736 5.28627 5.43788 5.2795 5.43125C5.27542 5.42746 5.27416 5.42235 5.27591 5.41701C5.27095 5.41843 5.26577 5.418 5.2614 5.4156C5.25311 5.41082 5.25152 5.39963 5.25793 5.39094C5.26091 5.38669 5.26684 5.38169 5.26788 5.38117L5.26564 5.37202L5.26541 5.37192L5.26542 5.37192Z" stroke="#262626" stroke-width="0.1"/>
<path d="M4.40567 8.98005C4.40567 8.98005 4.27521 8.90848 4.24641 8.90231C4.17506 8.88696 4.09488 8.89939 4.06018 8.89753C4.06116 8.89856 4.10179 8.92808 4.11961 8.94635C4.13746 8.96452 4.19692 9.00082 4.23051 9.00939C4.30244 9.02778 4.40567 9.00961 4.40567 9.00961L4.3935 9.10567L4.43033 9.08649V8.99092C4.49126 8.94635 4.62512 9.04142 4.80693 8.91176C4.53884 8.85764 4.46223 8.974 4.42569 8.9806L4.4238 8.9375H4.3997L4.40567 8.98005Z" fill="#058E6E"/>
<path d="M4.40567 8.98005C4.40567 8.98005 4.27521 8.90848 4.24641 8.90231C4.17506 8.88696 4.09488 8.89939 4.06018 8.89753C4.06116 8.89856 4.10179 8.92808 4.11961 8.94635C4.13746 8.96452 4.19692 9.00082 4.23051 9.00939C4.30244 9.02778 4.40567 9.00961 4.40567 9.00961L4.3935 9.10567L4.43033 9.08649V8.99092C4.49126 8.94635 4.62512 9.04142 4.80693 8.91176C4.53884 8.85764 4.46223 8.974 4.42569 8.9806L4.4238 8.9375H4.3997L4.40567 8.98005Z" stroke="#262626" stroke-width="0.1"/>
<path d="M4.486 8.66616C4.55116 8.687 4.58418 8.73861 4.58418 8.79903C4.58418 8.87771 4.5124 8.93743 4.41921 8.93743C4.32606 8.93743 4.25049 8.87771 4.25049 8.79903C4.25049 8.73955 4.28156 8.6731 4.34634 8.6683C4.34634 8.6683 4.34437 8.66206 4.33879 8.65183C4.33208 8.64419 4.31881 8.62996 4.31881 8.62996C4.31881 8.62996 4.34355 8.62502 4.35782 8.63079C4.37218 8.63656 4.38162 8.64619 4.38162 8.64619C4.38162 8.64619 4.38839 8.63209 4.39786 8.62115C4.40742 8.61032 4.41981 8.60352 4.41981 8.60352C4.41981 8.60352 4.43414 8.61632 4.43884 8.62489C4.44352 8.63372 4.44656 8.64419 4.44656 8.64419C4.44656 8.64419 4.45973 8.63266 4.47117 8.62795C4.48259 8.62315 4.49732 8.61939 4.49732 8.61939C4.49732 8.61939 4.49312 8.63456 4.49033 8.64229C4.48751 8.64996 4.486 8.66616 4.486 8.66616" fill="#F6CB7E"/>
<path d="M4.486 8.66616C4.55116 8.687 4.58418 8.73861 4.58418 8.79903C4.58418 8.87771 4.5124 8.93743 4.41921 8.93743C4.32606 8.93743 4.25049 8.87771 4.25049 8.79903C4.25049 8.73955 4.28156 8.6731 4.34634 8.6683C4.34634 8.6683 4.34437 8.66206 4.33879 8.65183C4.33208 8.64419 4.31881 8.62996 4.31881 8.62996C4.31881 8.62996 4.34355 8.62502 4.35782 8.63079C4.37218 8.63656 4.38162 8.64619 4.38162 8.64619C4.38162 8.64619 4.38839 8.63209 4.39786 8.62115C4.40742 8.61032 4.41981 8.60352 4.41981 8.60352C4.41981 8.60352 4.43414 8.61632 4.43884 8.62489C4.44352 8.63372 4.44656 8.64419 4.44656 8.64419C4.44656 8.64419 4.45973 8.63266 4.47117 8.62795C4.48259 8.62315 4.49732 8.61939 4.49732 8.61939C4.49732 8.61939 4.49312 8.63456 4.49033 8.64229C4.48751 8.64996 4.486 8.66616 4.486 8.66616" stroke="#262626" stroke-width="0.1"/>
<path d="M2.87061 6.99079H4.39075V5.0708H2.87061V6.99079Z" fill="#CA4638"/>
<path d="M2.87061 6.99079H4.39075V5.0708H2.87061V6.99079Z" stroke="#262626" stroke-width="0.1"/>
<path d="M3.63245 8.94429C3.21166 8.94429 2.87061 8.57831 2.87061 8.1268V5.0708H4.39075V6.96726H5.91273V8.1268C5.91273 8.1268 5.91273 8.94429 5.15925 8.94429C4.40576 8.94429 4.39075 8.1268 4.39075 8.1268C4.39075 8.57831 4.05308 8.94429 3.63245 8.94429Z" fill="#F1453D"/>
<path d="M3.63245 8.94429C3.21166 8.94429 2.87061 8.57831 2.87061 8.1268V5.0708H4.39075V6.96726H5.91273V8.1268C5.91273 8.1268 5.91273 8.94429 5.15925 8.94429C4.40576 8.94429 4.39075 8.1268 4.39075 8.1268C4.39075 8.57831 4.05308 8.94429 3.63245 8.94429V8.94429Z" stroke="#262626" stroke-width="0.1"/>
<path d="M3.2691 5.70342V6.20585L3.14258 6.20629V6.47557L4.03242 6.47407V6.20478L3.91004 6.20425V5.70193L3.98916 5.70174V5.45358L3.88177 5.45322L3.85492 5.47949L3.85633 5.59384L3.77861 5.59339L3.77529 5.47768L3.74985 5.45358L3.66615 5.45367L3.64437 5.47949L3.64313 5.59766L3.55792 5.5973L3.55817 5.47794L3.52941 5.45312L3.44512 5.45322L3.4201 5.4725L3.42077 5.59693L3.33845 5.59667L3.3372 5.47613L3.3082 5.45413L3.21055 5.45477V5.70356V5.70355L3.2691 5.70342ZM3.3465 5.89123V5.7521C3.3465 5.71416 3.36672 5.68254 3.40211 5.68254C3.43751 5.68254 3.45773 5.71416 3.45773 5.7521V5.89123H3.3465ZM3.75434 5.89123V5.7521C3.75434 5.71416 3.77457 5.68254 3.80996 5.68254C3.84535 5.68254 3.86557 5.71416 3.86557 5.7521V5.89123H3.75434ZM3.74198 6.35706V6.19123C3.74198 6.15965 3.72932 6.06489 3.60905 6.06489C3.49511 6.06489 3.48245 6.15965 3.48245 6.19123V6.35706H3.74198Z" fill="#DEAD00"/>
<path d="M3.2691 5.70342V6.20585L3.14258 6.20629V6.47557L4.03242 6.47407V6.20478L3.91004 6.20425V5.70193L3.98916 5.70174V5.45358L3.88177 5.45322L3.85492 5.47949L3.85633 5.59384L3.77861 5.59339L3.77529 5.47768L3.74985 5.45358L3.66615 5.45367L3.64437 5.47949L3.64313 5.59766L3.55792 5.5973L3.55817 5.47794L3.52941 5.45312L3.44512 5.45322L3.4201 5.4725L3.42077 5.59693L3.33845 5.59667L3.3372 5.47613L3.3082 5.45413L3.21055 5.45477V5.70356V5.70355L3.2691 5.70342ZM3.3465 5.89123V5.7521C3.3465 5.71416 3.36672 5.68254 3.40211 5.68254C3.43751 5.68254 3.45773 5.71416 3.45773 5.7521V5.89123H3.3465ZM3.75434 5.89123V5.7521C3.75434 5.71416 3.77457 5.68254 3.80996 5.68254C3.84535 5.68254 3.86557 5.71416 3.86557 5.7521V5.89123H3.75434ZM3.74198 6.35706V6.19123C3.74198 6.15965 3.72932 6.06489 3.60905 6.06489C3.49511 6.06489 3.48245 6.15965 3.48245 6.19123V6.35706H3.74198Z" stroke="#262626" stroke-width="0.1"/>
<path fill-rule="evenodd" clip-rule="evenodd" d="M4.68039 7.81299C4.68297 7.81916 4.68443 7.82537 4.68443 7.83195C4.68443 7.85425 4.6676 7.87205 4.64662 7.87205C4.62579 7.87205 4.60887 7.85425 4.60887 7.83195C4.60887 7.82537 4.61033 7.81916 4.61297 7.81375L4.56022 7.81299C4.55912 7.81905 4.55847 7.82537 4.55847 7.83195C4.55847 7.87398 4.5843 7.90961 4.61995 7.9216L4.61988 8.06736L4.67522 8.06773L4.67532 7.92094C4.70102 7.91153 4.72123 7.88985 4.73008 7.86224H4.8787V7.81299H4.68039ZM5.40944 7.81299V7.86224L5.2758 7.86264C5.27374 7.86922 5.27041 7.87528 5.26722 7.88106L5.42242 8.07946L5.38077 8.11738L5.22631 7.91876C5.22347 7.91978 5.22205 7.92105 5.21904 7.92196L5.21866 8.25021H5.16396L5.16383 7.92054C5.16151 7.91992 5.15957 7.91862 5.15741 7.91745L4.99661 8.11738L4.95496 8.07946L5.11566 7.87877C5.11285 7.87372 5.11082 7.8682 5.10897 7.86224H4.97085V7.81299H5.40957H5.40944ZM5.49846 7.81299V7.86224H5.64721C5.65606 7.88985 5.67604 7.91153 5.70194 7.92094L5.70203 8.06773L5.75728 8.06736L5.75715 7.9216C5.79286 7.90961 5.81879 7.87398 5.81879 7.83195C5.81879 7.82537 5.81817 7.81905 5.81682 7.81299H5.76428C5.76683 7.81916 5.76816 7.82537 5.76816 7.83195C5.76816 7.85425 5.75147 7.87205 5.73051 7.87205C5.70972 7.87205 5.69273 7.85425 5.69273 7.83195C5.69273 7.82537 5.69419 7.81916 5.69687 7.81375L5.49846 7.81299ZM5.27384 8.64992C5.3172 8.64222 5.35717 8.62878 5.39663 8.61011L5.42375 8.66209C5.37835 8.68399 5.32943 8.69975 5.27845 8.70836C5.26996 8.75079 5.23477 8.78264 5.19241 8.78264C5.15014 8.78264 5.11488 8.75119 5.10617 8.70905C5.05231 8.70077 5.00123 8.68515 4.95341 8.66209L4.98066 8.61011C5.02219 8.62983 5.06648 8.64298 5.11246 8.65017C5.12218 8.62649 5.13997 8.60818 5.16335 8.59965L5.16383 8.34516H5.2184L5.21891 8.59874C5.24313 8.60688 5.26357 8.62544 5.27374 8.64992H5.27384ZM4.90275 8.56456L4.87583 8.61679C4.82966 8.58454 4.78852 8.54473 4.7532 8.50005C4.72511 8.50935 4.69337 8.50383 4.66941 8.48189C4.63235 8.44807 4.62786 8.38875 4.6596 8.34941L4.66421 8.34389C4.64187 8.28712 4.62676 8.2261 4.62159 8.16213L4.67681 8.16238C4.68113 8.21698 4.69324 8.26896 4.7121 8.3177C4.72763 8.31523 4.74422 8.3173 4.75911 8.32352L4.89723 8.15156L4.93885 8.18937L4.8016 8.36104C4.82013 8.39275 4.81939 8.43365 4.79821 8.46485C4.82869 8.50281 4.86369 8.53659 4.90275 8.56456ZM4.69795 8.38425C4.71155 8.36721 4.73538 8.36529 4.75123 8.37971C4.76711 8.39416 4.76905 8.4197 4.75549 8.43648C4.74187 8.45337 4.71807 8.45544 4.70222 8.44099C4.68636 8.42642 4.68443 8.40114 4.69795 8.38425ZM4.62834 8.21422L4.57158 8.19994L4.56357 8.03819L4.61988 8.01727L4.61995 8.11004C4.61995 8.146 4.62279 8.18007 4.62834 8.21422ZM4.67545 8.01368L4.73199 8.02864C4.73199 8.02864 4.73489 8.1326 4.7337 8.10924C4.73221 8.08204 4.73986 8.19054 4.73986 8.19054L4.68284 8.21168C4.67716 8.17866 4.67522 8.14484 4.67522 8.11004L4.67532 8.01368H4.67545ZM4.86185 8.53114C4.90947 8.57295 4.96481 8.60688 5.02461 8.62838L5.0372 8.56688C4.98806 8.54945 4.9425 8.52395 4.90243 8.49079L4.86185 8.53114ZM4.8345 8.58428C4.8828 8.62518 4.93804 8.65795 4.99723 8.68065L4.95496 8.72514C4.9075 8.70542 4.86288 8.67938 4.82194 8.64839L4.8345 8.58428ZM4.90828 8.2278L4.96226 8.25359L5.06103 8.13027L5.02858 8.07779L4.90828 8.2278ZM4.8664 8.18974L4.83401 8.13699L4.93285 8.01368L4.98667 8.03957L4.8664 8.18974ZM5.47447 8.56456L5.50146 8.61679C5.54757 8.58454 5.58877 8.54473 5.62409 8.50005C5.65205 8.50935 5.68392 8.50383 5.70785 8.48189C5.74491 8.44807 5.74917 8.38875 5.71763 8.34941L5.71295 8.34389C5.73535 8.28712 5.7505 8.2261 5.75544 8.16213L5.70052 8.16238C5.69616 8.21698 5.68392 8.26896 5.66513 8.3177C5.64953 8.31523 5.63307 8.3173 5.61805 8.32352L5.48006 8.15156L5.43841 8.18937L5.57556 8.36104C5.55716 8.39275 5.55787 8.43365 5.57895 8.46485C5.54854 8.50281 5.51357 8.53659 5.47447 8.56456ZM5.67917 8.38425C5.66561 8.36721 5.64188 8.36529 5.62606 8.37971C5.61014 8.39416 5.60824 8.4197 5.6218 8.43648C5.63536 8.45337 5.65922 8.45544 5.67507 8.44099C5.69096 8.42642 5.69273 8.40114 5.67917 8.38425ZM5.74882 8.21422L5.80558 8.19994L5.81359 8.03819L5.75741 8.01727L5.75728 8.11004C5.75728 8.146 5.75447 8.18007 5.74882 8.21422ZM5.70184 8.01368L5.6453 8.02864C5.6453 8.02864 5.64224 8.1326 5.6435 8.10924C5.64505 8.08204 5.6373 8.19054 5.6373 8.19054L5.69432 8.21168C5.70003 8.17866 5.70194 8.14484 5.70194 8.11004L5.70184 8.01368ZM5.51538 8.53114C5.46769 8.57295 5.41235 8.60688 5.35268 8.62838L5.34009 8.56688C5.38913 8.54945 5.43476 8.52395 5.47473 8.49079L5.51538 8.53114ZM5.54276 8.58428C5.49429 8.62518 5.43924 8.65795 5.38003 8.68065L5.42229 8.72514C5.46976 8.70542 5.51441 8.67938 5.55535 8.64839L5.54276 8.58428ZM5.46901 8.2278L5.41503 8.25359L5.31623 8.13027L5.34868 8.07779L5.46901 8.2278ZM5.51086 8.18974L5.54324 8.13699L5.44444 8.01368L5.39059 8.03957L5.51086 8.18974ZM4.83466 7.86239L4.85126 7.92298H5.00343L5.01983 7.86239H4.83466ZM5.5455 7.86239L5.52881 7.92298H5.37674L5.36033 7.86239H5.5455ZM5.15463 8.68864C5.15463 8.6663 5.17155 8.64828 5.19241 8.64828C5.2132 8.64828 5.23002 8.6663 5.23002 8.68864C5.23002 8.71083 5.2132 8.72874 5.19241 8.72874C5.17155 8.72874 5.15463 8.71083 5.15463 8.68864ZM5.21866 8.39533L5.27545 8.37742V8.21553L5.21866 8.19798V8.39533ZM5.16361 8.39533L5.10694 8.37742V8.21553L5.16361 8.19798V8.39533Z" fill="#C8B100"/>
<path fill-rule="evenodd" clip-rule="evenodd" d="M4.56018 7.81459C4.5667 7.78085 4.59014 7.75346 4.62036 7.74322L4.61991 7.54337H4.6747L4.6748 7.74431C4.70183 7.75386 4.72262 7.77635 4.73098 7.8053L4.87867 7.80555V7.81459H4.68036C4.67422 7.80232 4.66134 7.79316 4.64658 7.79316C4.63196 7.79316 4.61911 7.80232 4.61294 7.81536L4.56018 7.81459ZM4.97069 7.81459V7.80555H5.10787C5.10942 7.8005 5.11146 7.7956 5.11378 7.79095L4.94453 7.57875L4.98615 7.54075L5.15327 7.7495C5.15614 7.7479 5.15921 7.74649 5.16218 7.74533L5.16234 7.46723H5.21704V7.74362C5.21949 7.74442 5.22321 7.74518 5.22566 7.74598L5.38887 7.5369L5.43082 7.57435L5.26696 7.78256C5.27119 7.78953 5.27406 7.7973 5.27638 7.80555H5.40931V7.81459H4.97056H4.97069ZM5.69683 7.81459C5.70297 7.80232 5.71572 7.79316 5.73048 7.79316C5.74526 7.79316 5.75799 7.80232 5.76425 7.81536L5.81678 7.81459C5.81023 7.78085 5.78701 7.75346 5.75676 7.74322L5.75711 7.54348H5.70248L5.70226 7.74442C5.67539 7.75397 5.65457 7.77635 5.64621 7.8053L5.49843 7.80555V7.81459H5.69683ZM4.68355 7.25013L4.88712 7.5069L4.92881 7.4689L4.7241 7.21315C4.72817 7.20628 4.73108 7.19884 4.73353 7.19077H4.88244V7.13237H4.73344C4.72201 7.09452 4.68862 7.06738 4.64929 7.06738C4.6006 7.06738 4.56102 7.10952 4.56102 7.1615C4.56102 7.20269 4.58578 7.23785 4.62043 7.25053L4.62011 7.44863H4.6748V7.25183C4.67713 7.25107 4.68132 7.25107 4.68355 7.25013ZM5.75773 7.25143L5.75724 7.44863H5.70248V7.25067C5.69829 7.24918 5.69415 7.24726 5.69025 7.24504L5.48777 7.50214L5.44589 7.46465L5.65224 7.20254C5.65056 7.19884 5.64876 7.19495 5.64753 7.19077H5.49781V7.13237H5.64708C5.65857 7.09452 5.69163 7.06738 5.73083 7.06738C5.77949 7.06738 5.81911 7.10952 5.81911 7.1615C5.81911 7.20374 5.79353 7.23937 5.75773 7.25143ZM5.21765 7.25067L5.21717 7.3721H5.16247L5.1626 7.25169C5.13535 7.24261 5.11388 7.21991 5.10494 7.19077H4.9714V7.13237H5.10494C5.11646 7.09452 5.14936 7.06738 5.18859 7.06738C5.22782 7.06738 5.26098 7.09452 5.27251 7.13237H5.4087V7.19077H5.27215C5.26353 7.21885 5.24371 7.24123 5.21765 7.25067ZM4.62059 7.39807L4.56383 7.41605V7.57838L4.62059 7.59596V7.39807ZM4.67567 7.39807L4.73231 7.41605V7.57838L4.67567 7.59596V7.39807ZM5.702 7.39807L5.64537 7.41605V7.57838L5.702 7.59596V7.39807ZM5.75711 7.39807L5.81391 7.41605V7.57838L5.75711 7.59596V7.39807ZM4.89788 7.43011L4.95193 7.40432L5.05073 7.52786L5.01828 7.58056L4.89788 7.43011ZM4.85606 7.46839L4.82374 7.52128L4.92251 7.64467L4.97637 7.6187L4.85606 7.46839ZM5.47637 7.42535L5.42226 7.40003L5.32443 7.52448L5.35723 7.57682L5.47637 7.42535ZM5.51851 7.46324L5.55128 7.51569L5.45348 7.64013L5.3995 7.61467L5.51851 7.46324ZM4.83463 7.80544L4.85122 7.74482H5.00339L5.01979 7.80544H4.83463ZM4.61152 7.16161C4.61152 7.13941 4.62844 7.12129 4.64929 7.12129C4.67009 7.12129 4.68694 7.13941 4.68694 7.16161C4.68694 7.18384 4.67009 7.20178 4.64929 7.20178C4.62844 7.20178 4.61152 7.18384 4.61152 7.16161ZM5.0185 7.19092L5.00181 7.25169H4.84974L4.8333 7.19092H5.0185ZM5.0185 7.13211L5.00181 7.07152H4.84974L4.8333 7.13211H5.0185ZM5.54547 7.80544L5.52878 7.74482H5.3767L5.3603 7.80544H5.54547ZM5.69309 7.16161C5.69309 7.13941 5.70991 7.12129 5.73083 7.12129C5.75169 7.12129 5.76851 7.13941 5.76851 7.16161C5.76851 7.18384 5.75169 7.20178 5.73083 7.20178C5.70991 7.20178 5.69309 7.18384 5.69309 7.16161ZM5.15085 7.16161C5.15085 7.13941 5.1678 7.12129 5.18859 7.12129C5.20945 7.12129 5.22627 7.13941 5.22627 7.16161C5.22627 7.18384 5.20945 7.20178 5.18859 7.20178C5.1678 7.20178 5.15085 7.18384 5.15085 7.16161ZM5.36159 7.19092L5.37832 7.25169H5.53036L5.54682 7.19092H5.36159ZM5.36159 7.13211L5.37832 7.07152H5.53036L5.54682 7.13211H5.36159ZM5.16296 7.32172L5.10629 7.33966V7.50199L5.16296 7.51957V7.32172ZM5.21743 7.32172L5.27406 7.33966V7.50199L5.21743 7.51957V7.32172Z" fill="#C8B100"/>
<path fill-rule="evenodd" clip-rule="evenodd" d="M5.104 7.83303C5.104 7.78094 5.14362 7.73877 5.19241 7.73877C5.24106 7.73877 5.28065 7.78094 5.28065 7.83303C5.28065 7.8849 5.24106 7.92693 5.19241 7.92693C5.14362 7.92693 5.104 7.8849 5.104 7.83303Z" fill="#058E6E"/>
<path d="M3.19011 8.79377C3.23837 8.82184 3.30467 8.86857 3.37549 8.88727L3.371 6.96729H3.19011V8.79377ZM3.71536 8.93887V6.96729H3.52997L3.52997 8.93887C3.60252 8.94682 3.65662 8.94523 3.71536 8.93887ZM3.86984 8.88727C3.94065 8.87169 4.02047 8.8234 4.05523 8.79845V6.96729H3.87437L3.86984 8.88727ZM4.21435 8.63684C4.29153 8.5631 4.36411 8.39518 4.39049 8.20376L4.3951 6.96729H4.20971L4.21435 8.63684ZM3.04952 8.63684C2.97234 8.5631 2.89976 8.39518 2.87338 8.20376L2.86877 6.96729H3.05416L3.04952 8.63684Z" fill="#DEAD00"/>
<path d="M3.19011 8.79377C3.23837 8.82184 3.30467 8.86857 3.37549 8.88727L3.371 6.96729H3.19011V8.79377ZM3.71536 8.93887V6.96729H3.52997L3.52997 8.93887C3.60252 8.94682 3.65662 8.94523 3.71536 8.93887ZM3.86984 8.88727C3.94065 8.87169 4.02047 8.8234 4.05523 8.79845V6.96729H3.87437L3.86984 8.88727ZM4.21435 8.63684C4.29153 8.5631 4.36411 8.39518 4.39049 8.20376L4.3951 6.96729H4.20971L4.21435 8.63684ZM3.04952 8.63684C2.97234 8.5631 2.89976 8.39518 2.87338 8.20376L2.86877 6.96729H3.05416L3.04952 8.63684Z" stroke="#262626" stroke-width="0.1"/>
<path d="M4.37221 6.37061C4.63846 6.37061 4.85425 6.65091 4.85425 6.99669C4.85425 7.34247 4.63846 7.62277 4.37221 7.62277C4.10605 7.62277 3.89026 7.34247 3.89026 6.99669C3.89026 6.65091 4.10605 6.37061 4.37221 6.37061Z" fill="#F1453D"/>
<path d="M4.37221 6.37061C4.63846 6.37061 4.85425 6.65091 4.85425 6.99669C4.85425 7.34247 4.63846 7.62277 4.37221 7.62277C4.10605 7.62277 3.89026 7.34247 3.89026 6.99669C3.89026 6.65091 4.10605 6.37061 4.37221 6.37061V6.37061Z" stroke="#262626" stroke-width="0.1"/>
<path d="M4.3784 6.52393C4.57294 6.52393 4.73058 6.72941 4.73058 6.98293C4.73058 7.23656 4.57294 7.44218 4.3784 7.44218C4.18373 7.44218 4.02612 7.23656 4.02612 6.98293C4.02612 6.72931 4.18373 6.52393 4.3784 6.52393Z" fill="#346DA6"/>
<path d="M4.3784 6.52393C4.57294 6.52393 4.73058 6.72941 4.73058 6.98293C4.73058 7.23656 4.57294 7.44218 4.3784 7.44218C4.18373 7.44218 4.02612 7.23656 4.02612 6.98293C4.02612 6.72931 4.18373 6.52393 4.3784 6.52393V6.52393Z" stroke="#262626" stroke-width="0.1"/>
<path d="M4.22534 6.67676C4.22534 6.67676 4.18458 6.73089 4.18458 6.781C4.18458 6.8314 4.2018 6.87323 4.2018 6.87323C4.19564 6.85334 4.17899 6.83902 4.1594 6.83902C4.13466 6.83902 4.1145 6.86202 4.1145 6.89056C4.1145 6.89884 4.11867 6.91173 4.12181 6.91884L4.13644 6.95462C4.14127 6.94144 4.15267 6.93407 4.16593 6.93407C4.18367 6.93407 4.19811 6.95048 4.19811 6.97092C4.19811 6.974 4.19778 6.97711 4.19712 6.97993L4.16052 6.98008V7.01781H4.19316L4.16886 7.0762L4.20104 7.06096L4.22534 7.09415L4.25054 7.06096L4.28263 7.0762L4.25843 7.01781H4.29106V6.98008L4.25438 6.97993C4.25371 6.97711 4.25359 6.974 4.25359 6.97092C4.25359 6.95048 4.26776 6.93407 4.28553 6.93407C4.2988 6.93407 4.31019 6.94144 4.31511 6.95462L4.32962 6.91884C4.33279 6.91173 4.33696 6.89884 4.33696 6.89056C4.33696 6.86202 4.31693 6.83902 4.29206 6.83902C4.27248 6.83902 4.25595 6.85334 4.24975 6.87323C4.24975 6.87323 4.26686 6.8314 4.26686 6.781C4.26686 6.73089 4.22525 6.67676 4.22525 6.67676H4.22534H4.22534ZM4.56522 6.67676C4.56522 6.67676 4.52448 6.73089 4.52448 6.781C4.52448 6.8314 4.54159 6.87323 4.54159 6.87323C4.53552 6.85334 4.51886 6.83902 4.49928 6.83902C4.47441 6.83902 4.45437 6.86202 4.45437 6.89056C4.45437 6.89884 4.45854 6.91173 4.46169 6.91884L4.47619 6.95462C4.48118 6.94144 4.49254 6.93407 4.50581 6.93407C4.52358 6.93407 4.53787 6.95048 4.53787 6.97092C4.53787 6.974 4.53765 6.97711 4.537 6.97993L4.5004 6.98008V7.01781H4.53304L4.50874 7.0762L4.5408 7.06096L4.56522 7.09415L4.59034 7.06096L4.62252 7.0762L4.59819 7.01781H4.63083V6.98008L4.59427 6.97993C4.59357 6.97711 4.59336 6.974 4.59336 6.97092C4.59336 6.95048 4.60765 6.93407 4.62546 6.93407C4.63872 6.93407 4.65009 6.94144 4.65492 6.95462L4.66955 6.91884C4.67272 6.91173 4.67683 6.89884 4.67683 6.89056C4.67683 6.86202 4.65673 6.83902 4.63195 6.83902C4.6124 6.83902 4.59569 6.85334 4.58955 6.87323C4.58955 6.87323 4.60675 6.8314 4.60675 6.781C4.60675 6.73089 4.56513 6.67676 4.56513 6.67676H4.56523H4.56522ZM4.36123 6.98264C4.36123 6.98264 4.32052 7.03678 4.32052 7.08703C4.32052 7.13729 4.33773 7.17912 4.33773 7.17912C4.33154 7.15923 4.31499 7.14491 4.29533 7.14491C4.27059 7.14491 4.25045 7.16791 4.25045 7.19644C4.25045 7.20483 4.25462 7.21761 4.25776 7.22472L4.27238 7.26051C4.27733 7.24732 4.28856 7.23985 4.30182 7.23985C4.31961 7.23985 4.33402 7.25637 4.33402 7.2768C4.33402 7.28003 4.33368 7.28311 4.33299 7.28596L4.29645 7.28608V7.3238H4.32918L4.30487 7.38219L4.33694 7.36684L4.36123 7.40003L4.38641 7.36684L4.41858 7.38219L4.39418 7.3238H4.42688V7.28608L4.39034 7.28596C4.38967 7.28311 4.38943 7.28003 4.38943 7.2768C4.38943 7.25637 4.40375 7.23985 4.42151 7.23985C4.43474 7.23985 4.446 7.24732 4.45098 7.26051L4.4656 7.22472C4.46871 7.21761 4.47291 7.20483 4.47291 7.19644C4.47291 7.16791 4.45277 7.14491 4.42803 7.14491C4.40846 7.14491 4.39194 7.15923 4.38563 7.17912C4.38563 7.17912 4.40284 7.13729 4.40284 7.08703C4.40284 7.03678 4.36111 6.98264 4.36111 6.98264H4.36123H4.36123Z" fill="#DEAD00"/>
<path d="M4.22534 6.67676C4.22534 6.67676 4.18458 6.73089 4.18458 6.781C4.18458 6.8314 4.2018 6.87323 4.2018 6.87323C4.19564 6.85334 4.17899 6.83902 4.1594 6.83902C4.13466 6.83902 4.1145 6.86202 4.1145 6.89056C4.1145 6.89884 4.11867 6.91173 4.12181 6.91884L4.13644 6.95462C4.14127 6.94144 4.15267 6.93407 4.16593 6.93407C4.18367 6.93407 4.19811 6.95048 4.19811 6.97092C4.19811 6.974 4.19778 6.97711 4.19712 6.97993L4.16052 6.98008V7.01781H4.19316L4.16886 7.0762L4.20104 7.06096L4.22534 7.09415L4.25054 7.06096L4.28263 7.0762L4.25843 7.01781H4.29106V6.98008L4.25438 6.97993C4.25371 6.97711 4.25359 6.974 4.25359 6.97092C4.25359 6.95048 4.26776 6.93407 4.28553 6.93407C4.2988 6.93407 4.31019 6.94144 4.31511 6.95462L4.32962 6.91884C4.33279 6.91173 4.33696 6.89884 4.33696 6.89056C4.33696 6.86202 4.31693 6.83902 4.29206 6.83902C4.27248 6.83902 4.25595 6.85334 4.24975 6.87323C4.24975 6.87323 4.26686 6.8314 4.26686 6.781C4.26686 6.73089 4.22525 6.67676 4.22525 6.67676H4.22534H4.22534ZM4.56522 6.67676C4.56522 6.67676 4.52448 6.73089 4.52448 6.781C4.52448 6.8314 4.54159 6.87323 4.54159 6.87323C4.53552 6.85334 4.51886 6.83902 4.49928 6.83902C4.47441 6.83902 4.45437 6.86202 4.45437 6.89056C4.45437 6.89884 4.45854 6.91173 4.46169 6.91884L4.47619 6.95462C4.48118 6.94144 4.49254 6.93407 4.50581 6.93407C4.52358 6.93407 4.53787 6.95048 4.53787 6.97092C4.53787 6.974 4.53765 6.97711 4.537 6.97993L4.5004 6.98008V7.01781H4.53304L4.50874 7.0762L4.5408 7.06096L4.56522 7.09415L4.59034 7.06096L4.62252 7.0762L4.59819 7.01781H4.63083V6.98008L4.59427 6.97993C4.59357 6.97711 4.59336 6.974 4.59336 6.97092C4.59336 6.95048 4.60765 6.93407 4.62546 6.93407C4.63872 6.93407 4.65009 6.94144 4.65492 6.95462L4.66955 6.91884C4.67272 6.91173 4.67683 6.89884 4.67683 6.89056C4.67683 6.86202 4.65673 6.83902 4.63195 6.83902C4.6124 6.83902 4.59569 6.85334 4.58955 6.87323C4.58955 6.87323 4.60675 6.8314 4.60675 6.781C4.60675 6.73089 4.56513 6.67676 4.56513 6.67676H4.56523H4.56522ZM4.36123 6.98264C4.36123 6.98264 4.32052 7.03678 4.32052 7.08703C4.32052 7.13729 4.33773 7.17912 4.33773 7.17912C4.33154 7.15923 4.31499 7.14491 4.29533 7.14491C4.27059 7.14491 4.25045 7.16791 4.25045 7.19644C4.25045 7.20483 4.25462 7.21761 4.25776 7.22472L4.27238 7.26051C4.27733 7.24732 4.28856 7.23985 4.30182 7.23985C4.31961 7.23985 4.33402 7.25637 4.33402 7.2768C4.33402 7.28003 4.33368 7.28311 4.33299 7.28596L4.29645 7.28608V7.3238H4.32918L4.30487 7.38219L4.33694 7.36684L4.36123 7.40003L4.38641 7.36684L4.41858 7.38219L4.39418 7.3238H4.42688V7.28608L4.39034 7.28596C4.38967 7.28311 4.38943 7.28003 4.38943 7.2768C4.38943 7.25637 4.40375 7.23985 4.42151 7.23985C4.43474 7.23985 4.446 7.24732 4.45098 7.26051L4.4656 7.22472C4.46871 7.21761 4.47291 7.20483 4.47291 7.19644C4.47291 7.16791 4.45277 7.14491 4.42803 7.14491C4.40846 7.14491 4.39194 7.15923 4.38563 7.17912C4.38563 7.17912 4.40284 7.13729 4.40284 7.08703C4.40284 7.03678 4.36111 6.98264 4.36111 6.98264H4.36123H4.36123Z" stroke="#262626" stroke-width="0.1"/>
<path d="M6.21662 5.27949C6.21662 5.27949 6.24171 5.3239 6.24171 5.36478C6.24171 5.40565 6.21662 5.44641 6.21662 5.44641H6.74468C6.74468 5.44641 6.69868 5.41143 6.69868 5.36478C6.69868 5.31813 6.74468 5.27949 6.74468 5.27949H6.8008V5.0708H6.13342V5.27949H6.21662Z" fill="#E5B731"/>
<path d="M6.21662 5.27949C6.21662 5.27949 6.24171 5.3239 6.24171 5.36478C6.24171 5.40565 6.21662 5.44641 6.21662 5.44641H6.74468C6.74468 5.44641 6.69868 5.41143 6.69868 5.36478C6.69868 5.31813 6.74468 5.27949 6.74468 5.27949H6.8008V5.0708H6.13342V5.27949H6.21662Z" stroke="#262626" stroke-width="0.1"/>
<path d="M6.21662 8.76201C6.21662 8.76201 6.24171 8.7176 6.24171 8.67673C6.24171 8.63585 6.21662 8.59509 6.21662 8.59509H6.74468C6.74468 8.59509 6.69868 8.63008 6.69868 8.67673C6.69868 8.72338 6.74468 8.76201 6.74468 8.76201H6.8008V8.9707H6.13342V8.76201H6.21662Z" fill="#E5B731"/>
<path d="M6.21662 8.79707C6.21662 8.79707 6.24171 8.84148 6.24171 8.88235C6.24171 8.92323 6.21662 8.96399 6.21662 8.96399H6.74468C6.74468 8.96399 6.69868 8.92901 6.69868 8.88235C6.69868 8.8357 6.74468 8.79707 6.74468 8.79707H6.8008V8.58838H6.13342V8.79707H6.21662Z" stroke="#262626" stroke-width="0.1"/>
<path fill-rule="evenodd" clip-rule="evenodd" d="M6.20142 5.45264H6.74524V8.58794H6.20142V5.45264Z" fill="#D8D8D8" stroke="black" stroke-width="0.1"/>
<path d="M6.80755 8.91919C6.77765 8.90357 6.73718 8.89404 6.69254 8.89404C6.64769 8.89404 6.6062 8.9037 6.57631 8.91941C6.54629 8.93558 6.5048 8.94554 6.4595 8.94554C6.41364 8.94554 6.37283 8.93459 6.3427 8.91811C6.31304 8.90314 6.27332 8.89404 6.22982 8.89404C6.18485 8.89404 6.14492 8.90284 6.11502 8.91876C6.08488 8.93515 6.04318 8.94554 5.99744 8.94554V9.32514C6.04318 9.32514 6.08488 9.31441 6.11502 9.29815C6.14492 9.28232 6.18485 9.27334 6.22982 9.27334C6.2732 9.27334 6.31292 9.28253 6.3427 9.29763C6.37271 9.31398 6.41364 9.32514 6.4595 9.32514C6.5048 9.32514 6.54629 9.31497 6.57631 9.29892C6.6062 9.28299 6.64769 9.27334 6.69254 9.27334C6.73718 9.27334 6.77765 9.28299 6.80755 9.2987C6.83769 9.31518 6.87783 9.32514 6.92381 9.32514L6.92435 8.94554C6.87852 8.94554 6.83769 8.93567 6.80755 8.91919Z" fill="#0044AD"/>
<path d="M6.80755 8.91919C6.77765 8.90357 6.73718 8.89404 6.69254 8.89404C6.64769 8.89404 6.6062 8.9037 6.57631 8.91941C6.54629 8.93558 6.5048 8.94554 6.4595 8.94554C6.41364 8.94554 6.37283 8.93459 6.3427 8.91811C6.31304 8.90314 6.27332 8.89404 6.22982 8.89404C6.18485 8.89404 6.14492 8.90284 6.11502 8.91876C6.08488 8.93515 6.04318 8.94554 5.99744 8.94554V9.32514C6.04318 9.32514 6.08488 9.31441 6.11502 9.29815C6.14492 9.28232 6.18485 9.27334 6.22982 9.27334C6.2732 9.27334 6.31292 9.28253 6.3427 9.29763C6.37271 9.31398 6.41364 9.32514 6.4595 9.32514C6.5048 9.32514 6.54629 9.31497 6.57631 9.29892C6.6062 9.28299 6.64769 9.27334 6.69254 9.27334C6.73718 9.27334 6.77765 9.28299 6.80755 9.2987C6.83769 9.31518 6.87783 9.32514 6.92381 9.32514L6.92435 8.94554C6.87852 8.94554 6.83769 8.93567 6.80755 8.91919V8.91919Z" stroke="#262626" stroke-width="0.1"/>
<path d="M6.92435 9.1753C6.87852 9.1753 6.83769 9.16535 6.80755 9.14888C6.77765 9.13318 6.73718 9.12354 6.69254 9.12354C6.64769 9.12354 6.6062 9.13318 6.57631 9.14909C6.54629 9.16513 6.5048 9.1753 6.4595 9.1753C6.41364 9.1753 6.37283 9.16415 6.3427 9.1478C6.31304 9.13272 6.27332 9.12354 6.22982 9.12354C6.18485 9.12354 6.14492 9.13251 6.11502 9.14833C6.08488 9.16458 6.04318 9.1753 5.99744 9.1753V9.24875C6.04318 9.24875 6.08488 9.23825 6.11502 9.22199C6.14492 9.20596 6.18485 9.19708 6.22982 9.19708C6.2732 9.19708 6.31292 9.2063 6.3427 9.22135C6.37271 9.23772 6.41364 9.24875 6.4595 9.24875C6.5048 9.24875 6.54629 9.23858 6.57631 9.22255C6.6062 9.20673 6.64769 9.19708 6.69254 9.19708C6.73718 9.19708 6.77765 9.20673 6.80755 9.22242C6.83769 9.2388 6.87783 9.24875 6.92381 9.24875L6.92435 9.1753" fill="#CCCCCC"/>
<path d="M6.92435 9.1753C6.87852 9.1753 6.83769 9.16535 6.80755 9.14888C6.77765 9.13318 6.73718 9.12354 6.69254 9.12354C6.64769 9.12354 6.6062 9.13318 6.57631 9.14909C6.54629 9.16513 6.5048 9.1753 6.4595 9.1753C6.41364 9.1753 6.37283 9.16415 6.3427 9.1478C6.31304 9.13272 6.27332 9.12354 6.22982 9.12354C6.18485 9.12354 6.14492 9.13251 6.11502 9.14833C6.08488 9.16458 6.04318 9.1753 5.99744 9.1753V9.24875C6.04318 9.24875 6.08488 9.23825 6.11502 9.22199C6.14492 9.20596 6.18485 9.19708 6.22982 9.19708C6.2732 9.19708 6.31292 9.2063 6.3427 9.22135C6.37271 9.23772 6.41364 9.24875 6.4595 9.24875C6.5048 9.24875 6.54629 9.23858 6.57631 9.22255C6.6062 9.20673 6.64769 9.19708 6.69254 9.19708C6.73718 9.19708 6.77765 9.20673 6.80755 9.22242C6.83769 9.2388 6.87783 9.24875 6.92381 9.24875L6.92435 9.1753" stroke="#262626" stroke-width="0.1"/>
<path d="M6.42423 6.52492C6.4957 6.52552 6.57541 6.53292 6.65776 6.54809C6.76461 6.56779 6.86214 6.59755 6.94196 6.6325L6.73979 6.70051L6.75289 6.95896C6.75289 6.95896 6.88706 6.95685 6.9936 6.92213C7.08718 6.89163 7.15819 6.84168 7.15689 6.84938C7.15652 6.85161 7.26154 6.57184 7.26314 6.5615C7.28271 6.44532 7.03644 6.30252 6.71286 6.2429C6.61132 6.22419 6.51215 6.21692 6.42625 6.21785C6.21914 6.21785 6.02379 6.24019 5.91542 6.28464L5.91406 6.61005C6.0205 6.56149 6.21675 6.53246 6.42423 6.52492Z" fill="#F1453D"/>
<path d="M6.42423 6.52492C6.4957 6.52552 6.57541 6.53292 6.65776 6.54809C6.76461 6.56779 6.86214 6.59755 6.94196 6.6325L6.73979 6.70051L6.75289 6.95896C6.75289 6.95896 6.88706 6.95685 6.9936 6.92213C7.08718 6.89163 7.15819 6.84168 7.15689 6.84938C7.15652 6.85161 7.26154 6.57184 7.26314 6.5615C7.28271 6.44532 7.03644 6.30252 6.71286 6.2429C6.61132 6.22419 6.51215 6.21692 6.42625 6.21785C6.21914 6.21785 6.02379 6.24019 5.91542 6.28464L5.91406 6.61005C6.0205 6.56149 6.21675 6.53246 6.42423 6.52492V6.52492Z" stroke="#262626" stroke-width="0.1"/>
<path d="M6.89893 7.27316C6.81452 7.2393 6.74482 7.20402 6.65844 7.1613C6.40187 7.03416 6.20353 6.83496 6.20353 6.83496V7.1041C6.18012 7.15287 6.3536 7.29669 6.5896 7.42359C6.66523 7.46407 6.82497 7.53022 6.90036 7.55982C6.96126 7.58351 7.08825 7.65305 7.08825 7.65305C7.08825 7.65305 6.91843 7.75856 7.07571 7.96055C7.08825 7.83955 7.20537 7.79059 7.20163 7.80185L7.20163 7.47793C7.21433 7.43494 7.08364 7.34915 6.89893 7.27316Z" fill="#F1453D"/>
<path d="M6.89893 7.27316C6.81452 7.2393 6.74482 7.20402 6.65844 7.1613C6.40187 7.03416 6.20353 6.83496 6.20353 6.83496V7.1041C6.18012 7.15287 6.3536 7.29669 6.5896 7.42359C6.66523 7.46407 6.82497 7.53022 6.90036 7.55982C6.96126 7.58351 7.08825 7.65305 7.08825 7.65305C7.08825 7.65305 6.91843 7.75856 7.07571 7.96055C7.08825 7.83955 7.20537 7.79059 7.20163 7.80185L7.20163 7.47793C7.21433 7.43494 7.08364 7.34915 6.89893 7.27316V7.27316Z" stroke="#262626" stroke-width="0.1"/>
<path d="M6.92435 9.02247C6.87852 9.02247 6.83769 9.01251 6.80755 8.99605C6.77765 8.98035 6.73718 8.9707 6.69254 8.9707C6.64769 8.9707 6.6062 8.98035 6.57631 8.99626C6.54629 9.0123 6.5048 9.02247 6.4595 9.02247C6.41364 9.02247 6.37283 9.01132 6.3427 8.99497C6.31304 8.97989 6.27332 8.9707 6.22982 8.9707C6.18485 8.9707 6.14492 8.97967 6.11502 8.99549C6.08488 9.01175 6.04318 9.02247 5.99744 9.02247V9.09592C6.04318 9.09592 6.08488 9.08541 6.11502 9.06916C6.14492 9.05313 6.18485 9.04425 6.22982 9.04425C6.2732 9.04425 6.31292 9.05346 6.3427 9.06852C6.37271 9.08489 6.41364 9.09592 6.4595 9.09592C6.5048 9.09592 6.54629 9.08575 6.57631 9.06972C6.6062 9.05389 6.64769 9.04425 6.69254 9.04425C6.73718 9.04425 6.77765 9.05389 6.80755 9.06959C6.83769 9.08597 6.87783 9.09592 6.92381 9.09592L6.92435 9.02247" fill="#CCCCCC"/>
<path d="M6.92435 9.02247C6.87852 9.02247 6.83769 9.01251 6.80755 8.99605C6.77765 8.98035 6.73718 8.9707 6.69254 8.9707C6.64769 8.9707 6.6062 8.98035 6.57631 8.99626C6.54629 9.0123 6.5048 9.02247 6.4595 9.02247C6.41364 9.02247 6.37283 9.01132 6.3427 8.99497C6.31304 8.97989 6.27332 8.9707 6.22982 8.9707C6.18485 8.9707 6.14492 8.97967 6.11502 8.99549C6.08488 9.01175 6.04318 9.02247 5.99744 9.02247V9.09592C6.04318 9.09592 6.08488 9.08541 6.11502 9.06916C6.14492 9.05313 6.18485 9.04425 6.22982 9.04425C6.2732 9.04425 6.31292 9.05346 6.3427 9.06852C6.37271 9.08489 6.41364 9.09592 6.4595 9.09592C6.5048 9.09592 6.54629 9.08575 6.57631 9.06972C6.6062 9.05389 6.64769 9.04425 6.69254 9.04425C6.73718 9.04425 6.77765 9.05389 6.80755 9.06959C6.83769 9.08597 6.87783 9.09592 6.92381 9.09592L6.92435 9.02247" stroke="#262626" stroke-width="0.1"/>
<path d="M6.26948 4.91636C6.26178 4.91018 6.23855 4.87978 6.23855 4.87978L6.21996 4.86148L6.20302 4.82905C6.20302 4.82905 6.18288 4.7847 6.19212 4.7501C6.20137 4.71566 6.21687 4.70342 6.23086 4.69335C6.24482 4.68324 6.27412 4.67104 6.27412 4.67104C6.27412 4.67104 6.29743 4.65688 6.30512 4.65475C6.31282 4.65273 6.34077 4.64262 6.34077 4.64262C6.34077 4.64262 6.34849 4.63659 6.35619 4.63255C6.364 4.62851 6.37478 4.62851 6.38105 4.62637C6.3872 4.62435 6.40273 4.61749 6.41197 4.6168C6.42635 4.616 6.44916 4.62031 6.45697 4.62031C6.46467 4.62031 6.49099 4.62244 6.50177 4.62244C6.51256 4.62244 6.55127 4.61829 6.56216 4.61829C6.57295 4.61829 6.58076 4.61642 6.5932 4.61829C6.60553 4.62031 6.62719 4.63038 6.63345 4.63457C6.63963 4.63862 6.67682 4.65689 6.6907 4.66295C6.70465 4.66886 6.73875 4.67706 6.75429 4.68717C6.76968 4.69739 6.77914 4.71448 6.78684 4.72871C6.79465 4.74286 6.79608 4.7583 6.79917 4.76852C6.80215 4.77863 6.80226 4.80041 6.79928 4.81052C6.79616 4.82059 6.78521 4.84145 6.78521 4.84145L6.76813 4.8799L6.74648 4.90412C6.74648 4.90412 6.73095 4.92456 6.71864 4.92243C6.7062 4.92067 6.6907 4.96684 6.50177 4.96684C6.31285 4.96684 6.2826 4.92243 6.2826 4.92243C6.28271 4.92242 6.27718 4.92242 6.26948 4.91636Z" fill="#F1453D"/>
<path d="M6.26948 4.91636C6.26178 4.91018 6.23855 4.87978 6.23855 4.87978L6.21996 4.86148L6.20302 4.82905C6.20302 4.82905 6.18288 4.7847 6.19212 4.7501C6.20137 4.71566 6.21687 4.70342 6.23086 4.69335C6.24482 4.68324 6.27412 4.67104 6.27412 4.67104C6.27412 4.67104 6.29743 4.65688 6.30512 4.65475C6.31282 4.65273 6.34077 4.64262 6.34077 4.64262C6.34077 4.64262 6.34849 4.63659 6.35619 4.63255C6.364 4.62851 6.37478 4.62851 6.38105 4.62637C6.3872 4.62435 6.40273 4.61749 6.41197 4.6168C6.42635 4.616 6.44916 4.62031 6.45697 4.62031C6.46467 4.62031 6.49099 4.62244 6.50177 4.62244C6.51256 4.62244 6.55127 4.61829 6.56216 4.61829C6.57295 4.61829 6.58076 4.61642 6.5932 4.61829C6.60553 4.62031 6.62719 4.63038 6.63345 4.63457C6.63963 4.63862 6.67682 4.65689 6.6907 4.66295C6.70465 4.66886 6.73875 4.67706 6.75429 4.68717C6.76968 4.69739 6.77914 4.71448 6.78684 4.72871C6.79465 4.74286 6.79608 4.7583 6.79917 4.76852C6.80215 4.77863 6.80226 4.80041 6.79928 4.81052C6.79616 4.82059 6.78521 4.84145 6.78521 4.84145L6.76813 4.8799L6.74648 4.90412C6.74648 4.90412 6.73095 4.92456 6.71864 4.92243C6.7062 4.92067 6.6907 4.96684 6.50177 4.96684C6.31285 4.96684 6.2826 4.92243 6.2826 4.92243C6.28271 4.92242 6.27718 4.92242 6.26948 4.91636V4.91636Z" stroke="#262626" stroke-width="0.1"/>
<path d="M6.34501 4.86218L6.34154 4.82261L6.33453 4.78139L6.32708 4.72993C6.28593 4.67127 6.24806 4.63278 6.23535 4.64103C6.23839 4.63018 6.24199 4.62207 6.24994 4.61707C6.28652 4.59359 6.36204 4.64995 6.41881 4.74253C6.42391 4.75101 6.42882 4.75946 6.43314 4.76794H6.47446C6.47446 4.76794 6.44226 4.68215 6.45926 4.63996C6.46481 4.6262 6.48494 4.62843 6.48494 4.62843V4.58149H6.46121V4.56572H6.48494V4.53711H6.50229V4.56572H6.52478V4.58149H6.50169C6.50169 4.58149 6.50131 4.62112 6.50229 4.62843C6.50479 4.62843 6.52478 4.62843 6.53028 4.64079C6.54393 4.66617 6.51678 4.76794 6.51678 4.76794H6.55654C6.55654 4.76794 6.56587 4.75111 6.571 4.74253C6.62765 4.64995 6.70326 4.59359 6.73975 4.61707C6.74766 4.62207 6.7513 4.63018 6.75442 4.64103C6.74162 4.63292 6.70385 4.67127 6.66248 4.72993L6.65512 4.78139L6.64814 4.82261L6.64473 4.86218H6.49454H6.34501Z" fill="#DEAD00"/>
<path d="M6.34501 4.86218L6.34154 4.82261L6.33453 4.78139L6.32708 4.72993C6.28593 4.67127 6.24806 4.63278 6.23535 4.64103C6.23839 4.63018 6.24199 4.62207 6.24994 4.61707C6.28652 4.59359 6.36204 4.64995 6.41881 4.74253C6.42391 4.75101 6.42882 4.75946 6.43314 4.76794H6.47446C6.47446 4.76794 6.44226 4.68215 6.45926 4.63996C6.46481 4.6262 6.48494 4.62843 6.48494 4.62843V4.58149H6.46121V4.56572H6.48494V4.53711H6.50229V4.56572H6.52478V4.58149H6.50169C6.50169 4.58149 6.50131 4.62112 6.50229 4.62843C6.50479 4.62843 6.52478 4.62843 6.53028 4.64079C6.54393 4.66617 6.51678 4.76794 6.51678 4.76794H6.55654C6.55654 4.76794 6.56587 4.75111 6.571 4.74253C6.62765 4.64995 6.70326 4.59359 6.73975 4.61707C6.74766 4.62207 6.7513 4.63018 6.75442 4.64103C6.74162 4.63292 6.70385 4.67127 6.66248 4.72993L6.65512 4.78139L6.64814 4.82261L6.64473 4.86218H6.49454H6.34501Z" stroke="#262626" stroke-width="0.1"/>
<path d="M6.50753 4.76603C6.50614 4.76925 6.50581 4.77266 6.50581 4.77629C6.50581 4.79231 6.52108 4.80531 6.54007 4.80531C6.55523 4.80531 6.568 4.79691 6.57248 4.78527C6.57307 4.78558 6.57581 4.77471 6.5772 4.7749C6.57822 4.7749 6.5781 4.78616 6.57869 4.78596C6.58075 4.80052 6.59569 4.81049 6.61249 4.81049C6.63135 4.81049 6.64647 4.79749 6.64647 4.78147C6.64647 4.78028 6.64647 4.77912 6.64629 4.77795L6.65697 4.76836L6.66283 4.78059C6.66043 4.7843 6.65962 4.7886 6.65962 4.7932C6.65962 4.80855 6.67422 4.82097 6.69213 4.82097C6.70352 4.82097 6.7134 4.81598 6.71926 4.80855L6.72618 4.80074L6.72605 4.81041C6.72605 4.81997 6.73065 4.82859 6.74112 4.83015C6.74112 4.83015 6.75294 4.83092 6.76905 4.81959C6.78492 4.80836 6.79365 4.79896 6.79365 4.79896L6.79464 4.81049C6.79464 4.81049 6.77905 4.83356 6.76479 4.8409C6.75708 4.845 6.73544 4.91924 6.72605 4.91777C6.72525 4.91766 6.61843 4.88881 6.49868 4.88867C6.38423 4.88854 6.27591 4.92364 6.27109 4.9243C6.26167 4.92577 6.24028 4.845 6.23247 4.8409C6.21821 4.83356 6.20142 4.81049 6.20142 4.81049L6.20361 4.79896C6.20361 4.79896 6.21247 4.80836 6.22821 4.81959C6.2442 4.83092 6.25615 4.83015 6.25615 4.83015C6.26661 4.82859 6.27121 4.81997 6.27121 4.81041L6.27109 4.80074L6.27797 4.80855C6.28384 4.81598 6.29374 4.82097 6.3051 4.82097C6.32304 4.82097 6.33764 4.80855 6.33764 4.7932C6.33764 4.7886 6.33684 4.7843 6.33455 4.78059L6.34029 4.76836L6.35097 4.77795C6.35076 4.77912 6.35063 4.78028 6.35063 4.78147C6.35063 4.79749 6.36582 4.81049 6.38477 4.81049C6.40157 4.81049 6.41638 4.80052 6.41858 4.78596C6.41904 4.78616 6.41891 4.7749 6.42006 4.7749C6.42145 4.77471 6.42432 4.78558 6.42478 4.78527C6.42926 4.79691 6.44213 4.80531 6.45732 4.80531C6.47614 4.80531 6.49146 4.79231 6.49146 4.77629C6.49146 4.77266 6.49121 4.76925 6.48973 4.76603L6.49868 4.76465L6.50753 4.76603Z" fill="#DEAD00"/>
<path d="M6.50753 4.76603C6.50614 4.76925 6.50581 4.77266 6.50581 4.77629C6.50581 4.79231 6.52108 4.80531 6.54007 4.80531C6.55523 4.80531 6.568 4.79691 6.57248 4.78527C6.57307 4.78558 6.57581 4.77471 6.5772 4.7749C6.57822 4.7749 6.5781 4.78616 6.57869 4.78596C6.58075 4.80052 6.59569 4.81049 6.61249 4.81049C6.63135 4.81049 6.64647 4.79749 6.64647 4.78147C6.64647 4.78028 6.64647 4.77912 6.64629 4.77795L6.65697 4.76836L6.66283 4.78059C6.66043 4.7843 6.65962 4.7886 6.65962 4.7932C6.65962 4.80855 6.67422 4.82097 6.69213 4.82097C6.70352 4.82097 6.7134 4.81598 6.71926 4.80855L6.72618 4.80074L6.72605 4.81041C6.72605 4.81997 6.73065 4.82859 6.74112 4.83015C6.74112 4.83015 6.75294 4.83092 6.76905 4.81959C6.78492 4.80836 6.79365 4.79896 6.79365 4.79896L6.79464 4.81049C6.79464 4.81049 6.77905 4.83356 6.76479 4.8409C6.75708 4.845 6.73544 4.91924 6.72605 4.91777C6.72525 4.91766 6.61843 4.88881 6.49868 4.88867C6.38423 4.88854 6.27591 4.92364 6.27109 4.9243C6.26167 4.92577 6.24028 4.845 6.23247 4.8409C6.21821 4.83356 6.20142 4.81049 6.20142 4.81049L6.20361 4.79896C6.20361 4.79896 6.21247 4.80836 6.22821 4.81959C6.2442 4.83092 6.25615 4.83015 6.25615 4.83015C6.26661 4.82859 6.27121 4.81997 6.27121 4.81041L6.27109 4.80074L6.27797 4.80855C6.28384 4.81598 6.29374 4.82097 6.3051 4.82097C6.32304 4.82097 6.33764 4.80855 6.33764 4.7932C6.33764 4.7886 6.33684 4.7843 6.33455 4.78059L6.34029 4.76836L6.35097 4.77795C6.35076 4.77912 6.35063 4.78028 6.35063 4.78147C6.35063 4.79749 6.36582 4.81049 6.38477 4.81049C6.40157 4.81049 6.41638 4.80052 6.41858 4.78596C6.41904 4.78616 6.41891 4.7749 6.42006 4.7749C6.42145 4.77471 6.42432 4.78558 6.42478 4.78527C6.42926 4.79691 6.44213 4.80531 6.45732 4.80531C6.47614 4.80531 6.49146 4.79231 6.49146 4.77629C6.49146 4.77266 6.49121 4.76925 6.48973 4.76603L6.49868 4.76465L6.50753 4.76603Z" stroke="#262626" stroke-width="0.1"/>
<path d="M2.07013 5.27949C2.07013 5.27949 2.09523 5.3239 2.09523 5.36478C2.09523 5.40565 2.07013 5.44641 2.07013 5.44641H2.59819C2.59819 5.44641 2.5522 5.41143 2.5522 5.36478C2.5522 5.31813 2.59819 5.27949 2.59819 5.27949H2.65432V5.0708H1.98694V5.27949H2.07013Z" fill="#E5B731"/>
<path d="M2.07013 5.27949C2.07013 5.27949 2.09523 5.3239 2.09523 5.36478C2.09523 5.40565 2.07013 5.44641 2.07013 5.44641H2.59819C2.59819 5.44641 2.5522 5.41143 2.5522 5.36478C2.5522 5.31813 2.59819 5.27949 2.59819 5.27949H2.65432V5.0708H1.98694V5.27949H2.07013Z" stroke="#262626" stroke-width="0.1"/>
<path d="M2.07013 8.76201C2.07013 8.76201 2.09523 8.7176 2.09523 8.67673C2.09523 8.63585 2.07013 8.59509 2.07013 8.59509H2.59819C2.59819 8.59509 2.5522 8.63008 2.5522 8.67673C2.5522 8.72338 2.59819 8.76201 2.59819 8.76201H2.65432V8.9707H1.98694V8.76201H2.07013Z" fill="#E5B731"/>
<path d="M2.07013 8.79707C2.07013 8.79707 2.09523 8.84148 2.09523 8.88235C2.09523 8.92323 2.07013 8.96399 2.07013 8.96399H2.59819C2.59819 8.96399 2.5522 8.92901 2.5522 8.88235C2.5522 8.8357 2.59819 8.79707 2.59819 8.79707H2.65432V8.58838H1.98694V8.79707H2.07013Z" stroke="#262626" stroke-width="0.1"/>
<path fill-rule="evenodd" clip-rule="evenodd" d="M2.05493 5.45264H2.59875V8.58794H2.05493V5.45264Z" fill="#D8D8D8" stroke="black" stroke-width="0.1"/>
<path d="M2.66106 8.91919C2.63117 8.90357 2.59069 8.89404 2.54606 8.89404C2.50121 8.89404 2.45972 8.9037 2.42982 8.91941C2.3998 8.93558 2.35831 8.94554 2.31302 8.94554C2.26715 8.94554 2.22635 8.93459 2.19621 8.91811C2.16655 8.90314 2.12683 8.89404 2.08333 8.89404C2.03837 8.89404 1.99843 8.90284 1.96854 8.91876C1.9384 8.93515 1.8967 8.94554 1.85095 8.94554V9.32514C1.8967 9.32514 1.9384 9.31441 1.96854 9.29815C1.99843 9.28232 2.03837 9.27334 2.08333 9.27334C2.12671 9.27334 2.16644 9.28253 2.19621 9.29763C2.22623 9.31398 2.26715 9.32514 2.31302 9.32514C2.35831 9.32514 2.3998 9.31497 2.42982 9.29892C2.45972 9.28299 2.50121 9.27334 2.54606 9.27334C2.59069 9.27334 2.63117 9.28299 2.66106 9.2987C2.6912 9.31518 2.73134 9.32514 2.77733 9.32514L2.77787 8.94554C2.73203 8.94554 2.6912 8.93567 2.66106 8.91919Z" fill="#0044AD"/>
<path d="M2.66106 8.91919C2.63117 8.90357 2.59069 8.89404 2.54606 8.89404C2.50121 8.89404 2.45972 8.9037 2.42982 8.91941C2.3998 8.93558 2.35831 8.94554 2.31302 8.94554C2.26715 8.94554 2.22635 8.93459 2.19621 8.91811C2.16655 8.90314 2.12683 8.89404 2.08333 8.89404C2.03837 8.89404 1.99843 8.90284 1.96854 8.91876C1.9384 8.93515 1.8967 8.94554 1.85095 8.94554V9.32514C1.8967 9.32514 1.9384 9.31441 1.96854 9.29815C1.99843 9.28232 2.03837 9.27334 2.08333 9.27334C2.12671 9.27334 2.16644 9.28253 2.19621 9.29763C2.22623 9.31398 2.26715 9.32514 2.31302 9.32514C2.35831 9.32514 2.3998 9.31497 2.42982 9.29892C2.45972 9.28299 2.50121 9.27334 2.54606 9.27334C2.59069 9.27334 2.63117 9.28299 2.66106 9.2987C2.6912 9.31518 2.73134 9.32514 2.77733 9.32514L2.77787 8.94554C2.73203 8.94554 2.6912 8.93567 2.66106 8.91919V8.91919Z" stroke="#262626" stroke-width="0.1"/>
<path d="M2.77787 9.1753C2.73203 9.1753 2.6912 9.16535 2.66106 9.14888C2.63117 9.13318 2.59069 9.12354 2.54606 9.12354C2.50121 9.12354 2.45972 9.13318 2.42982 9.14909C2.3998 9.16513 2.35831 9.1753 2.31302 9.1753C2.26715 9.1753 2.22635 9.16415 2.19621 9.1478C2.16655 9.13272 2.12683 9.12354 2.08333 9.12354C2.03837 9.12354 1.99843 9.13251 1.96854 9.14833C1.9384 9.16458 1.8967 9.1753 1.85095 9.1753V9.24875C1.8967 9.24875 1.9384 9.23825 1.96854 9.22199C1.99843 9.20596 2.03837 9.19708 2.08333 9.19708C2.12671 9.19708 2.16644 9.2063 2.19621 9.22135C2.22623 9.23772 2.26715 9.24875 2.31302 9.24875C2.35831 9.24875 2.3998 9.23858 2.42982 9.22255C2.45972 9.20673 2.50121 9.19708 2.54606 9.19708C2.59069 9.19708 2.63117 9.20673 2.66106 9.22242C2.6912 9.2388 2.73134 9.24875 2.77733 9.24875L2.77787 9.1753" fill="#CCCCCC"/>
<path d="M2.77787 9.1753C2.73203 9.1753 2.6912 9.16535 2.66106 9.14888C2.63117 9.13318 2.59069 9.12354 2.54606 9.12354C2.50121 9.12354 2.45972 9.13318 2.42982 9.14909C2.3998 9.16513 2.35831 9.1753 2.31302 9.1753C2.26715 9.1753 2.22635 9.16415 2.19621 9.1478C2.16655 9.13272 2.12683 9.12354 2.08333 9.12354C2.03837 9.12354 1.99843 9.13251 1.96854 9.14833C1.9384 9.16458 1.8967 9.1753 1.85095 9.1753V9.24875C1.8967 9.24875 1.9384 9.23825 1.96854 9.22199C1.99843 9.20596 2.03837 9.19708 2.08333 9.19708C2.12671 9.19708 2.16644 9.2063 2.19621 9.22135C2.22623 9.23772 2.26715 9.24875 2.31302 9.24875C2.35831 9.24875 2.3998 9.23858 2.42982 9.22255C2.45972 9.20673 2.50121 9.19708 2.54606 9.19708C2.59069 9.19708 2.63117 9.20673 2.66106 9.22242C2.6912 9.2388 2.73134 9.24875 2.77733 9.24875L2.77787 9.1753" stroke="#262626" stroke-width="0.1"/>
<path d="M2.37582 6.52492C2.30435 6.52552 2.22463 6.53292 2.14229 6.54809C2.03544 6.56779 1.9379 6.59755 1.85809 6.6325L2.06025 6.70051L2.04715 6.95896C2.04715 6.95896 1.91299 6.95685 1.80645 6.92213C1.71286 6.89163 1.64186 6.84168 1.64316 6.84938C1.64352 6.85161 1.53851 6.57184 1.5369 6.5615C1.51734 6.44532 1.76361 6.30252 2.08719 6.2429C2.18873 6.22419 2.28789 6.21692 2.3738 6.21785C2.58091 6.21785 2.77626 6.24019 2.88463 6.28464L2.88599 6.61005C2.77955 6.56149 2.5833 6.53246 2.37582 6.52492Z" fill="#F1453D"/>
<path d="M2.00589 6.52492C2.07736 6.52552 2.15708 6.53292 2.23942 6.54809C2.34628 6.56779 2.44381 6.59755 2.52362 6.6325L2.32146 6.70051L2.33456 6.95896C2.33456 6.95896 2.46873 6.95685 2.57527 6.92213C2.66885 6.89163 2.73985 6.84168 2.73855 6.84938C2.73819 6.85161 2.84321 6.57184 2.84481 6.5615C2.86438 6.44532 2.6181 6.30252 2.29453 6.2429C2.19298 6.22419 2.09382 6.21692 2.00791 6.21785C1.8008 6.21785 1.60546 6.24019 1.49709 6.28464L1.49573 6.61005C1.60217 6.56149 1.79842 6.53246 2.00589 6.52492V6.52492Z" stroke="#262626" stroke-width="0.1"/>
<path d="M1.90125 7.27316C1.98565 7.2393 2.05535 7.20402 2.14174 7.1613C2.3983 7.03416 2.59664 6.83496 2.59664 6.83496V7.1041C2.62005 7.15287 2.44657 7.29669 2.21057 7.42359C2.13494 7.46407 1.9752 7.53022 1.89981 7.55982C1.83892 7.58351 1.71192 7.65305 1.71192 7.65305C1.71192 7.65305 1.88174 7.75856 1.72447 7.96055C1.71192 7.83955 1.5948 7.79059 1.59854 7.80185L1.59854 7.47793C1.58584 7.43494 1.71654 7.34915 1.90125 7.27316Z" fill="#F1453D"/>
<path d="M2.27661 7.27316C2.19221 7.2393 2.1225 7.20402 2.03612 7.1613C1.77955 7.03416 1.58122 6.83496 1.58122 6.83496V7.1041C1.5578 7.15287 1.73129 7.29669 1.96728 7.42359C2.04292 7.46407 2.20266 7.53022 2.27805 7.55982C2.33894 7.58351 2.46593 7.65305 2.46593 7.65305C2.46593 7.65305 2.29611 7.75856 2.45339 7.96055C2.46593 7.83955 2.58305 7.79059 2.57932 7.80185L2.57932 7.47793C2.59202 7.43494 2.46132 7.34915 2.27661 7.27316V7.27316Z" stroke="#262626" stroke-width="0.1"/>
<path d="M2.77787 9.02247C2.73203 9.02247 2.6912 9.01251 2.66106 8.99605C2.63117 8.98035 2.59069 8.9707 2.54606 8.9707C2.50121 8.9707 2.45972 8.98035 2.42982 8.99626C2.3998 9.0123 2.35831 9.02247 2.31302 9.02247C2.26715 9.02247 2.22635 9.01132 2.19621 8.99497C2.16655 8.97989 2.12683 8.9707 2.08333 8.9707C2.03837 8.9707 1.99843 8.97967 1.96854 8.99549C1.9384 9.01175 1.8967 9.02247 1.85095 9.02247V9.09592C1.8967 9.09592 1.9384 9.08541 1.96854 9.06916C1.99843 9.05313 2.03837 9.04425 2.08333 9.04425C2.12671 9.04425 2.16644 9.05346 2.19621 9.06852C2.22623 9.08489 2.26715 9.09592 2.31302 9.09592C2.35831 9.09592 2.3998 9.08575 2.42982 9.06972C2.45972 9.05389 2.50121 9.04425 2.54606 9.04425C2.59069 9.04425 2.63117 9.05389 2.66106 9.06959C2.6912 9.08597 2.73134 9.09592 2.77733 9.09592L2.77787 9.02247" fill="#CCCCCC"/>
<path d="M2.77787 9.02247C2.73203 9.02247 2.6912 9.01251 2.66106 8.99605C2.63117 8.98035 2.59069 8.9707 2.54606 8.9707C2.50121 8.9707 2.45972 8.98035 2.42982 8.99626C2.3998 9.0123 2.35831 9.02247 2.31302 9.02247C2.26715 9.02247 2.22635 9.01132 2.19621 8.99497C2.16655 8.97989 2.12683 8.9707 2.08333 8.9707C2.03837 8.9707 1.99843 8.97967 1.96854 8.99549C1.9384 9.01175 1.8967 9.02247 1.85095 9.02247V9.09592C1.8967 9.09592 1.9384 9.08541 1.96854 9.06916C1.99843 9.05313 2.03837 9.04425 2.08333 9.04425C2.12671 9.04425 2.16644 9.05346 2.19621 9.06852C2.22623 9.08489 2.26715 9.09592 2.31302 9.09592C2.35831 9.09592 2.3998 9.08575 2.42982 9.06972C2.45972 9.05389 2.50121 9.04425 2.54606 9.04425C2.59069 9.04425 2.63117 9.05389 2.66106 9.06959C2.6912 9.08597 2.73134 9.09592 2.77733 9.09592L2.77787 9.02247" stroke="#262626" stroke-width="0.1"/>
<path d="M2.08894 4.91636C2.08124 4.91018 2.05801 4.87978 2.05801 4.87978L2.03942 4.86148L2.02248 4.82905C2.02248 4.82905 2.00234 4.7847 2.01158 4.7501C2.02082 4.71566 2.03633 4.70342 2.05032 4.69335C2.06427 4.68324 2.09357 4.67104 2.09357 4.67104C2.09357 4.67104 2.11689 4.65688 2.12458 4.65475C2.13228 4.65273 2.16023 4.64262 2.16023 4.64262C2.16023 4.64262 2.16795 4.63659 2.17565 4.63255C2.18346 4.62851 2.19424 4.62851 2.2005 4.62637C2.20666 4.62435 2.22219 4.61749 2.23143 4.6168C2.2458 4.616 2.26862 4.62031 2.27643 4.62031C2.28412 4.62031 2.31044 4.62244 2.32123 4.62244C2.33202 4.62244 2.37072 4.61829 2.38162 4.61829C2.39241 4.61829 2.40021 4.61642 2.41266 4.61829C2.42499 4.62031 2.44665 4.63038 2.45291 4.63457C2.45909 4.63862 2.49628 4.65689 2.51015 4.66295C2.52411 4.66886 2.55821 4.67706 2.57374 4.68717C2.58914 4.69739 2.5986 4.71448 2.6063 4.72871C2.61411 4.74286 2.61554 4.7583 2.61863 4.76852C2.62161 4.77863 2.62172 4.80041 2.61874 4.81052C2.61562 4.82059 2.60467 4.84145 2.60467 4.84145L2.58759 4.8799L2.56594 4.90412C2.56594 4.90412 2.5504 4.92456 2.5381 4.92243C2.52566 4.92067 2.51015 4.96684 2.32123 4.96684C2.13231 4.96684 2.10205 4.92243 2.10205 4.92243C2.10216 4.92242 2.09664 4.92242 2.08894 4.91636Z" fill="#F1453D"/>
<path d="M2.08894 4.91636C2.08124 4.91018 2.05801 4.87978 2.05801 4.87978L2.03942 4.86148L2.02248 4.82905C2.02248 4.82905 2.00234 4.7847 2.01158 4.7501C2.02082 4.71566 2.03633 4.70342 2.05032 4.69335C2.06427 4.68324 2.09357 4.67104 2.09357 4.67104C2.09357 4.67104 2.11689 4.65688 2.12458 4.65475C2.13228 4.65273 2.16023 4.64262 2.16023 4.64262C2.16023 4.64262 2.16795 4.63659 2.17565 4.63255C2.18346 4.62851 2.19424 4.62851 2.2005 4.62637C2.20666 4.62435 2.22219 4.61749 2.23143 4.6168C2.2458 4.616 2.26862 4.62031 2.27643 4.62031C2.28412 4.62031 2.31044 4.62244 2.32123 4.62244C2.33202 4.62244 2.37072 4.61829 2.38162 4.61829C2.39241 4.61829 2.40021 4.61642 2.41266 4.61829C2.42499 4.62031 2.44665 4.63038 2.45291 4.63457C2.45909 4.63862 2.49628 4.65689 2.51015 4.66295C2.52411 4.66886 2.55821 4.67706 2.57374 4.68717C2.58914 4.69739 2.5986 4.71448 2.6063 4.72871C2.61411 4.74286 2.61554 4.7583 2.61863 4.76852C2.62161 4.77863 2.62172 4.80041 2.61874 4.81052C2.61562 4.82059 2.60467 4.84145 2.60467 4.84145L2.58759 4.8799L2.56594 4.90412C2.56594 4.90412 2.5504 4.92456 2.5381 4.92243C2.52566 4.92067 2.51015 4.96684 2.32123 4.96684C2.13231 4.96684 2.10205 4.92243 2.10205 4.92243C2.10216 4.92242 2.09664 4.92242 2.08894 4.91636V4.91636Z" stroke="#262626" stroke-width="0.1"/>
<path d="M2.16447 4.86218L2.161 4.82261L2.15399 4.78139L2.14654 4.72993C2.10538 4.67127 2.06752 4.63278 2.05481 4.64103C2.05785 4.63018 2.06144 4.62207 2.06939 4.61707C2.10598 4.59359 2.1815 4.64995 2.23827 4.74253C2.24337 4.75101 2.24828 4.75946 2.2526 4.76794H2.29392C2.29392 4.76794 2.26172 4.68215 2.27872 4.63996C2.28427 4.6262 2.3044 4.62843 2.3044 4.62843V4.58149H2.28067V4.56572H2.3044V4.53711H2.32174V4.56572H2.34424V4.58149H2.32115C2.32115 4.58149 2.32077 4.62112 2.32174 4.62843C2.32424 4.62843 2.34424 4.62843 2.34974 4.64079C2.36338 4.66617 2.33624 4.76794 2.33624 4.76794H2.376C2.376 4.76794 2.38533 4.75111 2.39046 4.74253C2.4471 4.64995 2.52271 4.59359 2.5592 4.61707C2.56712 4.62207 2.57075 4.63018 2.57388 4.64103C2.56108 4.63292 2.52331 4.67127 2.48194 4.72993L2.47458 4.78139L2.4676 4.82261L2.46419 4.86218H2.314H2.16447Z" fill="#DEAD00"/>
<path d="M2.16447 4.86218L2.161 4.82261L2.15399 4.78139L2.14654 4.72993C2.10538 4.67127 2.06752 4.63278 2.05481 4.64103C2.05785 4.63018 2.06144 4.62207 2.06939 4.61707C2.10598 4.59359 2.1815 4.64995 2.23827 4.74253C2.24337 4.75101 2.24828 4.75946 2.2526 4.76794H2.29392C2.29392 4.76794 2.26172 4.68215 2.27872 4.63996C2.28427 4.6262 2.3044 4.62843 2.3044 4.62843V4.58149H2.28067V4.56572H2.3044V4.53711H2.32174V4.56572H2.34424V4.58149H2.32115C2.32115 4.58149 2.32077 4.62112 2.32174 4.62843C2.32424 4.62843 2.34424 4.62843 2.34974 4.64079C2.36338 4.66617 2.33624 4.76794 2.33624 4.76794H2.376C2.376 4.76794 2.38533 4.75111 2.39046 4.74253C2.4471 4.64995 2.52271 4.59359 2.5592 4.61707C2.56712 4.62207 2.57075 4.63018 2.57388 4.64103C2.56108 4.63292 2.52331 4.67127 2.48194 4.72993L2.47458 4.78139L2.4676 4.82261L2.46419 4.86218H2.314H2.16447Z" stroke="#262626" stroke-width="0.1"/>
<path d="M2.32699 4.76603C2.3256 4.76925 2.32526 4.77266 2.32526 4.77629C2.32526 4.79231 2.34054 4.80531 2.35953 4.80531C2.37468 4.80531 2.38746 4.79691 2.39194 4.78527C2.39252 4.78558 2.39527 4.77471 2.39666 4.7749C2.39768 4.7749 2.39756 4.78616 2.39814 4.78596C2.40021 4.80052 2.41515 4.81049 2.43194 4.81049C2.4508 4.81049 2.46593 4.79749 2.46593 4.78147C2.46593 4.78028 2.46593 4.77912 2.46575 4.77795L2.47643 4.76836L2.48229 4.78059C2.47988 4.7843 2.47908 4.7886 2.47908 4.7932C2.47908 4.80855 2.49368 4.82097 2.51159 4.82097C2.52298 4.82097 2.53285 4.81598 2.53872 4.80855L2.54563 4.80074L2.54551 4.81041C2.54551 4.81997 2.55011 4.82859 2.56057 4.83015C2.56057 4.83015 2.5724 4.83092 2.58851 4.81959C2.60438 4.80836 2.61311 4.79896 2.61311 4.79896L2.6141 4.81049C2.6141 4.81049 2.59851 4.83356 2.58425 4.8409C2.57653 4.845 2.55489 4.91924 2.54551 4.91777C2.54471 4.91766 2.43788 4.88881 2.31814 4.88867C2.20368 4.88854 2.09537 4.92364 2.09054 4.9243C2.08113 4.92577 2.05974 4.845 2.05193 4.8409C2.03767 4.83356 2.02087 4.81049 2.02087 4.81049L2.02307 4.79896C2.02307 4.79896 2.03192 4.80836 2.04767 4.81959C2.06366 4.83092 2.0756 4.83015 2.0756 4.83015C2.08607 4.82859 2.09067 4.81997 2.09067 4.81041L2.09054 4.80074L2.09743 4.80855C2.10329 4.81598 2.1132 4.82097 2.12456 4.82097C2.1425 4.82097 2.1571 4.80855 2.1571 4.7932C2.1571 4.7886 2.15629 4.7843 2.15401 4.78059L2.15975 4.76836L2.17043 4.77795C2.17022 4.77912 2.17009 4.78028 2.17009 4.78147C2.17009 4.79749 2.18528 4.81049 2.20423 4.81049C2.22102 4.81049 2.23584 4.80052 2.23803 4.78596C2.2385 4.78616 2.23837 4.7749 2.23952 4.7749C2.2409 4.77471 2.24378 4.78558 2.24424 4.78527C2.24871 4.79691 2.26159 4.80531 2.27677 4.80531C2.2956 4.80531 2.31091 4.79231 2.31091 4.77629C2.31091 4.77266 2.31067 4.76925 2.30918 4.76603L2.31814 4.76465L2.32699 4.76603Z" fill="#DEAD00"/>
<path d="M2.32699 4.76603C2.3256 4.76925 2.32526 4.77266 2.32526 4.77629C2.32526 4.79231 2.34054 4.80531 2.35953 4.80531C2.37468 4.80531 2.38746 4.79691 2.39194 4.78527C2.39252 4.78558 2.39527 4.77471 2.39666 4.7749C2.39768 4.7749 2.39756 4.78616 2.39814 4.78596C2.40021 4.80052 2.41515 4.81049 2.43194 4.81049C2.4508 4.81049 2.46593 4.79749 2.46593 4.78147C2.46593 4.78028 2.46593 4.77912 2.46575 4.77795L2.47643 4.76836L2.48229 4.78059C2.47988 4.7843 2.47908 4.7886 2.47908 4.7932C2.47908 4.80855 2.49368 4.82097 2.51159 4.82097C2.52298 4.82097 2.53285 4.81598 2.53872 4.80855L2.54563 4.80074L2.54551 4.81041C2.54551 4.81997 2.55011 4.82859 2.56057 4.83015C2.56057 4.83015 2.5724 4.83092 2.58851 4.81959C2.60438 4.80836 2.61311 4.79896 2.61311 4.79896L2.6141 4.81049C2.6141 4.81049 2.59851 4.83356 2.58425 4.8409C2.57653 4.845 2.55489 4.91924 2.54551 4.91777C2.54471 4.91766 2.43788 4.88881 2.31814 4.88867C2.20368 4.88854 2.09537 4.92364 2.09054 4.9243C2.08113 4.92577 2.05974 4.845 2.05193 4.8409C2.03767 4.83356 2.02087 4.81049 2.02087 4.81049L2.02307 4.79896C2.02307 4.79896 2.03192 4.80836 2.04767 4.81959C2.06366 4.83092 2.0756 4.83015 2.0756 4.83015C2.08607 4.82859 2.09067 4.81997 2.09067 4.81041L2.09054 4.80074L2.09743 4.80855C2.10329 4.81598 2.1132 4.82097 2.12456 4.82097C2.1425 4.82097 2.1571 4.80855 2.1571 4.7932C2.1571 4.7886 2.15629 4.7843 2.15401 4.78059L2.15975 4.76836L2.17043 4.77795C2.17022 4.77912 2.17009 4.78028 2.17009 4.78147C2.17009 4.79749 2.18528 4.81049 2.20423 4.81049C2.22102 4.81049 2.23584 4.80052 2.23803 4.78596C2.2385 4.78616 2.23837 4.7749 2.23952 4.7749C2.2409 4.77471 2.24378 4.78558 2.24424 4.78527C2.24871 4.79691 2.26159 4.80531 2.27677 4.80531C2.2956 4.80531 2.31091 4.79231 2.31091 4.77629C2.31091 4.77266 2.31067 4.76925 2.30918 4.76603L2.31814 4.76465L2.32699 4.76603Z" stroke="#262626" stroke-width="0.1"/>
<path d="M4.92888 3.62614C4.99519 3.65969 5.08422 3.68447 5.18167 3.69907C5.25588 3.7102 5.3264 3.71248 5.38774 3.70722C5.46977 3.70542 5.58842 3.73234 5.70711 3.7909C5.80534 3.83976 5.88734 3.89914 5.94181 3.95662L5.89467 4.00367L5.88104 4.13727L5.75173 4.30322L5.68711 4.36467L5.53405 4.502L5.45587 4.50916L5.43209 4.58497C5.43209 4.58497 5.70711 4.98259 4.47086 4.95851C3.23462 4.93442 3.44847 4.58497 3.44847 4.58497L3.42466 4.50916L3.34636 4.502L3.19332 4.36467L3.12868 4.30322L2.99942 4.13727L2.98597 4.00367L2.9386 3.95662C2.99331 3.89914 3.07534 3.83976 3.17333 3.7909C3.29201 3.73234 3.41069 3.70542 3.49266 3.70722C3.554 3.71248 3.62455 3.7102 3.69877 3.69907C3.79625 3.68447 3.88537 3.65969 3.95155 3.62614C4.06754 3.57467 4.23548 3.5415 4.43525 3.5415C4.63514 3.5415 4.81302 3.57467 4.92888 3.62614Z" fill="#F1453D"/>
<path d="M4.92888 3.62614C4.99519 3.65969 5.08422 3.68447 5.18167 3.69907C5.25588 3.7102 5.3264 3.71248 5.38774 3.70722C5.46977 3.70542 5.58842 3.73234 5.70711 3.7909C5.80534 3.83976 5.88734 3.89914 5.94181 3.95662L5.89467 4.00367L5.88104 4.13727L5.75173 4.30322L5.68711 4.36467L5.53405 4.502L5.45587 4.50916L5.43209 4.58497C5.43209 4.58497 5.70711 4.98259 4.47086 4.95851C3.23462 4.93442 3.44847 4.58497 3.44847 4.58497L3.42466 4.50916L3.34636 4.502L3.19332 4.36467L3.12868 4.30322L2.99942 4.13727L2.98597 4.00367L2.9386 3.95662C2.99331 3.89914 3.07534 3.83976 3.17333 3.7909C3.29201 3.73234 3.41069 3.70542 3.49266 3.70722C3.554 3.71248 3.62455 3.7102 3.69877 3.69907C3.79625 3.68447 3.88537 3.65969 3.95155 3.62614C4.06754 3.57467 4.23548 3.5415 4.43525 3.5415C4.63514 3.5415 4.81302 3.57467 4.92888 3.62614V3.62614Z" stroke="#262626" stroke-width="0.1"/>
<path d="M4.40006 3.15877C4.49392 3.15877 4.57001 3.07316 4.57001 2.96757C4.57001 2.86197 4.49392 2.77637 4.40006 2.77637C4.30619 2.77637 4.2301 2.86197 4.2301 2.96757C4.2301 3.07316 4.30619 3.15877 4.40006 3.15877Z" fill="#346DA6"/>
<path fill-rule="evenodd" clip-rule="evenodd" d="M3.68678 3.89519C3.68105 3.91802 3.67883 3.94229 3.68105 3.96602C3.68105 3.96602 3.67451 3.95856 3.65367 3.95396C3.63283 3.9494 3.61834 3.95582 3.61834 3.95582C3.61834 3.95582 3.63408 3.98748 3.64049 3.99847C3.64703 4.00934 3.65867 4.0452 3.67579 4.07494C3.67974 4.08184 3.68388 4.08827 3.6879 4.09408C3.68183 4.09177 3.67542 4.08956 3.66892 4.08767C3.6457 4.08094 3.60485 4.08068 3.59251 4.08043C3.58017 4.08004 3.55552 4.07942 3.55552 4.07942C3.55552 4.07942 3.55757 4.08565 3.56458 4.09923C3.57302 4.11562 3.58053 4.12589 3.58053 4.12589C3.53964 4.13633 3.50483 4.16616 3.48281 4.20074C3.51476 4.22523 3.55721 4.2401 3.59891 4.23539C3.59891 4.23539 3.59527 4.24774 3.59264 4.2664C3.59046 4.28178 3.59059 4.28812 3.59059 4.28812C3.59059 4.28812 3.61355 4.27872 3.62505 4.27403C3.63654 4.26932 3.67486 4.25458 3.69458 4.23985C3.70355 4.23304 3.71318 4.22763 3.72193 4.22346C3.73187 4.24362 3.73585 4.26622 3.73585 4.29043C3.73585 4.37156 3.672 4.43718 3.59321 4.43718C3.54373 4.43718 3.50003 4.41125 3.47449 4.3719L3.44451 4.33045L3.44473 4.38129C3.44473 4.43235 3.42492 4.47816 3.37907 4.48625C3.37907 4.48625 3.3265 4.48988 3.25671 4.43026C3.23499 4.4117 3.21631 4.39414 3.20087 4.37875C3.20607 4.37775 3.20997 4.37812 3.211 4.38207C3.22359 4.3848 3.24434 4.38824 3.26286 4.38956C3.28796 4.39144 3.32986 4.38396 3.34262 4.38207C3.3552 4.38004 3.38064 4.376 3.38064 4.376C3.38064 4.376 3.37743 4.37077 3.36758 4.35957C3.35577 4.34638 3.34283 4.33438 3.34283 4.33438C3.37884 4.31903 3.40619 4.28905 3.4206 4.25717C3.3869 4.24243 3.34361 4.23565 3.30671 4.24112C3.30671 4.24112 3.30794 4.23053 3.30716 4.21329C3.30635 4.19889 3.30557 4.19305 3.30557 4.19305C3.30557 4.19305 3.28484 4.20901 3.26471 4.2196C3.24455 4.23029 3.20585 4.25373 3.19069 4.27512C3.17551 4.29667 3.16547 4.32901 3.16547 4.32901C3.16547 4.32901 3.18563 4.25373 3.16715 4.20162C3.14864 4.14965 3.10826 4.14061 3.10826 4.14061L3.10155 4.17653C3.0912 4.162 3.07655 4.15116 3.05982 4.14507L3.143 3.97679C3.09263 3.92748 3.06046 3.85525 3.06046 3.77466C3.06046 3.7351 3.06823 3.69739 3.08211 3.6636C3.13424 3.531 3.31415 3.43287 3.52921 3.43287C3.57052 3.43287 3.6105 3.43647 3.64857 3.44323C3.63167 3.47825 3.62164 3.51582 3.61972 3.55468C3.6188 3.56519 3.61834 3.57581 3.61834 3.58642C3.61834 3.68268 3.65685 3.76937 3.71769 3.82965L3.71492 3.83484C3.71435 3.8344 3.71379 3.83397 3.71322 3.83354C3.70456 3.8468 3.69731 3.8619 3.69182 3.87806L3.68402 3.89267L3.68678 3.89519ZM3.75509 3.87758C3.76893 3.89761 3.77964 3.92079 3.78497 3.94535C3.78497 3.94535 3.78885 3.93592 3.807 3.92349C3.82531 3.91131 3.8408 3.91168 3.8408 3.91168C3.8408 3.91168 3.83557 3.94743 3.83301 3.96027C3.83035 3.97282 3.83009 4.0112 3.82312 4.04576C3.82155 4.05347 3.81971 4.06083 3.81778 4.06762C3.83846 4.05472 3.86959 4.04268 3.87974 4.03865C3.89125 4.03396 3.91428 4.02442 3.91428 4.02442C3.91428 4.02442 3.91438 4.0309 3.9122 4.04628C3.90956 4.06483 3.90589 4.07715 3.90589 4.07715C3.94771 4.07232 3.99029 4.08781 4.02229 4.11245C4.00027 4.14688 3.96515 4.1762 3.92433 4.18665C3.92433 4.18665 3.93171 4.19691 3.9403 4.2133C3.94732 4.22702 3.9494 4.23311 3.9494 4.23311C3.9494 4.23311 3.92469 4.2325 3.91233 4.23225C3.89997 4.232 3.85905 4.23185 3.8358 4.22501C3.81985 4.2203 3.80436 4.21378 3.79317 4.20861L3.79391 4.2094C3.79321 4.21553 3.79278 4.22185 3.79278 4.22818C3.79278 4.31321 3.85953 4.38188 3.94203 4.38188C4.01558 4.38188 4.08069 4.32938 4.09027 4.25178C4.09232 4.25285 4.09177 4.19392 4.09698 4.19332C4.10316 4.19262 4.11535 4.24992 4.1174 4.24829C4.13691 4.30991 4.19325 4.35452 4.25973 4.35452C4.34226 4.35452 4.40911 4.28547 4.40911 4.20061C4.40911 4.18157 4.40807 4.1635 4.40191 4.14695L4.40687 4.14599C4.40393 4.13419 4.40105 4.12253 4.39827 4.11159C4.37403 4.1192 4.34865 4.12617 4.35369 4.1323C4.35369 4.1323 4.32754 4.15274 4.29857 4.16691C4.27662 4.17785 4.23587 4.18524 4.22365 4.18791C4.21134 4.19032 4.1869 4.19518 4.1869 4.19518C4.1869 4.19518 4.18788 4.18878 4.19262 4.17452C4.19836 4.15684 4.20408 4.14569 4.20408 4.14569C4.16161 4.14268 4.12182 4.12045 4.09415 4.09118C4.12182 4.06165 4.16173 4.03889 4.20408 4.03613C4.20408 4.03613 4.19836 4.02485 4.19262 4.00727C4.18788 3.99279 4.1869 3.98648 4.1869 3.98648C4.1869 3.98648 4.21134 3.99147 4.22365 3.99401C4.23587 3.99645 4.27662 4.00394 4.29857 4.01479C4.32754 4.02893 4.35326 4.04971 4.35326 4.04971C4.34906 4.05466 4.366 4.06043 4.38583 4.06669C4.38147 4.05333 4.3778 4.04614 4.37521 4.04924C4.37521 4.04924 4.35592 4.02424 4.34198 3.991C4.32787 3.958 4.32092 3.91971 4.31571 3.90749C4.3104 3.8953 4.29808 3.8604 4.29808 3.8604C4.29808 3.8604 4.31571 3.85701 4.33842 3.8657C4.36123 3.87439 4.3673 3.88308 4.3673 3.88308C4.36766 3.87763 4.36828 3.87221 4.36916 3.86682L4.2301 3.72236C4.25236 3.65788 4.26776 3.55258 4.26985 3.4333C4.26997 3.42643 4.27116 3.41919 4.27116 3.41246C4.27116 3.40665 4.27078 3.40088 4.27091 3.39497C4.27119 3.375 4.27195 3.35546 4.27312 3.33649C4.21066 3.30063 4.13225 3.27933 4.04724 3.27933C3.84295 3.27933 3.68209 3.40396 3.67547 3.55479C3.6743 3.56519 3.67375 3.57567 3.67375 3.58642C3.67375 3.68155 3.72088 3.76506 3.78963 3.81312L3.75509 3.87758ZM4.27859 3.27517C4.28009 3.26234 4.28179 3.24989 4.28367 3.23787C4.29468 3.18484 4.34346 3.14531 4.39783 3.14531C4.4524 3.14531 4.49924 3.18484 4.51038 3.23787C4.51302 3.25487 4.5153 3.27272 4.51719 3.29129C4.58915 3.24767 4.67951 3.22178 4.77773 3.22178C4.93553 3.22178 5.07025 3.29063 5.14436 3.39059C5.19218 3.38022 5.24292 3.37472 5.29556 3.37472C5.53053 3.37472 5.7282 3.4854 5.79132 3.63749C5.8086 3.67915 5.81822 3.72584 5.81822 3.77466C5.81822 3.85563 5.79153 3.92968 5.74795 3.98714L5.82705 4.15753C5.82879 4.15743 5.83055 4.15738 5.8323 4.15738C5.88251 4.15738 5.92145 4.20065 5.92145 4.25418C5.92145 4.25418 5.85597 4.24824 5.81724 4.27169C5.77854 4.29486 5.74586 4.36467 5.74586 4.36467C5.74533 4.36345 5.74128 4.36613 5.73671 4.36937L5.73789 4.38105C5.73789 4.38105 5.67998 4.47839 5.61693 4.51808C5.58248 4.53992 5.53015 4.56279 5.48853 4.5554C5.4445 4.54764 5.41314 4.50926 5.39697 4.46501C5.36558 4.48509 5.32853 4.49681 5.28885 4.49681C5.20356 4.49681 5.12692 4.44597 5.0966 4.36943C5.05737 4.41544 5.00274 4.44374 4.93868 4.44374C4.87058 4.44374 4.8082 4.41041 4.7691 4.35921C4.73067 4.39726 4.67843 4.42074 4.62086 4.42074C4.54547 4.42074 4.47822 4.38059 4.4401 4.32C4.40203 4.38059 4.33485 4.42074 4.25958 4.42074C4.20204 4.42074 4.14968 4.39726 4.11122 4.35921C4.07226 4.41041 4.00977 4.44374 3.94169 4.44374C3.8776 4.44374 3.82297 4.41544 3.78371 4.36943C3.75343 4.44597 3.67681 4.49681 3.5915 4.49681C3.55178 4.49681 3.51488 4.48509 3.48353 4.46501C3.4672 4.50926 3.43585 4.54764 3.39194 4.5554C3.35032 4.56279 3.29799 4.53992 3.26345 4.51808C3.20037 4.47839 3.14252 4.38105 3.14252 4.38105L3.14296 4.37674C3.12948 4.36176 3.11483 4.34517 3.11416 4.34672C3.11416 4.34672 3.08136 4.2769 3.04266 4.25373C3.00408 4.23029 2.9386 4.23623 2.9386 4.23623C2.9386 4.19338 2.96354 4.15711 2.99923 4.14434L3.0769 3.98714C3.03329 3.92968 3.00657 3.85563 3.00657 3.77466C3.00657 3.72584 3.01619 3.67915 3.03362 3.63749C3.09662 3.4854 3.29428 3.37472 3.52921 3.37472C3.58187 3.37472 3.63265 3.38023 3.6805 3.39061C3.7546 3.29064 3.88937 3.22178 4.04724 3.22178C4.1325 3.22178 4.21199 3.24137 4.27859 3.27517ZM4.47159 3.81917C4.48096 3.83928 4.48708 3.86104 4.48855 3.88308C4.48855 3.88308 4.49446 3.87439 4.5173 3.8657C4.54011 3.85701 4.55761 3.8604 4.55761 3.8604C4.55761 3.8604 4.54545 3.8953 4.54011 3.90749C4.5348 3.91971 4.52794 3.958 4.51371 3.991C4.49989 4.02424 4.48061 4.04924 4.48061 4.04924C4.47825 4.04642 4.47633 4.0521 4.47462 4.06317C4.49267 4.05826 4.50581 4.05372 4.5024 4.04971C4.5024 4.04971 4.52817 4.02893 4.55715 4.01479C4.5792 4.00394 4.61997 3.99645 4.6322 3.99401C4.64431 3.99147 4.66874 3.98648 4.66874 3.98648C4.66874 3.98648 4.6679 3.99279 4.66302 4.00727C4.65727 4.02485 4.65166 4.03613 4.65166 4.03613C4.69406 4.03889 4.73394 4.06165 4.76153 4.09118C4.73394 4.12045 4.69415 4.14268 4.65166 4.14569C4.65166 4.14569 4.65727 4.15684 4.66302 4.17452C4.66778 4.18878 4.66874 4.19518 4.66874 4.19518C4.66874 4.19518 4.64443 4.19032 4.6322 4.18791C4.61997 4.18524 4.5792 4.17785 4.55715 4.16691C4.52817 4.15274 4.502 4.1323 4.502 4.1323C4.50571 4.1278 4.48977 4.12284 4.46928 4.1175C4.46859 4.12627 4.4679 4.13542 4.46718 4.14467L4.47856 4.14695C4.4725 4.1635 4.47125 4.18157 4.47125 4.20061C4.47125 4.28547 4.53831 4.35452 4.62086 4.35452C4.68713 4.35452 4.74357 4.30991 4.76295 4.24829C4.76512 4.24992 4.77722 4.19263 4.78347 4.19332C4.7887 4.19392 4.78815 4.25285 4.79008 4.25178C4.79967 4.32938 4.86489 4.38188 4.93832 4.38188C5.02076 4.38188 5.0876 4.31321 5.0876 4.22818C5.0876 4.22185 5.08727 4.21553 5.08647 4.2094L5.10907 4.18506C5.10891 4.17813 5.10879 4.17109 5.10868 4.16411C5.09424 4.16098 5.08458 4.15652 5.08774 4.16229C5.08774 4.16229 5.0588 4.17803 5.02826 4.18707C5.00517 4.19392 4.96396 4.19406 4.95173 4.19431C4.93937 4.19457 4.91482 4.19518 4.91482 4.19518C4.91482 4.19518 4.91673 4.18909 4.92386 4.17537C4.93238 4.15898 4.93976 4.14871 4.93976 4.14871C4.89894 4.13827 4.86395 4.10895 4.84187 4.07452C4.87374 4.04988 4.91638 4.03439 4.95817 4.03922C4.95817 4.03922 4.95453 4.0269 4.95196 4.00835C4.94981 3.99297 4.94991 3.98648 4.94991 3.98648C4.94991 3.98648 4.97281 3.99603 4.98432 4.00071C4.9958 4.00529 5.03434 4.02016 5.05395 4.03489C5.07562 4.05121 5.09437 4.07166 5.09981 4.07778C5.09624 4.0693 5.08719 4.04637 5.08166 4.01911C5.07468 3.98456 5.07459 3.94617 5.0719 3.93363C5.06921 3.92078 5.06395 3.88504 5.06395 3.88504C5.06395 3.88504 5.06806 3.88494 5.07453 3.88649L5.03521 3.81312C5.10392 3.76506 5.15108 3.68155 5.15108 3.58642C5.15108 3.57567 5.15053 3.56519 5.14939 3.55479C5.14286 3.40396 4.98177 3.27933 4.77773 3.27933C4.67841 3.27933 4.58834 3.30829 4.52194 3.35553C4.52256 3.36845 4.523 3.38161 4.52324 3.39497C4.52333 3.40088 4.52286 3.40665 4.52286 3.41246C4.52303 3.41919 4.52417 3.42643 4.52426 3.4333C4.52613 3.55258 4.54166 3.65788 4.56379 3.72236L4.47159 3.81917ZM5.13354 3.87906C5.14751 3.84961 5.16852 3.82422 5.19154 3.8069C5.21495 3.84276 5.22825 3.89213 5.22358 3.93938C5.22358 3.93938 5.23012 3.93192 5.25099 3.92732C5.27183 3.92275 5.28641 3.92917 5.28641 3.92917C5.28641 3.92917 5.27055 3.96084 5.26413 3.97182C5.25784 3.9827 5.24608 4.01856 5.22909 4.04829C5.21194 4.07802 5.19167 4.09907 5.19167 4.09907C5.19063 4.09703 5.18905 4.09796 5.18704 4.10117C5.19388 4.10047 5.19766 4.09901 5.19603 4.09609C5.19603 4.09609 5.22446 4.0801 5.25504 4.0712C5.2783 4.06447 5.3193 4.06422 5.33149 4.06396C5.34387 4.06357 5.36853 4.06296 5.36853 4.06296C5.36853 4.06296 5.36658 4.06919 5.35949 4.08277C5.35098 4.09915 5.34351 4.10942 5.34351 4.10942C5.38438 4.11987 5.41921 4.14969 5.44127 4.18427C5.40943 4.20876 5.36697 4.22364 5.32512 4.21892C5.32512 4.21892 5.32885 4.23127 5.33142 4.24993C5.33344 4.26531 5.33334 4.27165 5.33334 4.27165C5.33334 4.27165 5.31033 4.26225 5.29899 4.25757C5.28749 4.25285 5.24912 4.23812 5.2294 4.22338C5.20376 4.20383 5.18174 4.17865 5.18174 4.17865C5.18602 4.17482 5.17328 4.18108 5.15694 4.18289C5.15472 4.18941 5.15249 4.19591 5.15026 4.20222L5.1585 4.22325C5.14848 4.24346 5.1445 4.26613 5.1445 4.29043C5.1445 4.37156 5.20835 4.43718 5.28717 4.43718C5.33675 4.43718 5.38029 4.41125 5.40586 4.3719L5.43584 4.33045L5.43562 4.38129C5.43562 4.43235 5.45546 4.47816 5.5013 4.48625C5.5013 4.48625 5.55394 4.48978 5.62367 4.43026C5.63718 4.41873 5.64951 4.40759 5.66062 4.39712C5.65475 4.39567 5.6502 4.39559 5.64904 4.40002C5.63655 4.40275 5.61579 4.40619 5.59728 4.40751C5.57218 4.4094 5.53012 4.40191 5.51754 4.40002C5.50481 4.398 5.4795 4.39395 5.4795 4.39395C5.4795 4.39395 5.48262 4.38872 5.49241 4.37752C5.50424 4.36434 5.51718 4.35233 5.51718 4.35233C5.48127 4.33698 5.45383 4.307 5.43945 4.27513C5.47312 4.26039 5.51632 4.25361 5.55334 4.25907C5.55334 4.25907 5.55211 4.24848 5.55289 4.23124C5.55367 4.21684 5.55457 4.21101 5.55457 4.21101C5.55457 4.21101 5.57521 4.22696 5.5954 4.23755C5.61559 4.24824 5.65429 4.27169 5.66935 4.29307C5.67787 4.30519 5.68766 4.33748 5.6946 4.36344C5.69515 4.36286 5.6957 4.36228 5.69625 4.36171C5.68907 4.31961 5.6809 4.25347 5.69287 4.21957C5.71141 4.1676 5.75179 4.15856 5.75179 4.15856L5.75856 4.19448C5.76336 4.18766 5.76914 4.18166 5.77565 4.17658L5.6817 3.97679C5.73207 3.92748 5.76424 3.85525 5.76424 3.77466C5.76424 3.7351 5.75656 3.69739 5.74259 3.6636C5.69058 3.531 5.51057 3.43287 5.29544 3.43287C5.25436 3.43287 5.2143 3.43646 5.1763 3.44322C5.19321 3.47824 5.20325 3.51581 5.2052 3.55468C5.20599 3.56519 5.20645 3.57581 5.20645 3.58642C5.20645 3.68268 5.168 3.76937 5.10714 3.82965L5.13354 3.87906ZM5.12209 3.9098C5.12128 3.91275 5.12055 3.91572 5.11989 3.9187C5.11989 3.9187 5.11921 3.9171 5.11714 3.91434L5.12209 3.9098ZM5.10523 4.08564C5.10428 4.0814 5.10302 4.07967 5.10134 4.08129C5.10134 4.08129 5.10117 4.08093 5.10087 4.08023C5.09998 4.08175 5.10174 4.08355 5.10523 4.08564ZM3.49699 4.77922C3.50623 4.77429 3.46164 4.74013 3.44045 4.69666C3.4163 4.6471 3.41442 4.58782 3.41442 4.58782C3.67742 4.50051 4.04353 4.44589 4.451 4.44531C4.85863 4.44589 5.22767 4.50051 5.49071 4.58782C5.49071 4.58782 5.47872 4.6445 5.45385 4.69666C5.43473 4.73675 5.3995 4.77464 5.4081 4.77922C5.17024 4.69689 4.82594 4.64385 4.44942 4.64302C4.07286 4.64385 3.73488 4.69689 3.49699 4.77922ZM4.3598 2.76241H4.28894V2.82548H4.3598V2.91189V3.00693H4.27053C4.26948 3.01285 4.26409 3.01716 4.26409 3.02335C4.26409 3.03924 4.26765 3.05451 4.27421 3.06828C4.27439 3.06865 4.27495 3.06877 4.27513 3.06914H4.51258C4.51277 3.06877 4.51333 3.06865 4.5135 3.06828C4.52006 3.05451 4.52363 3.03924 4.52363 3.02335C4.52363 3.01718 4.51822 3.01283 4.51718 3.00693H4.43067V2.91275V2.82548H4.50154V2.76241H4.43067V2.7002H4.3598L4.3598 2.76241Z" fill="#E5B731" stroke="#262626" stroke-width="0.1"/>
</g>
<defs>
<clipPath id="clip0_4131_74968">
<rect width="16" height="12" fill="white"/>
</clipPath>
</defs>
</svg>
