<svg width="16" height="16" viewBox="0 0 16 16" fill="none" xmlns="http://www.w3.org/2000/svg">
<mask id="mask0_3722_2981" style="mask-type:luminance" maskUnits="userSpaceOnUse" x="3" y="3" width="10" height="10">
<path d="M12.8 3.84009H3.35999V12.9068H12.8V3.84009Z" fill="white"/>
</mask>
<g mask="url(#mask0_3722_2981)">
<path fill-rule="evenodd" clip-rule="evenodd" d="M3.37751 11.8158C3.37752 11.8667 3.43843 11.8898 3.4749 11.854L10.1585 5.29836C10.7022 4.7651 10.3216 3.84572 9.55736 3.84595L5.08465 3.84726C4.14029 3.84754 3.37497 4.60776 3.37531 5.54524L3.37751 11.8158Z" fill="#010644"/>
<path d="M12.7785 11.0604V4.22375C12.7785 3.88074 12.3584 3.71162 12.1177 3.95775L4.00783 12.2526C3.77104 12.4948 3.94327 12.9005 4.28326 12.9005H11.0761C12.3083 12.9005 12.7785 11.7295 12.7785 11.0604Z" fill="#010644"/>
<path d="M10.4275 12.9004C12.5137 11.0722 11.0165 10.0976 9.82833 9.89317C7.26097 9.45162 6.40667 8.78543 6.40667 8.78543C5.90139 8.49887 6.2055 8.04229 6.65083 7.66693L6.74987 7.58154C6.85019 7.49903 6.94705 7.36794 6.83051 7.20618C6.73355 7.07167 6.53318 7.06885 6.3639 7.17162L5.88507 7.48026L5.4063 7.7889C4.9969 8.05141 3.48873 8.74325 5.48182 9.99407C5.96993 10.5236 5.13291 10.9596 4.66611 11.4691C4.63932 11.4981 3.37441 12.8567 3.37439 12.9004C3.50477 12.9004 5.94129 12.9004 6.01041 12.9004H10.0001C10.0872 12.9007 10.3624 12.9004 10.4275 12.9004Z" fill="white"/>
<path d="M8.5468 11.2205C8.48621 10.8327 8.99432 10.9958 8.46947 10.6951C6.43171 9.52783 4.53115 8.9786 5.38045 8.27305C6.36989 7.45108 6.22675 7.59988 6.43171 7.42212" stroke="#010644" stroke-miterlimit="3.8637" stroke-linecap="round" stroke-linejoin="round" stroke-dasharray="3 3"/>
<path d="M7.64904 5.37435C7.64904 4.84374 7.23379 4.41357 6.72147 4.41357C6.70168 4.41357 6.68179 4.41357 6.66168 4.41357C6.17107 4.45102 5.79272 4.87636 5.79672 5.38587C5.80104 5.84235 6.13166 6.31221 6.41571 6.64059C6.57219 6.82149 6.85432 6.82171 7.0124 6.64219C7.30451 6.31051 7.64803 5.83493 7.64904 5.37435ZM7.09203 5.37435C7.09203 5.58661 6.92595 5.75867 6.72104 5.75867C6.51614 5.75867 6.35 5.58661 6.35 5.37435C6.35 5.16211 6.51614 4.99004 6.72104 4.99004C6.92595 4.99004 7.09203 5.16211 7.09203 5.37435Z" fill="#F7A31B"/>
<path d="M6.65992 12.4386C6.65634 12.4249 6.6548 12.4108 6.65528 12.3966L6.67096 11.9287L6.59528 11.8857V12.5239H6.69474C6.68248 12.5083 6.67325 12.4901 6.66802 12.4699L6.65992 12.4386Z" fill="#010644"/>
<path d="M6.75768 11.2997L6.84717 10.9757C6.86258 10.9199 6.91181 10.8804 6.96962 10.8774L7.63101 10.8433L8.29245 10.8774C8.35026 10.8804 8.39949 10.9199 8.41485 10.9757L8.50434 11.2997H8.64754C8.6541 11.2997 8.66056 11.3003 8.6668 11.3014V10.4067C8.6668 10.375 8.64109 10.3494 8.60941 10.3494H6.65261C6.62093 10.3494 6.59528 10.375 6.59528 10.4067V11.3014C6.60152 11.3003 6.60792 11.2997 6.61453 11.2997H6.75768Z" fill="#010644"/>
<path d="M8.60679 12.3966C8.60727 12.4108 8.60567 12.4249 8.60215 12.4387L8.59404 12.4699C8.58882 12.4901 8.57959 12.5083 8.56732 12.5239H8.66679V11.8857L8.59111 11.9287L8.60679 12.3966Z" fill="#010644"/>
<path d="M6.67444 11.7937L6.67561 11.7944L6.67566 11.793C6.67524 11.7932 6.67487 11.7934 6.67444 11.7937Z" fill="#010644"/>
<path d="M8.54975 11.4614H8.54895L8.54975 11.4642V11.4614Z" fill="#010644"/>
<path d="M6.71228 11.4614V11.4642L6.71303 11.4614H6.71228Z" fill="#010644"/>
<path d="M8.58655 11.793L8.5866 11.7944L8.58777 11.7937C8.58735 11.7934 8.58697 11.7932 8.58655 11.793Z" fill="#010644"/>
<path d="M6.59929 11.7981C6.59033 11.793 6.58478 11.7837 6.58409 11.7735C6.62974 11.7712 6.67118 11.7585 6.67118 11.7356V11.4436C6.67118 11.4207 6.6298 11.4081 6.58409 11.4057C6.58564 11.3903 6.5986 11.3781 6.61449 11.3781H6.73604L6.74633 11.3408H6.61449C6.5779 11.3408 6.54809 11.3698 6.5466 11.4061C6.50324 11.4092 6.46521 11.4217 6.46521 11.4436V11.7356C6.46521 11.7576 6.50324 11.7701 6.5466 11.7732C6.54724 11.7969 6.5602 11.8187 6.58089 11.8305L6.67246 11.8826L6.67385 11.8405L6.59929 11.7981Z" fill="#010644"/>
<path d="M8.64753 11.3781C8.66342 11.3781 8.67633 11.3903 8.67793 11.4057C8.63222 11.4081 8.59078 11.4207 8.59078 11.4436V11.7356C8.59078 11.7585 8.63222 11.7712 8.67793 11.7735C8.67723 11.7837 8.67163 11.793 8.66267 11.7981L8.58811 11.8405L8.58955 11.8826L8.68113 11.8305C8.70182 11.8187 8.71478 11.7969 8.71537 11.7732C8.75878 11.7701 8.79675 11.7576 8.79675 11.7356V11.4436C8.79675 11.4217 8.75873 11.4092 8.71537 11.4061C8.71393 11.3698 8.68411 11.3408 8.64753 11.3408H8.51569L8.52598 11.3781H8.64753Z" fill="#010644"/>
<path d="M8.20542 12.9005H8.4363C8.44638 12.9005 8.45454 12.8923 8.45454 12.8822V12.6878H8.52889V12.5583C8.50606 12.5726 8.47923 12.5807 8.45086 12.5807H6.81118C6.78281 12.5807 6.75603 12.5726 6.73315 12.5583V12.6878H6.8075V12.8822C6.8075 12.8923 6.81566 12.9005 6.82579 12.9005H7.05662C7.0667 12.9005 7.07491 12.8923 7.07491 12.8822V12.6878H8.18718V12.8822C8.18718 12.8923 8.19534 12.9005 8.20542 12.9005Z" fill="#010644"/>
<path d="M6.69958 12.4285L6.70769 12.4597C6.7199 12.5069 6.76246 12.5398 6.81121 12.5398H7.63099H8.45083C8.49953 12.5398 8.54209 12.5069 8.55435 12.4597L8.56241 12.4285C8.56497 12.4186 8.56614 12.4084 8.56577 12.3981L8.5391 11.6016C8.53851 11.5849 8.53601 11.5685 8.53158 11.5524L8.37531 10.9867C8.36465 10.948 8.33035 10.9205 8.2903 10.9184L7.63099 10.8845L6.97174 10.9184C6.93163 10.9205 6.89739 10.948 6.88673 10.9867L6.73046 11.5524C6.72603 11.5685 6.72347 11.5849 6.72294 11.6016L6.69622 12.3981C6.6959 12.4084 6.69702 12.4186 6.69958 12.4285ZM7.3959 12.436V12.3305C7.3959 12.3233 7.40182 12.3174 7.40907 12.3174H7.85297C7.86022 12.3174 7.86614 12.3233 7.86614 12.3305V12.436C7.86614 12.4433 7.86022 12.4492 7.85297 12.4492H7.40907C7.40182 12.4492 7.3959 12.4433 7.3959 12.436ZM8.44086 12.2393H8.1127V12.2107H8.44086V12.2393ZM8.44241 11.982V12.118C8.44241 12.125 8.4367 12.1307 8.42977 12.1307H8.12529C8.11835 12.1307 8.1127 12.125 8.1127 12.118V11.982C8.1127 11.975 8.11835 11.9693 8.12529 11.9693H8.42977C8.4367 11.9693 8.44241 11.975 8.44241 11.982ZM6.82118 12.2393V12.2107H7.14929V12.2393H6.82118ZM7.14934 12.118C7.14934 12.125 7.14369 12.1307 7.1367 12.1307H6.83227C6.82529 12.1307 6.81963 12.125 6.81963 12.118V11.982C6.81963 11.975 6.82529 11.9693 6.83227 11.9693H7.1367C7.14369 11.9693 7.14934 11.975 7.14934 11.982V12.118ZM6.95494 11.0055C6.9575 10.9963 6.96571 10.9896 6.97537 10.9892L7.63099 10.9554L8.28667 10.9892C8.29633 10.9896 8.30449 10.9963 8.3071 11.0055L8.46337 11.5712H6.79873L6.95494 11.0055Z" fill="#010644"/>
<path d="M7.5036 10.9946H7.75843V11.0655H7.5036V10.9946Z" fill="#010644"/>
<path d="M8.0196 11.4404C7.96926 11.4404 7.92824 11.4806 7.9267 11.5306H8.11251C8.11096 11.4806 8.06995 11.4404 8.0196 11.4404Z" fill="#010644"/>
<path d="M7.88681 11.5306C7.88836 11.4586 7.94724 11.4005 8.01956 11.4005C8.09188 11.4005 8.15076 11.4586 8.1523 11.5306H8.28777C8.27284 11.4419 8.24729 11.382 8.21092 11.3499C8.18937 11.3308 8.16852 11.3253 8.15401 11.3241C8.15198 11.3239 8.14996 11.3237 8.14788 11.3237H8.13993C8.10921 11.3547 8.06665 11.3737 8.01977 11.3737C8.01412 11.3737 8.00836 11.3734 8.00276 11.3728C7.96318 11.3689 7.92708 11.3516 7.89945 11.3237H7.89124C7.88916 11.3237 7.88713 11.3239 7.8851 11.3241C7.87065 11.3253 7.84974 11.3308 7.8282 11.3499C7.79182 11.382 7.76628 11.4419 7.75134 11.5306H7.88681Z" fill="#010644"/>
<path d="M8.01956 11.3538C8.10212 11.3538 8.169 11.2869 8.169 11.2044C8.169 11.1218 8.10212 11.0549 8.01956 11.0549C7.93705 11.0549 7.87012 11.1218 7.87012 11.2044C7.87012 11.2869 7.93705 11.3538 8.01956 11.3538Z" fill="#010644"/>
<path d="M6.72285 5.8277C6.9796 5.8277 7.1877 5.62108 7.1877 5.36626C7.1877 5.11139 6.9796 4.90479 6.72285 4.90479C6.46616 4.90479 6.258 5.11139 6.258 5.36626C6.258 5.62108 6.46616 5.8277 6.72285 5.8277Z" fill="white"/>
</g>
</svg>
