<svg width="16" height="16" viewBox="0 0 16 16" fill="none" xmlns="http://www.w3.org/2000/svg">
<path d="M10.5362 3.40725C9.846 2.8405 8.96275 2.5 8 2.5C5.79075 2.5 4 4.29075 4 6.5C4 8.70925 5.79075 10.5 8 10.5C10.2092 10.5 12 8.70925 12 6.5C12 6.0345 11.9165 5.5895 11.7702 5.174C11.126 4.808 10.6612 4.16475 10.5362 3.40725Z" fill="#FAB400"/>
<path d="M2 10.5H3.5V14H2V10.5Z" fill="#64C8F0"/>
<path d="M2 10.5H2.5V14H2V10.5Z" fill="#46AAD2"/>
<path d="M12.719 12.0352L9.09275 12.4885C9.031 12.4962 8.96875 12.5 8.9065 12.5H7.5C7.22375 12.5 7 12.2763 7 12L9.098 11.5805C9.33175 11.5337 9.5 11.3285 9.5 11.09V11H3.5V13L7.491 13.8868C7.82475 13.961 8.172 13.9483 8.4995 13.85L12.8217 12.5533C12.9275 12.5218 13 12.4245 13 12.314V12.2832C13 12.1327 12.8682 12.0165 12.719 12.0352Z" fill="#F0C8A0"/>
<path d="M5 6.5C5 4.4605 6.5275 2.781 8.5 2.5345C8.33575 2.514 8.16975 2.5 8 2.5C5.79075 2.5 4 4.29075 4 6.5C4 8.70925 5.79075 10.5 8 10.5C8.16975 10.5 8.33575 10.486 8.5 10.4655C6.5275 10.219 5 8.5395 5 6.5Z" fill="#DC9600"/>
<path d="M8 9C9.38071 9 10.5 7.88071 10.5 6.5C10.5 5.11929 9.38071 4 8 4C6.61929 4 5.5 5.11929 5.5 6.5C5.5 7.88071 6.61929 9 8 9Z" fill="#BE7800"/>
<path d="M8.80001 5.64275V5.0715H8.26676V4.5H7.73326V5.0715H7.20001V6.78575H8.26676V7.35725H7.20001V7.9285H7.73326V8.5H8.26676V7.9285H8.80001V6.21425H7.73326V5.64275H8.80001Z" fill="#FAB400"/>
<path d="M13 5C14.1046 5 15 4.10457 15 3C15 1.89543 14.1046 1 13 1C11.8954 1 11 1.89543 11 3C11 4.10457 11.8954 5 13 5Z" fill="#3CC8B4"/>
<path d="M11.5 3C11.5 1.98025 12.2638 1.1405 13.25 1.01725C13.168 1.007 13.0847 1 13 1C11.8955 1 11 1.8955 11 3C11 4.1045 11.8955 5 13 5C13.0847 5 13.168 4.993 13.25 4.98275C12.2638 4.8595 11.5 4.01975 11.5 3Z" fill="#1EAA96"/>
<path d="M14.25 2.5L12.75 4L11.75 3L12.25 2.5L12.75 3L13.75 2L14.25 2.5Z" fill="#F0F0F0"/>
</svg>
