<svg width="16" height="16" viewBox="0 0 16 16" fill="none" xmlns="http://www.w3.org/2000/svg">
<path d="M7.33334 2.66671C7.33334 1.93033 7.9303 1.33337 8.66668 1.33337C9.40306 1.33337 10 1.93033 10 2.66671V3.33337C10 3.70156 10.2985 4.00004 10.6667 4.00004H12.6667C13.0349 4.00004 13.3333 4.29852 13.3333 4.66671V6.66671C13.3333 7.0349 13.0349 7.33337 12.6667 7.33337H12C11.2636 7.33337 10.6667 7.93033 10.6667 8.66671C10.6667 9.40309 11.2636 10 12 10H12.6667C13.0349 10 13.3333 10.2985 13.3333 10.6667V12.6667C13.3333 13.0349 13.0349 13.3334 12.6667 13.3334H10.6667C10.2985 13.3334 10 13.0349 10 12.6667V12C10 11.2637 9.40306 10.6667 8.66668 10.6667C7.9303 10.6667 7.33334 11.2637 7.33334 12V12.6667C7.33334 13.0349 7.03487 13.3334 6.66668 13.3334H4.66668C4.29849 13.3334 4.00001 13.0349 4.00001 12.6667V10.6667C4.00001 10.2985 3.70153 10 3.33334 10H2.66668C1.9303 10 1.33334 9.40309 1.33334 8.66671C1.33334 7.93033 1.9303 7.33337 2.66668 7.33337H3.33334C3.70153 7.33337 4.00001 7.0349 4.00001 6.66671V4.66671C4.00001 4.29852 4.29849 4.00004 4.66668 4.00004H6.66668C7.03487 4.00004 7.33334 3.70156 7.33334 3.33337V2.66671Z" stroke="#010644" stroke-width="1.5" stroke-linecap="round" stroke-linejoin="round"/>
</svg>
